{"glyphs":{"0":{"ha":943,"x_min":0,"x_max":0,"o":"m 471 -17 b 888 486 711 -17 888 165 b 471 989 888 807 711 989 b 54 486 232 989 54 807 b 471 -17 54 165 232 -17 z m 471 174 b 282 486 360 174 282 265 b 471 799 282 707 360 799 b 661 486 583 799 661 707 b 471 174 661 265 583 174 z "},"1":{"ha":544,"x_min":0,"x_max":0,"o":"m 10 972 l 10 792 l 204 792 l 204 0 l 429 0 l 429 972 z "},"2":{"ha":819,"x_min":0,"x_max":0,"o":"m 363 183 l 586 394 b 749 701 722 521 749 607 b 388 989 749 878 604 989 b 1 808 213 989 76 918 l 165 703 b 367 800 213 768 283 800 b 522 679 469 800 522 756 b 421 500 522 632 507 582 l 46 146 l 46 0 l 781 0 l 781 183 z "},"3":{"ha":822,"x_min":0,"x_max":0,"o":"m 508 576 l 728 826 l 728 972 l 47 972 l 47 792 l 461 792 l 261 565 l 261 417 l 364 417 b 546 297 492 417 546 371 b 364 172 546 218 476 172 b 86 260 263 172 160 204 l -1 88 b 369 -17 93 21 233 -17 b 772 297 646 -17 772 133 b 508 576 772 440 683 549 z "},"4":{"ha":957,"x_min":0,"x_max":0,"o":"m 944 388 l 786 388 l 786 569 l 574 569 l 574 388 l 313 388 l 738 972 l 501 972 l 43 356 l 43 204 l 567 204 l 567 0 l 786 0 l 786 204 l 944 204 z "},"5":{"ha":826,"x_min":0,"x_max":0,"o":"m 388 607 l 308 607 l 324 792 l 729 792 l 729 972 l 136 972 l 86 425 l 335 425 b 561 299 511 425 561 375 b 379 172 561 219 492 172 b 103 260 278 172 176 204 l 14 88 b 385 -17 108 21 250 -17 b 789 306 663 -17 789 133 b 388 607 789 478 675 607 z "},"6":{"ha":885,"x_min":0,"x_max":0,"o":"m 522 610 b 282 524 421 610 339 581 b 556 806 289 710 393 806 b 738 757 621 806 683 793 l 821 922 b 550 989 753 965 653 989 b 54 465 257 989 54 801 b 489 -17 54 151 221 -17 b 857 307 694 -17 857 108 b 522 610 857 490 710 610 z m 476 151 b 306 296 368 151 306 213 b 474 442 306 381 375 442 b 639 296 574 442 639 385 b 476 151 639 207 572 151 z "},"7":{"ha":861,"x_min":0,"x_max":0,"o":"m 36 972 l 36 631 l 236 631 l 236 789 l 558 789 l 210 0 l 454 0 l 815 826 l 815 972 z "},"8":{"ha":917,"x_min":0,"x_max":0,"o":"m 719 511 b 833 711 792 556 833 624 b 457 989 833 882 681 989 b 83 711 236 989 83 882 b 196 511 83 624 124 556 b 49 282 103 464 49 386 b 457 -17 49 99 211 -17 b 868 282 704 -17 868 99 b 719 511 868 386 814 464 z m 457 824 b 610 701 549 824 610 778 b 457 582 610 628 550 582 b 307 701 365 582 307 628 b 457 824 307 778 367 824 z m 457 149 b 276 289 346 149 276 203 b 457 428 276 375 346 428 b 640 289 569 428 640 375 b 457 149 640 203 569 149 z "},"9":{"ha":885,"x_min":0,"x_max":0,"o":"m 396 989 b 28 665 190 989 28 864 b 363 363 28 482 175 363 b 604 450 464 363 547 393 b 331 167 597 263 492 167 b 149 215 264 167 201 179 l 65 50 b 335 -17 133 7 232 -17 b 831 507 629 -17 831 171 b 396 989 831 821 665 989 z m 413 531 b 247 676 313 531 247 588 b 410 821 247 765 314 821 b 579 676 517 821 579 760 b 413 531 579 592 511 531 z "},"A":{"ha":1064,"x_min":0,"x_max":0,"o":"m 842 0 l 1078 0 l 643 972 l 421 972 l -12 0 l 218 0 l 304 208 l 756 208 z m 376 379 l 531 751 l 685 379 z "},"Á":{"ha":1064,"x_min":0,"x_max":0,"o":"m 826 1251 l 593 1251 l 406 1051 l 575 1051 z m 842 0 l 1078 0 l 643 972 l 421 972 l -12 0 l 218 0 l 304 208 l 756 208 z m 376 379 l 531 751 l 685 379 z "},"Ă":{"ha":1064,"x_min":0,"x_max":0,"o":"m 532 1040 b 788 1251 676 1040 782 1121 l 651 1251 b 532 1153 649 1192 597 1153 b 413 1251 467 1153 415 1192 l 276 1251 b 532 1040 282 1121 388 1040 z m 842 0 l 1078 0 l 643 972 l 421 972 l -12 0 l 218 0 l 304 208 l 756 208 z m 376 379 l 531 751 l 685 379 z "},"Ắ":{"ha":1064,"x_min":0,"x_max":0,"o":"m 788 1419 l 567 1419 l 413 1251 l 569 1251 z m 532 1040 b 788 1210 675 1040 778 1106 l 657 1210 b 532 1144 651 1171 601 1144 b 407 1210 463 1144 413 1171 l 276 1210 b 532 1040 286 1106 389 1040 z m 842 0 l 1078 0 l 643 972 l 421 972 l -12 0 l 218 0 l 304 208 l 756 208 z m 376 379 l 531 751 l 685 379 z "},"Ặ":{"ha":1064,"x_min":0,"x_max":0,"o":"m 532 1040 b 788 1251 676 1040 782 1121 l 651 1251 b 532 1153 649 1192 597 1153 b 413 1251 467 1153 415 1192 l 276 1251 b 532 1040 282 1121 388 1040 z m 1078 0 l 643 972 l 421 972 l -12 0 l 218 0 l 304 208 l 756 208 l 842 0 z m 376 379 l 531 751 l 685 379 z m 532 -101 b 436 -199 478 -101 436 -142 b 532 -292 436 -256 478 -292 b 628 -199 586 -292 628 -256 b 532 -101 628 -142 586 -101 z "},"Ằ":{"ha":1064,"x_min":0,"x_max":0,"o":"m 651 1251 l 499 1419 l 278 1419 l 496 1251 z m 532 1040 b 788 1210 675 1040 778 1106 l 657 1210 b 532 1144 651 1171 601 1144 b 407 1210 463 1144 413 1171 l 276 1210 b 532 1040 286 1106 389 1040 z m 842 0 l 1078 0 l 643 972 l 421 972 l -12 0 l 218 0 l 304 208 l 756 208 z m 376 379 l 531 751 l 685 379 z "},"Ẳ":{"ha":1064,"x_min":0,"x_max":0,"o":"m 518 1363 b 565 1322 546 1363 565 1347 b 514 1264 565 1304 551 1282 l 567 1213 b 664 1333 621 1233 664 1278 b 536 1443 664 1400 614 1443 b 421 1413 494 1443 453 1433 l 457 1346 b 518 1363 478 1357 496 1363 z m 532 1040 b 788 1210 675 1040 778 1106 l 657 1210 b 532 1144 651 1171 601 1144 b 407 1210 463 1144 413 1171 l 276 1210 b 532 1040 286 1106 389 1040 z m 842 0 l 1078 0 l 643 972 l 421 972 l -12 0 l 218 0 l 304 208 l 756 208 z m 376 379 l 531 751 l 685 379 z "},"Ẵ":{"ha":1064,"x_min":0,"x_max":0,"o":"m 443 1321 b 635 1249 489 1321 539 1249 b 793 1421 733 1249 792 1314 l 685 1421 b 624 1358 682 1385 661 1358 b 432 1431 575 1358 525 1431 b 271 1257 333 1431 272 1368 l 382 1257 b 443 1321 385 1297 406 1321 z m 532 1144 b 407 1210 463 1144 413 1171 l 276 1210 b 532 1040 286 1106 389 1040 b 788 1210 675 1040 778 1106 l 657 1210 b 532 1144 651 1171 601 1144 z m 842 0 l 1078 0 l 643 972 l 421 972 l -12 0 l 218 0 l 304 208 l 756 208 z m 376 379 l 531 751 l 685 379 z "},"Ǎ":{"ha":1064,"x_min":0,"x_max":0,"o":"m 628 1051 l 811 1251 l 653 1251 l 532 1147 l 411 1251 l 253 1251 l 436 1051 z m 842 0 l 1078 0 l 643 972 l 421 972 l -12 0 l 218 0 l 304 208 l 756 208 z m 376 379 l 531 751 l 685 379 z "},"Â":{"ha":1064,"x_min":0,"x_max":0,"o":"m 532 1157 l 653 1051 l 811 1051 l 628 1251 l 436 1251 l 253 1051 l 411 1051 z m 842 0 l 1078 0 l 643 972 l 421 972 l -12 0 l 218 0 l 304 208 l 756 208 z m 376 379 l 531 751 l 685 379 z "},"Ấ":{"ha":1064,"x_min":0,"x_max":0,"o":"m 1074 1353 l 853 1353 l 699 1185 l 856 1185 z m 532 1131 l 651 1051 l 811 1051 l 626 1210 l 438 1210 l 253 1051 l 413 1051 z m 842 0 l 1078 0 l 643 972 l 421 972 l -12 0 l 218 0 l 304 208 l 756 208 z m 376 379 l 531 751 l 685 379 z "},"Ậ":{"ha":1064,"x_min":0,"x_max":0,"o":"m 532 1157 l 653 1051 l 811 1051 l 628 1251 l 436 1251 l 253 1051 l 411 1051 z m 1078 0 l 643 972 l 421 972 l -12 0 l 218 0 l 304 208 l 756 208 l 842 0 z m 376 379 l 531 751 l 685 379 z m 532 -101 b 436 -199 478 -101 436 -142 b 532 -292 436 -256 478 -292 b 628 -199 586 -292 628 -256 b 532 -101 628 -142 586 -101 z "},"Ầ":{"ha":1064,"x_min":0,"x_max":0,"o":"m 938 1185 l 785 1353 l 564 1353 l 782 1185 z m 532 1131 l 651 1051 l 811 1051 l 626 1210 l 438 1210 l 253 1051 l 413 1051 z m 842 0 l 1078 0 l 643 972 l 421 972 l -12 0 l 218 0 l 304 208 l 756 208 z m 376 379 l 531 751 l 685 379 z "},"Ẩ":{"ha":1064,"x_min":0,"x_max":0,"o":"m 731 1308 b 778 1268 758 1308 778 1293 b 726 1210 778 1250 764 1228 l 779 1158 b 876 1279 833 1179 876 1224 b 749 1389 876 1346 826 1389 b 633 1358 707 1389 665 1379 l 669 1292 b 731 1308 690 1303 708 1308 z m 532 1131 l 651 1051 l 811 1051 l 626 1210 l 438 1210 l 253 1051 l 413 1051 z m 842 0 l 1078 0 l 643 972 l 421 972 l -12 0 l 218 0 l 304 208 l 756 208 z m 376 379 l 531 751 l 685 379 z "},"Ẫ":{"ha":1064,"x_min":0,"x_max":0,"o":"m 443 1331 b 635 1258 489 1331 539 1258 b 793 1431 733 1258 792 1324 l 685 1431 b 624 1368 682 1394 661 1368 b 432 1440 575 1368 525 1440 b 271 1267 333 1440 272 1378 l 382 1267 b 443 1331 385 1307 406 1331 z m 532 1131 l 651 1051 l 811 1051 l 626 1210 l 438 1210 l 253 1051 l 413 1051 z m 842 0 l 1078 0 l 643 972 l 421 972 l -12 0 l 218 0 l 304 208 l 756 208 z m 376 379 l 531 751 l 685 379 z "},"Ȁ":{"ha":1064,"x_min":0,"x_max":0,"o":"m 471 1051 l 371 1251 l 168 1251 l 313 1051 z m 751 1051 l 651 1251 l 449 1251 l 593 1051 z m 842 0 l 1078 0 l 643 972 l 421 972 l -12 0 l 218 0 l 304 208 l 756 208 z m 376 379 l 531 751 l 685 379 z "},"Ä":{"ha":1064,"x_min":0,"x_max":0,"o":"m 392 1058 b 488 1154 446 1058 488 1097 b 392 1250 488 1211 446 1250 b 294 1154 338 1250 294 1211 b 392 1058 294 1097 338 1058 z m 672 1058 b 769 1154 726 1058 769 1097 b 672 1250 769 1211 726 1250 b 576 1154 618 1250 576 1211 b 672 1058 576 1097 618 1058 z m 842 0 l 1078 0 l 643 972 l 421 972 l -12 0 l 218 0 l 304 208 l 756 208 z m 376 379 l 531 751 l 685 379 z "},"Ạ":{"ha":1064,"x_min":0,"x_max":0,"o":"m 1078 0 l 643 972 l 421 972 l -12 0 l 218 0 l 304 208 l 756 208 l 842 0 z m 376 379 l 531 751 l 685 379 z m 532 -101 b 436 -199 478 -101 436 -142 b 532 -292 436 -256 478 -292 b 628 -199 586 -292 628 -256 b 532 -101 628 -142 586 -101 z "},"À":{"ha":1064,"x_min":0,"x_max":0,"o":"m 658 1051 l 471 1251 l 238 1251 l 489 1051 z m 842 0 l 1078 0 l 643 972 l 421 972 l -12 0 l 218 0 l 304 208 l 756 208 z m 376 379 l 531 751 l 685 379 z "},"Ả":{"ha":1064,"x_min":0,"x_max":0,"o":"m 511 1253 b 576 1194 550 1253 576 1229 b 506 1110 576 1163 560 1135 l 574 1038 b 701 1213 658 1076 701 1133 b 535 1361 701 1301 633 1361 b 385 1314 479 1361 425 1346 l 429 1226 b 511 1253 457 1244 483 1253 z m 842 0 l 1078 0 l 643 972 l 421 972 l -12 0 l 218 0 l 304 208 l 756 208 z m 376 379 l 531 751 l 685 379 z "},"Ȃ":{"ha":1064,"x_min":0,"x_max":0,"o":"m 532 1150 b 651 1051 597 1150 649 1113 l 788 1051 b 532 1263 782 1182 676 1263 b 276 1051 388 1263 282 1182 l 413 1051 b 532 1150 415 1113 467 1150 z m 842 0 l 1078 0 l 643 972 l 421 972 l -12 0 l 218 0 l 304 208 l 756 208 z m 376 379 l 531 751 l 685 379 z "},"Ā":{"ha":1064,"x_min":0,"x_max":0,"o":"m 789 1213 l 275 1213 l 275 1090 l 789 1090 z m 842 0 l 1078 0 l 643 972 l 421 972 l -12 0 l 218 0 l 304 208 l 756 208 z m 376 379 l 531 751 l 685 379 z "},"Ą":{"ha":1064,"x_min":0,"x_max":0,"o":"m 1079 -192 b 994 -212 1057 -204 1025 -212 b 915 -149 946 -212 915 -187 b 1078 0 915 -97 958 -53 l 643 972 l 421 972 l -12 0 l 218 0 l 304 208 l 756 208 l 842 0 l 879 0 b 778 -167 810 -49 778 -106 b 969 -322 778 -260 849 -322 b 1110 -290 1022 -322 1076 -308 z m 376 379 l 531 751 l 685 379 z "},"Å":{"ha":1064,"x_min":0,"x_max":0,"o":"m 531 1047 b 704 1215 629 1047 704 1121 b 531 1383 704 1308 629 1383 b 360 1215 433 1383 360 1308 b 531 1047 360 1121 433 1047 z m 531 1300 b 615 1215 579 1300 615 1264 b 531 1131 615 1167 579 1131 b 447 1215 483 1131 447 1167 b 531 1300 447 1264 485 1300 z m 842 0 l 1078 0 l 643 972 l 421 972 l -12 0 l 218 0 l 304 208 l 756 208 z m 376 379 l 531 751 l 685 379 z "},"Ǻ":{"ha":1064,"x_min":0,"x_max":0,"o":"m 531 1047 b 704 1215 629 1047 704 1121 b 681 1303 704 1247 696 1276 l 831 1411 l 724 1494 l 603 1369 b 531 1383 581 1378 557 1383 b 360 1215 433 1383 360 1308 b 531 1047 360 1121 433 1047 z m 531 1300 b 615 1215 579 1300 615 1264 b 531 1131 615 1167 579 1131 b 447 1215 483 1131 447 1167 b 531 1300 447 1264 485 1300 z m 842 0 l 1078 0 l 643 972 l 421 972 l -12 0 l 218 0 l 304 208 l 756 208 z m 376 379 l 531 751 l 685 379 z "},"Ã":{"ha":1064,"x_min":0,"x_max":0,"o":"m 442 1135 b 636 1047 492 1135 540 1047 b 799 1246 733 1047 796 1126 l 689 1246 b 622 1171 686 1200 660 1171 b 428 1260 572 1171 524 1260 b 265 1057 331 1260 268 1181 l 375 1057 b 442 1135 378 1107 404 1135 z m 842 0 l 1078 0 l 643 972 l 421 972 l -12 0 l 218 0 l 304 208 l 756 208 z m 376 379 l 531 751 l 685 379 z "},"Æ":{"ha":1500,"x_min":0,"x_max":0,"o":"m 907 181 l 907 406 l 1360 406 l 1360 581 l 907 581 l 907 792 l 1418 792 l 1418 972 l 536 972 l -12 0 l 218 0 l 332 208 l 683 208 l 683 0 l 1436 0 l 1436 181 z m 425 379 l 651 792 l 683 792 l 683 379 z "},"Ǽ":{"ha":1500,"x_min":0,"x_max":0,"o":"m 1089 1251 l 856 1251 l 668 1051 l 838 1051 z m 907 181 l 907 406 l 1360 406 l 1360 581 l 907 581 l 907 792 l 1418 792 l 1418 972 l 536 972 l -12 0 l 218 0 l 332 208 l 683 208 l 683 0 l 1436 0 l 1436 181 z m 425 379 l 651 792 l 683 792 l 683 379 z "},"B":{"ha":1063,"x_min":0,"x_max":0,"o":"m 829 506 b 958 719 908 547 958 622 b 590 972 958 871 833 972 l 115 972 l 115 0 l 618 0 b 1007 265 874 0 1007 97 b 829 506 1007 388 938 471 z m 563 803 b 732 689 672 803 732 765 b 563 574 732 613 672 574 l 339 574 l 339 803 z m 601 169 l 339 169 l 339 410 l 601 410 b 781 289 718 410 781 371 b 601 169 781 206 718 169 z "},"C":{"ha":1018,"x_min":0,"x_max":0,"o":"m 581 -17 b 982 157 750 -17 890 44 l 838 290 b 593 175 772 214 690 175 b 282 486 411 175 282 303 b 593 797 282 669 411 797 b 838 683 690 797 772 758 l 982 817 b 582 989 890 928 750 989 b 54 486 279 989 54 779 b 581 -17 54 193 279 -17 z "},"Ć":{"ha":1018,"x_min":0,"x_max":0,"o":"m 449 1051 l 618 1051 l 869 1251 l 636 1251 z m 581 -17 b 982 157 750 -17 890 44 l 838 290 b 593 175 772 214 690 175 b 282 486 411 175 282 303 b 593 797 282 669 411 797 b 838 683 690 797 772 758 l 982 817 b 582 989 890 928 750 989 b 54 486 279 989 54 779 b 581 -17 54 193 279 -17 z "},"Č":{"ha":1018,"x_min":0,"x_max":0,"o":"m 671 1051 l 854 1251 l 696 1251 l 575 1147 l 454 1251 l 296 1251 l 479 1051 z m 593 175 b 282 486 411 175 282 303 b 593 797 282 669 411 797 b 838 683 690 797 772 758 l 982 817 b 582 989 890 928 750 989 b 54 486 279 989 54 779 b 581 -17 54 193 279 -17 b 982 157 750 -17 890 44 l 838 290 b 593 175 772 214 690 175 z "},"Ç":{"ha":1018,"x_min":0,"x_max":0,"o":"m 593 175 b 282 486 411 175 282 303 b 593 797 282 669 411 797 b 838 683 690 797 772 758 l 982 817 b 582 989 890 928 750 989 b 54 486 279 989 54 779 b 488 -10 54 224 235 29 l 457 -136 l 504 -136 b 572 -176 553 -136 572 -153 b 500 -221 572 -203 551 -221 b 410 -200 467 -221 436 -212 l 376 -293 b 506 -322 408 -311 457 -322 b 710 -185 629 -322 710 -269 b 589 -69 710 -128 674 -79 l 601 -17 b 982 157 761 -11 894 49 l 838 290 b 593 175 772 214 690 175 z "},"Ḉ":{"ha":1018,"x_min":0,"x_max":0,"o":"m 869 1251 l 636 1251 l 449 1051 l 618 1051 z m 593 175 b 282 486 411 175 282 303 b 593 797 282 669 411 797 b 838 683 690 797 772 758 l 982 817 b 582 989 890 928 750 989 b 54 486 279 989 54 779 b 488 -10 54 224 235 29 l 457 -136 l 504 -136 b 572 -176 553 -136 572 -153 b 500 -221 572 -203 551 -221 b 410 -200 467 -221 436 -212 l 376 -293 b 506 -322 408 -311 457 -322 b 710 -185 629 -322 710 -269 b 589 -69 710 -128 674 -79 l 601 -17 b 982 157 761 -11 894 49 l 838 290 b 593 175 772 214 690 175 z "},"Ĉ":{"ha":1018,"x_min":0,"x_max":0,"o":"m 575 1157 l 696 1051 l 854 1051 l 671 1251 l 479 1251 l 296 1051 l 454 1051 z m 593 175 b 282 486 411 175 282 303 b 593 797 282 669 411 797 b 838 683 690 797 772 758 l 982 817 b 582 989 890 928 750 989 b 54 486 279 989 54 779 b 581 -17 54 193 279 -17 b 982 157 750 -17 890 44 l 838 290 b 593 175 772 214 690 175 z "},"Ċ":{"ha":1018,"x_min":0,"x_max":0,"o":"m 575 1058 b 692 1176 643 1058 692 1108 b 575 1293 692 1243 643 1293 b 458 1176 507 1293 458 1243 b 575 1058 458 1108 507 1058 z m 581 -17 b 982 157 750 -17 890 44 l 838 290 b 593 175 772 214 690 175 b 282 486 411 175 282 303 b 593 797 282 669 411 797 b 838 683 690 797 772 758 l 982 817 b 582 989 890 928 750 989 b 54 486 279 989 54 779 b 581 -17 54 193 279 -17 z "},"D":{"ha":1147,"x_min":0,"x_max":0,"o":"m 115 0 l 557 0 b 1093 486 875 0 1093 192 b 557 972 1093 781 875 972 l 115 972 z m 340 185 l 340 788 l 546 788 b 865 486 739 788 865 672 b 546 185 865 300 739 185 z "},"Ǆ":{"ha":2013,"x_min":0,"x_max":0,"o":"m 1653 1051 l 1836 1251 l 1678 1251 l 1557 1147 l 1436 1251 l 1278 1251 l 1461 1051 z m 557 972 l 115 972 l 115 0 l 557 0 b 1093 486 875 0 1093 192 b 557 972 1093 781 875 972 z m 1429 183 l 1961 826 l 1961 972 l 1143 972 l 1143 789 l 1665 789 l 1132 146 l 1132 0 l 1982 0 l 1982 183 z m 546 185 l 340 185 l 340 788 l 546 788 b 865 486 739 788 865 672 b 546 185 865 300 739 185 z "},"Ð":{"ha":1165,"x_min":0,"x_max":0,"o":"m 575 972 l 133 972 l 133 569 l 1 569 l 1 419 l 133 419 l 133 0 l 575 0 b 1111 486 893 0 1111 192 b 575 972 1111 781 893 972 z m 564 185 l 358 185 l 358 419 l 601 419 l 601 569 l 358 569 l 358 788 l 564 788 b 883 486 757 788 883 672 b 564 185 883 300 757 185 z "},"Ď":{"ha":1147,"x_min":0,"x_max":0,"o":"m 610 1050 l 793 1250 l 635 1250 l 514 1146 l 393 1250 l 235 1250 l 418 1050 z m 557 972 l 115 972 l 115 0 l 557 0 b 1093 486 875 0 1093 192 b 557 972 1093 781 875 972 z m 546 185 l 340 185 l 340 788 l 546 788 b 865 486 739 788 865 672 b 546 185 865 300 739 185 z "},"Đ":{"ha":1165,"x_min":0,"x_max":0,"o":"m 575 972 l 133 972 l 133 569 l 1 569 l 1 419 l 133 419 l 133 0 l 575 0 b 1111 486 893 0 1111 192 b 575 972 1111 781 893 972 z m 564 185 l 358 185 l 358 419 l 601 419 l 601 569 l 358 569 l 358 788 l 564 788 b 883 486 757 788 883 672 b 564 185 883 300 757 185 z "},"Ḍ":{"ha":1147,"x_min":0,"x_max":0,"o":"m 115 0 l 557 0 b 1093 486 875 0 1093 192 b 557 972 1093 781 875 972 l 115 972 z m 340 185 l 340 788 l 546 788 b 865 486 739 788 865 672 b 546 185 865 300 739 185 z m 518 -292 b 614 -199 572 -292 614 -256 b 518 -101 614 -142 572 -101 b 422 -199 464 -101 422 -142 b 518 -292 422 -256 464 -292 z "},"Ḏ":{"ha":1147,"x_min":0,"x_max":0,"o":"m 115 0 l 557 0 b 1093 486 875 0 1093 192 b 557 972 1093 781 875 972 l 115 972 z m 340 185 l 340 788 l 546 788 b 865 486 739 788 865 672 b 546 185 865 300 739 185 z m 261 -253 l 775 -253 l 775 -132 l 261 -132 z "},"ǅ":{"ha":1901,"x_min":0,"x_max":0,"o":"m 1625 843 l 1808 1043 l 1650 1043 l 1529 939 l 1408 1043 l 1250 1043 l 1433 843 z m 557 972 l 115 972 l 115 0 l 557 0 b 1093 486 875 0 1093 192 b 557 972 1093 781 875 972 z m 546 185 l 340 185 l 340 788 l 546 788 b 865 486 739 788 865 672 b 546 185 865 300 739 185 z m 1469 167 l 1850 617 l 1850 747 l 1206 747 l 1206 581 l 1576 581 l 1196 131 l 1196 0 l 1863 0 l 1863 167 z "},"E":{"ha":932,"x_min":0,"x_max":0,"o":"m 339 181 l 339 406 l 790 406 l 790 581 l 339 581 l 339 792 l 850 792 l 850 972 l 115 972 l 115 0 l 868 0 l 868 181 z "},"É":{"ha":932,"x_min":0,"x_max":0,"o":"m 778 1251 l 544 1251 l 357 1051 l 526 1051 z m 339 181 l 339 406 l 790 406 l 790 581 l 339 581 l 339 792 l 850 792 l 850 972 l 115 972 l 115 0 l 868 0 l 868 181 z "},"Ĕ":{"ha":932,"x_min":0,"x_max":0,"o":"m 483 1040 b 739 1251 628 1040 733 1121 l 603 1251 b 483 1153 600 1192 549 1153 b 364 1251 418 1153 367 1192 l 228 1251 b 483 1040 233 1121 339 1040 z m 339 181 l 339 406 l 790 406 l 790 581 l 339 581 l 339 792 l 850 792 l 850 972 l 115 972 l 115 0 l 868 0 l 868 181 z "},"Ě":{"ha":932,"x_min":0,"x_max":0,"o":"m 579 1051 l 763 1251 l 604 1251 l 483 1147 l 363 1251 l 204 1251 l 388 1051 z m 339 181 l 339 406 l 790 406 l 790 581 l 339 581 l 339 792 l 850 792 l 850 972 l 115 972 l 115 0 l 868 0 l 868 181 z "},"Ḝ":{"ha":932,"x_min":0,"x_max":0,"o":"m 483 1040 b 739 1251 628 1040 733 1121 l 603 1251 b 483 1153 600 1192 549 1153 b 364 1251 418 1153 367 1192 l 228 1251 b 483 1040 233 1121 339 1040 z m 868 0 l 868 181 l 339 181 l 339 406 l 790 406 l 790 581 l 339 581 l 339 792 l 850 792 l 850 972 l 115 972 l 115 0 l 429 0 l 396 -136 l 443 -136 b 511 -176 492 -136 511 -153 b 439 -221 511 -203 490 -221 b 349 -200 406 -221 375 -212 l 315 -293 b 444 -322 347 -311 396 -322 b 649 -185 568 -322 649 -269 b 528 -69 649 -128 613 -79 l 544 0 z "},"Ê":{"ha":932,"x_min":0,"x_max":0,"o":"m 483 1157 l 604 1051 l 763 1051 l 579 1251 l 388 1251 l 204 1051 l 363 1051 z m 339 181 l 339 406 l 790 406 l 790 581 l 339 581 l 339 792 l 850 792 l 850 972 l 115 972 l 115 0 l 868 0 l 868 181 z "},"Ế":{"ha":932,"x_min":0,"x_max":0,"o":"m 1025 1353 l 804 1353 l 650 1185 l 807 1185 z m 483 1131 l 603 1051 l 763 1051 l 578 1210 l 389 1210 l 204 1051 l 364 1051 z m 339 406 l 790 406 l 790 581 l 339 581 l 339 792 l 850 792 l 850 972 l 115 972 l 115 0 l 868 0 l 868 181 l 339 181 z "},"Ệ":{"ha":932,"x_min":0,"x_max":0,"o":"m 483 1157 l 604 1051 l 763 1051 l 579 1251 l 388 1251 l 204 1051 l 363 1051 z m 339 181 l 339 406 l 790 406 l 790 581 l 339 581 l 339 792 l 850 792 l 850 972 l 115 972 l 115 0 l 868 0 l 868 181 z m 490 -101 b 394 -199 436 -101 394 -142 b 490 -292 394 -256 436 -292 b 586 -199 544 -292 586 -256 b 490 -101 586 -142 544 -101 z "},"Ề":{"ha":932,"x_min":0,"x_max":0,"o":"m 889 1185 l 736 1353 l 515 1353 l 733 1185 z m 483 1131 l 603 1051 l 763 1051 l 578 1210 l 389 1210 l 204 1051 l 364 1051 z m 339 406 l 790 406 l 790 581 l 339 581 l 339 792 l 850 792 l 850 972 l 115 972 l 115 0 l 868 0 l 868 181 l 339 181 z "},"Ể":{"ha":932,"x_min":0,"x_max":0,"o":"m 682 1308 b 729 1268 710 1308 729 1293 b 678 1210 729 1250 715 1228 l 731 1158 b 828 1279 785 1179 828 1224 b 700 1389 828 1346 778 1389 b 585 1358 658 1389 617 1379 l 621 1292 b 682 1308 642 1303 660 1308 z m 483 1131 l 603 1051 l 763 1051 l 578 1210 l 389 1210 l 204 1051 l 364 1051 z m 339 181 l 339 406 l 790 406 l 790 581 l 339 581 l 339 792 l 850 792 l 850 972 l 115 972 l 115 0 l 868 0 l 868 181 z "},"Ễ":{"ha":932,"x_min":0,"x_max":0,"o":"m 394 1331 b 586 1258 440 1331 490 1258 b 744 1431 685 1258 743 1324 l 636 1431 b 575 1368 633 1394 613 1368 b 383 1440 526 1368 476 1440 b 222 1267 285 1440 224 1378 l 333 1267 b 394 1331 336 1307 357 1331 z m 483 1131 l 603 1051 l 763 1051 l 578 1210 l 389 1210 l 204 1051 l 364 1051 z m 339 181 l 339 406 l 790 406 l 790 581 l 339 581 l 339 792 l 850 792 l 850 972 l 115 972 l 115 0 l 868 0 l 868 181 z "},"Ȅ":{"ha":932,"x_min":0,"x_max":0,"o":"m 422 1051 l 322 1251 l 119 1251 l 264 1051 z m 703 1051 l 603 1251 l 400 1251 l 544 1051 z m 339 181 l 339 406 l 790 406 l 790 581 l 339 581 l 339 792 l 850 792 l 850 972 l 115 972 l 115 0 l 868 0 l 868 181 z "},"Ë":{"ha":932,"x_min":0,"x_max":0,"o":"m 343 1058 b 439 1154 397 1058 439 1097 b 343 1250 439 1211 397 1250 b 246 1154 289 1250 246 1211 b 343 1058 246 1097 289 1058 z m 624 1058 b 721 1154 678 1058 721 1097 b 624 1250 721 1211 678 1250 b 528 1154 569 1250 528 1211 b 624 1058 528 1097 569 1058 z m 339 181 l 339 406 l 790 406 l 790 581 l 339 581 l 339 792 l 850 792 l 850 972 l 115 972 l 115 0 l 868 0 l 868 181 z "},"Ė":{"ha":932,"x_min":0,"x_max":0,"o":"m 483 1058 b 600 1176 551 1058 600 1108 b 483 1293 600 1243 551 1293 b 367 1176 415 1293 367 1243 b 483 1058 367 1108 415 1058 z m 339 181 l 339 406 l 790 406 l 790 581 l 339 581 l 339 792 l 850 792 l 850 972 l 115 972 l 115 0 l 868 0 l 868 181 z "},"Ẹ":{"ha":932,"x_min":0,"x_max":0,"o":"m 339 181 l 339 406 l 790 406 l 790 581 l 339 581 l 339 792 l 850 792 l 850 972 l 115 972 l 115 0 l 868 0 l 868 181 z m 490 -101 b 394 -199 436 -101 394 -142 b 490 -292 394 -256 436 -292 b 586 -199 544 -292 586 -256 b 490 -101 586 -142 544 -101 z "},"È":{"ha":932,"x_min":0,"x_max":0,"o":"m 610 1051 l 422 1251 l 189 1251 l 440 1051 z m 339 181 l 339 406 l 790 406 l 790 581 l 339 581 l 339 792 l 850 792 l 850 972 l 115 972 l 115 0 l 868 0 l 868 181 z "},"Ẻ":{"ha":932,"x_min":0,"x_max":0,"o":"m 463 1253 b 528 1194 501 1253 528 1229 b 457 1110 528 1163 511 1135 l 525 1038 b 653 1213 610 1076 653 1133 b 486 1361 653 1301 585 1361 b 336 1314 431 1361 376 1346 l 381 1226 b 463 1253 408 1244 435 1253 z m 339 181 l 339 406 l 790 406 l 790 581 l 339 581 l 339 792 l 850 792 l 850 972 l 115 972 l 115 0 l 868 0 l 868 181 z "},"Ȇ":{"ha":932,"x_min":0,"x_max":0,"o":"m 483 1150 b 603 1051 549 1150 600 1113 l 739 1051 b 483 1263 733 1182 628 1263 b 228 1051 339 1263 233 1182 l 364 1051 b 483 1150 367 1113 418 1150 z m 339 181 l 339 406 l 790 406 l 790 581 l 339 581 l 339 792 l 850 792 l 850 972 l 115 972 l 115 0 l 868 0 l 868 181 z "},"Ē":{"ha":932,"x_min":0,"x_max":0,"o":"m 740 1213 l 226 1213 l 226 1090 l 740 1090 z m 339 181 l 339 406 l 790 406 l 790 581 l 339 581 l 339 792 l 850 792 l 850 972 l 115 972 l 115 0 l 868 0 l 868 181 z "},"Ḗ":{"ha":932,"x_min":0,"x_max":0,"o":"m 739 1443 l 518 1443 l 364 1275 l 521 1275 z m 740 1189 l 226 1189 l 226 1074 l 740 1074 z m 339 181 l 339 406 l 790 406 l 790 581 l 339 581 l 339 792 l 850 792 l 850 972 l 115 972 l 115 0 l 868 0 l 868 181 z "},"Ḕ":{"ha":932,"x_min":0,"x_max":0,"o":"m 603 1275 l 450 1443 l 229 1443 l 447 1275 z m 740 1189 l 226 1189 l 226 1074 l 740 1074 z m 339 181 l 339 406 l 790 406 l 790 581 l 339 581 l 339 792 l 850 792 l 850 972 l 115 972 l 115 0 l 868 0 l 868 181 z "},"Ę":{"ha":932,"x_min":0,"x_max":0,"o":"m 869 -192 b 785 -212 847 -204 815 -212 b 706 -149 736 -212 706 -187 b 868 0 706 -97 749 -53 l 868 181 l 339 181 l 339 406 l 790 406 l 790 581 l 339 581 l 339 792 l 850 792 l 850 972 l 115 972 l 115 0 l 669 0 b 568 -167 600 -49 568 -106 b 760 -322 568 -260 639 -322 b 900 -290 813 -322 867 -308 z "},"Ẽ":{"ha":932,"x_min":0,"x_max":0,"o":"m 393 1135 b 588 1047 443 1135 492 1047 b 750 1246 685 1047 747 1126 l 640 1246 b 574 1171 638 1200 611 1171 b 379 1260 524 1171 475 1260 b 217 1057 282 1260 219 1181 l 326 1057 b 393 1135 329 1107 356 1135 z m 339 181 l 339 406 l 790 406 l 790 581 l 339 581 l 339 792 l 850 792 l 850 972 l 115 972 l 115 0 l 868 0 l 868 181 z "},"Ʒ":{"ha":886,"x_min":0,"x_max":0,"o":"m 549 578 l 785 826 l 785 972 l 75 972 l 75 793 l 522 793 l 306 565 l 306 419 l 410 419 b 607 297 546 419 607 372 b 408 169 607 217 532 169 b 111 260 300 169 189 203 l 35 86 b 415 -17 125 21 272 -17 b 835 299 704 -17 835 132 b 549 578 835 443 738 550 z "},"Ǯ":{"ha":886,"x_min":0,"x_max":0,"o":"m 526 1051 l 710 1251 l 551 1251 l 431 1147 l 310 1251 l 151 1251 l 335 1051 z m 549 578 l 785 826 l 785 972 l 75 972 l 75 793 l 522 793 l 306 565 l 306 419 l 410 419 b 607 297 546 419 607 372 b 408 169 607 217 532 169 b 111 260 300 169 189 203 l 35 86 b 415 -17 125 21 272 -17 b 835 299 704 -17 835 132 b 549 578 835 443 738 550 z "},"F":{"ha":888,"x_min":0,"x_max":0,"o":"m 850 792 l 850 972 l 115 972 l 115 0 l 340 0 l 340 354 l 790 354 l 790 535 l 340 535 l 340 792 z "},"G":{"ha":1071,"x_min":0,"x_max":0,"o":"m 772 217 b 597 175 715 186 658 175 b 282 486 411 175 282 304 b 600 797 282 671 411 797 b 851 688 699 797 781 763 l 996 821 b 589 989 901 931 760 989 b 54 486 279 989 54 779 b 585 -17 54 193 279 -17 b 978 107 724 -17 871 26 l 978 501 l 772 501 z "},"Ğ":{"ha":1071,"x_min":0,"x_max":0,"o":"m 579 1040 b 835 1251 724 1040 829 1121 l 699 1251 b 579 1153 696 1192 644 1153 b 460 1251 514 1153 463 1192 l 324 1251 b 579 1040 329 1121 435 1040 z m 772 217 b 597 175 715 186 658 175 b 282 486 411 175 282 304 b 600 797 282 671 411 797 b 851 688 699 797 781 763 l 996 821 b 589 989 901 931 760 989 b 54 486 279 989 54 779 b 585 -17 54 193 279 -17 b 978 107 724 -17 871 26 l 978 501 l 772 501 z "},"Ǧ":{"ha":1071,"x_min":0,"x_max":0,"o":"m 675 1051 l 858 1251 l 700 1251 l 579 1147 l 458 1251 l 300 1251 l 483 1051 z m 772 217 b 597 175 715 186 658 175 b 282 486 411 175 282 304 b 600 797 282 671 411 797 b 851 688 699 797 781 763 l 996 821 b 589 989 901 931 760 989 b 54 486 279 989 54 779 b 585 -17 54 193 279 -17 b 978 107 724 -17 871 26 l 978 501 l 772 501 z "},"Ĝ":{"ha":1071,"x_min":0,"x_max":0,"o":"m 579 1157 l 700 1051 l 858 1051 l 675 1251 l 483 1251 l 300 1051 l 458 1051 z m 772 217 b 597 175 715 186 658 175 b 282 486 411 175 282 304 b 600 797 282 671 411 797 b 851 688 699 797 781 763 l 996 821 b 589 989 901 931 760 989 b 54 486 279 989 54 779 b 585 -17 54 193 279 -17 b 978 107 724 -17 871 26 l 978 501 l 772 501 z "},"Ģ":{"ha":1071,"x_min":0,"x_max":0,"o":"m 772 217 b 597 175 715 186 658 175 b 282 486 411 175 282 304 b 600 797 282 671 411 797 b 851 688 699 797 781 763 l 996 821 b 589 989 901 931 760 989 b 54 486 279 989 54 779 b 585 -17 54 193 279 -17 b 978 107 724 -17 871 26 l 978 501 l 772 501 z m 565 -101 b 469 -185 506 -101 469 -136 b 521 -258 469 -221 488 -247 l 486 -369 l 588 -369 l 636 -275 b 661 -185 657 -236 661 -207 b 565 -101 661 -136 625 -101 z "},"Ġ":{"ha":1071,"x_min":0,"x_max":0,"o":"m 579 1058 b 696 1176 647 1058 696 1108 b 579 1293 696 1243 647 1293 b 463 1176 511 1293 463 1243 b 579 1058 463 1108 511 1058 z m 772 217 b 597 175 715 186 658 175 b 282 486 411 175 282 304 b 600 797 282 671 411 797 b 851 688 699 797 781 763 l 996 821 b 589 989 901 931 760 989 b 54 486 279 989 54 779 b 585 -17 54 193 279 -17 b 978 107 724 -17 871 26 l 978 501 l 772 501 z "},"Ḡ":{"ha":1071,"x_min":0,"x_max":0,"o":"m 836 1213 l 322 1213 l 322 1090 l 836 1090 z m 772 217 b 597 175 715 186 658 175 b 282 486 411 175 282 304 b 600 797 282 671 411 797 b 851 688 699 797 781 763 l 996 821 b 589 989 901 931 760 989 b 54 486 279 989 54 779 b 585 -17 54 193 279 -17 b 978 107 724 -17 871 26 l 978 501 l 772 501 z "},"Ǥ":{"ha":1126,"x_min":0,"x_max":0,"o":"m 1100 424 l 978 424 l 978 501 l 772 501 l 772 424 l 546 424 l 546 275 l 772 275 l 772 217 b 597 175 715 186 658 175 b 282 486 411 175 282 304 b 600 797 282 671 411 797 b 851 688 699 797 781 763 l 996 821 b 589 989 901 931 760 989 b 54 486 279 989 54 779 b 585 -17 54 193 279 -17 b 978 107 724 -17 871 26 l 978 275 l 1100 275 z "},"H":{"ha":1122,"x_min":0,"x_max":0,"o":"m 782 972 l 782 589 l 340 589 l 340 972 l 115 972 l 115 0 l 340 0 l 340 399 l 782 399 l 782 0 l 1007 0 l 1007 972 z "},"Ħ":{"ha":1158,"x_min":0,"x_max":0,"o":"m 1157 858 l 1025 858 l 1025 972 l 800 972 l 800 858 l 358 858 l 358 972 l 133 972 l 133 858 l 1 858 l 1 708 l 133 708 l 133 0 l 358 0 l 358 399 l 800 399 l 800 0 l 1025 0 l 1025 708 l 1157 708 z m 800 589 l 358 589 l 358 708 l 800 708 z "},"Ḫ":{"ha":1122,"x_min":0,"x_max":0,"o":"m 782 972 l 782 589 l 340 589 l 340 972 l 115 972 l 115 0 l 340 0 l 340 399 l 782 399 l 782 0 l 1007 0 l 1007 972 z m 561 -196 b 435 -103 490 -196 438 -160 l 306 -103 b 561 -301 313 -222 417 -301 b 817 -103 706 -301 810 -222 l 688 -103 b 561 -196 685 -160 632 -196 z "},"Ȟ":{"ha":1122,"x_min":0,"x_max":0,"o":"m 657 1051 l 840 1251 l 682 1251 l 561 1147 l 440 1251 l 282 1251 l 465 1051 z m 782 972 l 782 589 l 340 589 l 340 972 l 115 972 l 115 0 l 340 0 l 340 399 l 782 399 l 782 0 l 1007 0 l 1007 972 z "},"Ĥ":{"ha":1122,"x_min":0,"x_max":0,"o":"m 561 1157 l 682 1051 l 840 1051 l 657 1251 l 465 1251 l 282 1051 l 440 1051 z m 782 972 l 782 589 l 340 589 l 340 972 l 115 972 l 115 0 l 340 0 l 340 399 l 782 399 l 782 0 l 1007 0 l 1007 972 z "},"Ḥ":{"ha":1122,"x_min":0,"x_max":0,"o":"m 782 972 l 782 589 l 340 589 l 340 972 l 115 972 l 115 0 l 340 0 l 340 399 l 782 399 l 782 0 l 1007 0 l 1007 972 z m 561 -101 b 465 -199 507 -101 465 -142 b 561 -292 465 -256 507 -292 b 657 -199 615 -292 657 -256 b 561 -101 657 -142 615 -101 z "},"I":{"ha":456,"x_min":0,"x_max":0,"o":"m 115 0 l 340 0 l 340 972 l 115 972 z "},"Ĳ":{"ha":1006,"x_min":0,"x_max":0,"o":"m 454 -17 b 899 438 722 -17 899 142 l 899 972 l 674 972 l 674 426 b 450 172 674 253 597 172 b 169 260 356 172 256 203 l 85 90 b 454 -17 178 26 307 -17 z m 107 447 l 332 447 l 332 972 l 107 972 z "},"Í":{"ha":456,"x_min":0,"x_max":0,"o":"m 101 1051 l 271 1051 l 522 1251 l 289 1251 z m 115 0 l 340 0 l 340 972 l 115 972 z "},"Ĭ":{"ha":456,"x_min":0,"x_max":0,"o":"m 228 1040 b 483 1251 372 1040 478 1121 l 347 1251 b 228 1153 344 1192 293 1153 b 108 1251 163 1153 111 1192 l -28 1251 b 228 1040 -22 1121 83 1040 z m 115 0 l 340 0 l 340 972 l 115 972 z "},"Î":{"ha":456,"x_min":0,"x_max":0,"o":"m 324 1251 l 132 1251 l -51 1051 l 107 1051 l 228 1157 l 349 1051 l 507 1051 z m 115 0 l 340 0 l 340 972 l 115 972 z "},"Ȉ":{"ha":456,"x_min":0,"x_max":0,"o":"m 8 1051 l 167 1051 l 67 1251 l -136 1251 z m 289 1051 l 447 1051 l 347 1251 l 144 1251 z m 115 0 l 340 0 l 340 972 l 115 972 z "},"Ï":{"ha":456,"x_min":0,"x_max":0,"o":"m 88 1058 b 183 1154 142 1058 183 1097 b 88 1250 183 1211 142 1250 b -10 1154 33 1250 -10 1211 b 88 1058 -10 1097 33 1058 z m 368 1058 b 465 1154 422 1058 465 1097 b 368 1250 465 1211 422 1250 b 272 1154 314 1250 272 1211 b 368 1058 272 1097 314 1058 z m 115 0 l 340 0 l 340 972 l 115 972 z "},"Ḯ":{"ha":456,"x_min":0,"x_max":0,"o":"m 108 1275 l 265 1275 l 483 1443 l 263 1443 z m 92 1058 b 185 1150 144 1058 185 1096 b 92 1242 185 1203 144 1242 b 0 1150 40 1242 0 1203 b 92 1058 0 1096 40 1058 z m 364 1058 b 456 1150 415 1058 456 1096 b 364 1242 456 1203 415 1242 b 272 1150 314 1242 272 1203 b 364 1058 272 1096 314 1058 z m 115 0 l 340 0 l 340 972 l 115 972 z "},"İ":{"ha":456,"x_min":0,"x_max":0,"o":"m 228 1058 b 344 1176 296 1058 344 1108 b 228 1293 344 1243 296 1293 b 111 1176 160 1293 111 1243 b 228 1058 111 1108 160 1058 z m 115 0 l 340 0 l 340 972 l 115 972 z "},"Ị":{"ha":456,"x_min":0,"x_max":0,"o":"m 115 0 l 340 0 l 340 972 l 115 972 z m 228 -292 b 324 -199 282 -292 324 -256 b 228 -101 324 -142 282 -101 b 132 -199 174 -101 132 -142 b 228 -292 132 -256 174 -292 z "},"Ì":{"ha":456,"x_min":0,"x_max":0,"o":"m 185 1051 l 354 1051 l 167 1251 l -67 1251 z m 115 0 l 340 0 l 340 972 l 115 972 z "},"Ỉ":{"ha":456,"x_min":0,"x_max":0,"o":"m 269 1038 b 397 1213 354 1076 397 1133 b 231 1361 397 1301 329 1361 b 81 1314 175 1361 121 1346 l 125 1226 b 207 1253 153 1244 179 1253 b 272 1194 246 1253 272 1229 b 201 1110 272 1163 256 1135 z m 115 0 l 340 0 l 340 972 l 115 972 z "},"Ȋ":{"ha":456,"x_min":0,"x_max":0,"o":"m -28 1051 l 108 1051 b 228 1150 111 1113 163 1150 b 347 1051 293 1150 344 1113 l 483 1051 b 228 1263 478 1182 372 1263 b -28 1051 83 1263 -22 1182 z m 115 0 l 340 0 l 340 972 l 115 972 z "},"Ī":{"ha":456,"x_min":0,"x_max":0,"o":"m 19 1090 l 436 1090 l 436 1213 l 19 1213 z m 115 0 l 340 0 l 340 972 l 115 972 z "},"Į":{"ha":456,"x_min":0,"x_max":0,"o":"m 353 -199 b 308 -212 339 -208 324 -212 b 250 -147 276 -212 250 -187 b 340 0 250 -103 269 -57 l 340 972 l 115 972 l 115 0 l 194 0 b 114 -168 140 -50 114 -107 b 281 -322 114 -261 181 -322 b 383 -293 321 -322 358 -311 z "},"Ĩ":{"ha":456,"x_min":0,"x_max":0,"o":"m 332 1047 b 494 1246 429 1047 492 1126 l 385 1246 b 318 1171 382 1200 356 1171 b 124 1260 268 1171 219 1260 b -39 1057 26 1260 -36 1181 l 71 1057 b 138 1135 74 1107 100 1135 b 332 1047 188 1135 236 1047 z m 115 0 l 340 0 l 340 972 l 115 972 z "},"J":{"ha":751,"x_min":0,"x_max":0,"o":"m 294 -17 b 644 342 524 -17 644 101 l 644 972 l 79 972 l 79 792 l 421 792 l 421 329 b 283 168 421 222 374 168 b 103 275 214 168 156 204 l -22 125 b 294 -17 49 33 164 -17 z "},"Ĵ":{"ha":751,"x_min":0,"x_max":0,"o":"m 363 1157 l 483 1051 l 642 1051 l 458 1251 l 267 1251 l 83 1051 l 242 1051 z m 79 972 l 79 792 l 421 792 l 421 329 b 283 168 421 222 374 168 b 103 275 214 168 156 204 l -22 125 b 294 -17 49 33 164 -17 b 644 342 524 -17 644 101 l 644 972 z "},"K":{"ha":1028,"x_min":0,"x_max":0,"o":"m 781 0 l 1043 0 l 617 539 l 1019 972 l 769 972 l 339 518 l 339 972 l 115 972 l 115 0 l 339 0 l 339 246 l 469 382 z "},"Ǩ":{"ha":1028,"x_min":0,"x_max":0,"o":"m 622 1051 l 806 1251 l 647 1251 l 526 1147 l 406 1251 l 247 1251 l 431 1051 z m 781 0 l 1043 0 l 617 539 l 1019 972 l 769 972 l 339 518 l 339 972 l 115 972 l 115 0 l 339 0 l 339 246 l 469 382 z "},"Ķ":{"ha":1028,"x_min":0,"x_max":0,"o":"m 617 539 l 1019 972 l 769 972 l 339 518 l 339 972 l 115 972 l 115 0 l 339 0 l 339 246 l 469 382 l 781 0 l 1043 0 z m 526 -101 b 431 -185 467 -101 431 -136 b 482 -258 431 -221 449 -247 l 447 -369 l 549 -369 l 597 -275 b 622 -185 618 -236 622 -207 b 526 -101 622 -136 586 -101 z "},"L":{"ha":839,"x_min":0,"x_max":0,"o":"m 115 0 l 828 0 l 828 183 l 340 183 l 340 972 l 115 972 z "},"Ǉ":{"ha":1590,"x_min":0,"x_max":0,"o":"m 918 972 l 918 792 l 1260 792 l 1260 329 b 1122 168 1260 222 1213 168 b 942 275 1053 168 994 204 l 828 139 l 828 183 l 340 183 l 340 972 l 115 972 l 115 0 l 828 0 l 828 111 b 1133 -17 899 28 1010 -17 b 1483 342 1363 -17 1483 101 l 1483 972 z "},"Ĺ":{"ha":839,"x_min":0,"x_max":0,"o":"m 101 1051 l 271 1051 l 522 1251 l 289 1251 z m 115 0 l 828 0 l 828 183 l 340 183 l 340 972 l 115 972 z "},"Ľ":{"ha":839,"x_min":0,"x_max":0,"o":"m 599 750 l 733 750 l 761 1029 l 599 1029 z m 115 0 l 828 0 l 828 183 l 340 183 l 340 972 l 115 972 z "},"Ļ":{"ha":839,"x_min":0,"x_max":0,"o":"m 340 183 l 340 972 l 115 972 l 115 0 l 828 0 l 828 183 z m 488 -101 b 392 -185 428 -101 392 -136 b 443 -258 392 -221 410 -247 l 408 -369 l 510 -369 l 558 -275 b 583 -185 579 -236 583 -207 b 488 -101 583 -136 547 -101 z "},"Ŀ":{"ha":839,"x_min":0,"x_max":0,"o":"m 115 0 l 828 0 l 828 183 l 340 183 l 340 972 l 115 972 z m 649 457 b 767 578 717 457 767 507 b 649 699 767 647 717 699 b 531 578 581 699 531 647 b 649 457 531 507 581 457 z "},"Ḷ":{"ha":839,"x_min":0,"x_max":0,"o":"m 115 0 l 828 0 l 828 183 l 340 183 l 340 972 l 115 972 z m 488 -292 b 583 -199 542 -292 583 -256 b 488 -101 583 -142 542 -101 b 392 -199 433 -101 392 -142 b 488 -292 392 -256 433 -292 z "},"ǈ":{"ha":1265,"x_min":0,"x_max":0,"o":"m 1057 851 b 1192 976 1138 851 1192 904 b 1057 1093 1192 1043 1138 1093 b 922 972 976 1093 922 1040 b 1057 851 922 904 976 851 z m 115 0 l 828 0 l 828 183 l 340 183 l 340 972 l 115 972 z m 883 -281 b 1165 1 1064 -281 1165 -171 l 1165 747 l 949 747 l 949 0 b 860 -108 949 -74 914 -108 b 768 -82 824 -108 792 -99 l 710 -239 b 883 -281 751 -268 817 -281 z "},"Ḻ":{"ha":839,"x_min":0,"x_max":0,"o":"m 115 0 l 828 0 l 828 183 l 340 183 l 340 972 l 115 972 z m 231 -253 l 744 -253 l 744 -132 l 231 -132 z "},"Ł":{"ha":857,"x_min":0,"x_max":0,"o":"m 358 183 l 358 538 l 583 706 l 503 814 l 358 706 l 358 972 l 133 972 l 133 538 l -19 422 l 61 314 l 133 368 l 133 0 l 846 0 l 846 183 z "},"M":{"ha":1326,"x_min":0,"x_max":0,"o":"m 1211 0 l 1208 972 l 1024 972 l 665 368 l 301 972 l 115 972 l 115 0 l 326 0 l 326 571 l 611 103 l 713 103 l 999 583 l 1000 0 z "},"Ṃ":{"ha":1326,"x_min":0,"x_max":0,"o":"m 1211 0 l 1208 972 l 1024 972 l 665 368 l 301 972 l 115 972 l 115 0 l 326 0 l 326 571 l 611 103 l 713 103 l 999 583 l 1000 0 z m 663 -101 b 567 -199 608 -101 567 -142 b 663 -292 567 -256 608 -292 b 758 -199 717 -292 758 -256 b 663 -101 758 -142 717 -101 z "},"N":{"ha":1122,"x_min":0,"x_max":0,"o":"m 785 972 l 785 382 l 301 972 l 115 972 l 115 0 l 338 0 l 338 590 l 822 0 l 1007 0 l 1007 972 z "},"Ǌ":{"ha":1874,"x_min":0,"x_max":0,"o":"m 785 382 l 301 972 l 115 972 l 115 0 l 338 0 l 338 590 l 822 0 l 1007 0 l 1007 972 l 785 972 z m 1201 972 l 1201 792 l 1543 792 l 1543 329 b 1406 168 1543 222 1496 168 b 1225 275 1336 168 1278 204 l 1100 125 b 1417 -17 1171 33 1286 -17 b 1767 342 1646 -17 1767 101 l 1767 972 z "},"Ń":{"ha":1122,"x_min":0,"x_max":0,"o":"m 856 1251 l 622 1251 l 435 1051 l 604 1051 z m 785 972 l 785 382 l 301 972 l 115 972 l 115 0 l 338 0 l 338 590 l 822 0 l 1007 0 l 1007 972 z "},"Ň":{"ha":1122,"x_min":0,"x_max":0,"o":"m 657 1051 l 840 1251 l 682 1251 l 561 1147 l 440 1251 l 282 1251 l 465 1051 z m 785 972 l 785 382 l 301 972 l 115 972 l 115 0 l 338 0 l 338 590 l 822 0 l 1007 0 l 1007 972 z "},"Ņ":{"ha":1122,"x_min":0,"x_max":0,"o":"m 785 972 l 785 382 l 301 972 l 115 972 l 115 0 l 338 0 l 338 590 l 822 0 l 1007 0 l 1007 972 z m 561 -101 b 465 -185 501 -101 465 -136 b 517 -258 465 -221 483 -247 l 482 -369 l 583 -369 l 632 -275 b 657 -185 653 -236 657 -207 b 561 -101 657 -136 621 -101 z "},"Ṅ":{"ha":1122,"x_min":0,"x_max":0,"o":"m 561 1058 b 678 1176 629 1058 678 1108 b 561 1293 678 1243 629 1293 b 444 1176 493 1293 444 1243 b 561 1058 444 1108 493 1058 z m 785 972 l 785 382 l 301 972 l 115 972 l 115 0 l 338 0 l 338 590 l 822 0 l 1007 0 l 1007 972 z "},"Ṇ":{"ha":1122,"x_min":0,"x_max":0,"o":"m 785 972 l 785 382 l 301 972 l 115 972 l 115 0 l 338 0 l 338 590 l 822 0 l 1007 0 l 1007 972 z m 561 -101 b 465 -199 507 -101 465 -142 b 561 -292 465 -256 507 -292 b 657 -199 615 -292 657 -256 b 561 -101 657 -142 615 -101 z "},"Ŋ":{"ha":1122,"x_min":0,"x_max":0,"o":"m 785 972 l 785 382 l 301 972 l 115 972 l 115 0 l 338 0 l 338 590 l 785 46 b 650 -96 779 -49 735 -96 b 507 -32 593 -96 546 -74 l 401 -189 b 661 -281 468 -250 560 -281 b 1007 99 889 -281 1007 -162 l 1007 972 z "},"ǋ":{"ha":1549,"x_min":0,"x_max":0,"o":"m 1340 851 b 1475 976 1421 851 1475 904 b 1340 1093 1475 1043 1421 1093 b 1206 972 1260 1093 1206 1040 b 1340 851 1206 904 1260 851 z m 1007 0 l 1007 972 l 785 972 l 785 382 l 301 972 l 115 972 l 115 0 l 338 0 l 338 590 l 822 0 z m 1232 0 b 1143 -108 1232 -74 1197 -108 b 1051 -82 1107 -108 1075 -99 l 993 -239 b 1167 -281 1035 -268 1100 -281 b 1449 1 1347 -281 1449 -171 l 1449 747 l 1232 747 z "},"Ṉ":{"ha":1122,"x_min":0,"x_max":0,"o":"m 785 972 l 785 382 l 301 972 l 115 972 l 115 0 l 338 0 l 338 590 l 822 0 l 1007 0 l 1007 972 z m 304 -253 l 818 -253 l 818 -132 l 304 -132 z "},"Ñ":{"ha":1122,"x_min":0,"x_max":0,"o":"m 471 1135 b 665 1047 521 1135 569 1047 b 828 1246 763 1047 825 1126 l 718 1246 b 651 1171 715 1200 689 1171 b 457 1260 601 1171 553 1260 b 294 1057 360 1260 297 1181 l 404 1057 b 471 1135 407 1107 433 1135 z m 785 972 l 785 382 l 301 972 l 115 972 l 115 0 l 338 0 l 338 590 l 822 0 l 1007 0 l 1007 972 z "},"O":{"ha":1172,"x_min":0,"x_max":0,"o":"m 586 -17 b 1118 486 892 -17 1118 196 b 586 989 1118 776 892 989 b 54 486 279 989 54 775 b 586 -17 54 197 279 -17 z m 586 175 b 282 486 413 175 282 301 b 586 797 282 671 413 797 b 890 486 760 797 890 671 b 586 175 890 301 760 175 z "},"Ó":{"ha":1172,"x_min":0,"x_max":0,"o":"m 460 1051 l 629 1051 l 881 1251 l 647 1251 z m 586 -17 b 1118 486 892 -17 1118 196 b 586 989 1118 776 892 989 b 54 486 279 989 54 775 b 586 -17 54 197 279 -17 z m 586 175 b 282 486 413 175 282 301 b 586 797 282 671 413 797 b 890 486 760 797 890 671 b 586 175 890 301 760 175 z "},"Ŏ":{"ha":1172,"x_min":0,"x_max":0,"o":"m 586 1040 b 842 1251 731 1040 836 1121 l 706 1251 b 586 1153 703 1192 651 1153 b 467 1251 521 1153 469 1192 l 331 1251 b 586 1040 336 1121 442 1040 z m 586 -17 b 1118 486 892 -17 1118 196 b 586 989 1118 776 892 989 b 54 486 279 989 54 775 b 586 -17 54 197 279 -17 z m 586 175 b 282 486 413 175 282 301 b 586 797 282 671 413 797 b 890 486 760 797 890 671 b 586 175 890 301 760 175 z "},"Ô":{"ha":1172,"x_min":0,"x_max":0,"o":"m 586 1157 l 707 1051 l 865 1051 l 682 1251 l 490 1251 l 307 1051 l 465 1051 z m 586 989 b 54 486 279 989 54 775 b 586 -17 54 197 279 -17 b 1118 486 892 -17 1118 196 b 586 989 1118 776 892 989 z m 586 175 b 282 486 413 175 282 301 b 586 797 282 671 413 797 b 890 486 760 797 890 671 b 586 175 890 301 760 175 z "},"Ố":{"ha":1172,"x_min":0,"x_max":0,"o":"m 1128 1353 l 907 1353 l 753 1185 l 910 1185 z m 586 1131 l 706 1051 l 865 1051 l 681 1210 l 492 1210 l 307 1051 l 467 1051 z m 586 989 b 54 486 279 989 54 775 b 586 -17 54 197 279 -17 b 1118 486 892 -17 1118 196 b 586 989 1118 776 892 989 z m 586 175 b 282 486 413 175 282 301 b 586 797 282 671 413 797 b 890 486 760 797 890 671 b 586 175 890 301 760 175 z "},"Ộ":{"ha":1172,"x_min":0,"x_max":0,"o":"m 586 1157 l 707 1051 l 865 1051 l 682 1251 l 490 1251 l 307 1051 l 465 1051 z m 586 989 b 54 486 279 989 54 775 b 586 -17 54 197 279 -17 b 1118 486 892 -17 1118 196 b 586 989 1118 776 892 989 z m 586 175 b 282 486 413 175 282 301 b 586 797 282 671 413 797 b 890 486 760 797 890 671 b 586 175 890 301 760 175 z m 586 -101 b 490 -199 532 -101 490 -142 b 586 -292 490 -256 532 -292 b 682 -199 640 -292 682 -256 b 586 -101 682 -142 640 -101 z "},"Ồ":{"ha":1172,"x_min":0,"x_max":0,"o":"m 992 1185 l 839 1353 l 618 1353 l 836 1185 z m 586 1131 l 706 1051 l 865 1051 l 681 1210 l 492 1210 l 307 1051 l 467 1051 z m 586 989 b 54 486 279 989 54 775 b 586 -17 54 197 279 -17 b 1118 486 892 -17 1118 196 b 586 989 1118 776 892 989 z m 586 175 b 282 486 413 175 282 301 b 586 797 282 671 413 797 b 890 486 760 797 890 671 b 586 175 890 301 760 175 z "},"Ổ":{"ha":1172,"x_min":0,"x_max":0,"o":"m 785 1308 b 832 1268 813 1308 832 1293 b 781 1210 832 1250 818 1228 l 833 1158 b 931 1279 888 1179 931 1224 b 803 1389 931 1346 881 1389 b 688 1358 761 1389 719 1379 l 724 1292 b 785 1308 744 1303 763 1308 z m 586 1131 l 706 1051 l 865 1051 l 681 1210 l 492 1210 l 307 1051 l 467 1051 z m 586 989 b 54 486 279 989 54 775 b 586 -17 54 197 279 -17 b 1118 486 892 -17 1118 196 b 586 989 1118 776 892 989 z m 586 175 b 282 486 413 175 282 301 b 586 797 282 671 413 797 b 890 486 760 797 890 671 b 586 175 890 301 760 175 z "},"Ỗ":{"ha":1172,"x_min":0,"x_max":0,"o":"m 497 1331 b 689 1258 543 1331 593 1258 b 847 1431 788 1258 846 1324 l 739 1431 b 678 1368 736 1394 715 1368 b 486 1440 629 1368 579 1440 b 325 1267 388 1440 326 1378 l 436 1267 b 497 1331 439 1307 460 1331 z m 586 1131 l 706 1051 l 865 1051 l 681 1210 l 492 1210 l 307 1051 l 467 1051 z m 586 989 b 54 486 279 989 54 775 b 586 -17 54 197 279 -17 b 1118 486 892 -17 1118 196 b 586 989 1118 776 892 989 z m 586 175 b 282 486 413 175 282 301 b 586 797 282 671 413 797 b 890 486 760 797 890 671 b 586 175 890 301 760 175 z "},"Ȍ":{"ha":1172,"x_min":0,"x_max":0,"o":"m 367 1051 l 525 1051 l 425 1251 l 222 1251 z m 647 1051 l 806 1051 l 706 1251 l 503 1251 z m 586 -17 b 1118 486 892 -17 1118 196 b 586 989 1118 776 892 989 b 54 486 279 989 54 775 b 586 -17 54 197 279 -17 z m 586 175 b 282 486 413 175 282 301 b 586 797 282 671 413 797 b 890 486 760 797 890 671 b 586 175 890 301 760 175 z "},"Ö":{"ha":1172,"x_min":0,"x_max":0,"o":"m 446 1058 b 542 1154 500 1058 542 1097 b 446 1250 542 1211 500 1250 b 349 1154 392 1250 349 1211 b 446 1058 349 1097 392 1058 z m 726 1058 b 824 1154 781 1058 824 1097 b 726 1250 824 1211 781 1250 b 631 1154 672 1250 631 1211 b 726 1058 631 1097 672 1058 z m 586 -17 b 1118 486 892 -17 1118 196 b 586 989 1118 776 892 989 b 54 486 279 989 54 775 b 586 -17 54 197 279 -17 z m 586 175 b 282 486 413 175 282 301 b 586 797 282 671 413 797 b 890 486 760 797 890 671 b 586 175 890 301 760 175 z "},"Ȫ":{"ha":1172,"x_min":0,"x_max":0,"o":"m 329 1297 l 843 1297 l 843 1413 l 329 1413 z m 450 1058 b 543 1150 503 1058 543 1096 b 450 1242 543 1203 503 1242 b 358 1150 399 1242 358 1203 b 450 1058 358 1096 399 1058 z m 722 1058 b 814 1150 774 1058 814 1096 b 722 1242 814 1203 774 1242 b 631 1150 672 1242 631 1203 b 722 1058 631 1096 672 1058 z m 586 -17 b 1118 486 892 -17 1118 196 b 586 989 1118 776 892 989 b 54 486 279 989 54 775 b 586 -17 54 197 279 -17 z m 586 175 b 282 486 413 175 282 301 b 586 797 282 671 413 797 b 890 486 760 797 890 671 b 586 175 890 301 760 175 z "},"Ȱ":{"ha":1172,"x_min":0,"x_max":0,"o":"m 329 1307 l 843 1307 l 843 1422 l 329 1422 z m 586 1057 b 682 1151 640 1057 682 1094 b 586 1247 682 1208 640 1247 b 490 1151 532 1247 490 1208 b 586 1057 490 1094 532 1057 z m 586 -17 b 1118 486 892 -17 1118 196 b 586 989 1118 776 892 989 b 54 486 279 989 54 775 b 586 -17 54 197 279 -17 z m 586 175 b 282 486 413 175 282 301 b 586 797 282 671 413 797 b 890 486 760 797 890 671 b 586 175 890 301 760 175 z "},"Ọ":{"ha":1172,"x_min":0,"x_max":0,"o":"m 586 -17 b 1118 486 892 -17 1118 196 b 586 989 1118 776 892 989 b 54 486 279 989 54 775 b 586 -17 54 197 279 -17 z m 586 175 b 282 486 413 175 282 301 b 586 797 282 671 413 797 b 890 486 760 797 890 671 b 586 175 890 301 760 175 z m 586 -292 b 682 -199 640 -292 682 -256 b 586 -101 682 -142 640 -101 b 490 -199 532 -101 490 -142 b 586 -292 490 -256 532 -292 z "},"Ò":{"ha":1172,"x_min":0,"x_max":0,"o":"m 543 1051 l 713 1051 l 525 1251 l 292 1251 z m 586 -17 b 1118 486 892 -17 1118 196 b 586 989 1118 776 892 989 b 54 486 279 989 54 775 b 586 -17 54 197 279 -17 z m 586 175 b 282 486 413 175 282 301 b 586 797 282 671 413 797 b 890 486 760 797 890 671 b 586 175 890 301 760 175 z "},"Ỏ":{"ha":1172,"x_min":0,"x_max":0,"o":"m 628 1038 b 756 1213 713 1076 756 1133 b 589 1361 756 1301 688 1361 b 439 1314 533 1361 479 1346 l 483 1226 b 565 1253 511 1244 538 1253 b 631 1194 604 1253 631 1229 b 560 1110 631 1163 614 1135 z m 586 -17 b 1118 486 892 -17 1118 196 b 586 989 1118 776 892 989 b 54 486 279 989 54 775 b 586 -17 54 197 279 -17 z m 586 175 b 282 486 413 175 282 301 b 586 797 282 671 413 797 b 890 486 760 797 890 671 b 586 175 890 301 760 175 z "},"Ơ":{"ha":1172,"x_min":0,"x_max":0,"o":"m 954 853 b 1108 1053 1051 881 1108 949 b 1064 1192 1108 1107 1090 1154 l 936 1144 b 964 1061 951 1122 964 1093 b 850 969 964 1001 921 969 b 596 989 781 969 700 989 b 54 486 281 989 54 776 b 586 -17 54 197 279 -17 b 1118 486 892 -17 1118 196 b 954 853 1118 638 1054 768 z m 586 175 b 282 486 414 175 282 301 b 586 797 282 671 414 797 b 890 486 760 797 890 669 b 586 175 890 303 760 175 z "},"Ớ":{"ha":1172,"x_min":0,"x_max":0,"o":"m 881 1251 l 647 1251 l 460 1051 l 629 1051 z m 954 853 b 1108 1053 1051 881 1108 949 b 1064 1192 1108 1107 1090 1154 l 936 1144 b 964 1061 951 1122 964 1093 b 850 969 964 1001 921 969 b 596 989 781 969 700 989 b 54 486 281 989 54 776 b 586 -17 54 197 279 -17 b 1118 486 892 -17 1118 196 b 954 853 1118 638 1054 768 z m 586 175 b 282 486 414 175 282 301 b 586 797 282 671 414 797 b 890 486 760 797 890 669 b 586 175 890 303 760 175 z "},"Ợ":{"ha":1172,"x_min":0,"x_max":0,"o":"m 954 853 b 1108 1053 1051 881 1108 949 b 1064 1192 1108 1107 1090 1154 l 936 1144 b 964 1061 951 1122 964 1093 b 850 969 964 1001 921 969 b 596 989 781 969 700 989 b 54 486 281 989 54 776 b 586 -17 54 197 279 -17 b 1118 486 892 -17 1118 196 b 954 853 1118 638 1054 768 z m 586 175 b 282 486 414 175 282 301 b 586 797 282 671 414 797 b 890 486 760 797 890 669 b 586 175 890 303 760 175 z m 586 -101 b 490 -199 532 -101 490 -142 b 586 -292 490 -256 532 -292 b 682 -199 640 -292 682 -256 b 586 -101 682 -142 640 -101 z "},"Ờ":{"ha":1172,"x_min":0,"x_max":0,"o":"m 713 1051 l 525 1251 l 292 1251 l 543 1051 z m 954 853 b 1108 1053 1051 881 1108 949 b 1064 1192 1108 1107 1090 1154 l 936 1144 b 964 1061 951 1122 964 1093 b 850 969 964 1001 921 969 b 596 989 781 969 700 989 b 54 486 281 989 54 776 b 586 -17 54 197 279 -17 b 1118 486 892 -17 1118 196 b 954 853 1118 638 1054 768 z m 586 175 b 282 486 414 175 282 301 b 586 797 282 671 414 797 b 890 486 760 797 890 669 b 586 175 890 303 760 175 z "},"Ở":{"ha":1172,"x_min":0,"x_max":0,"o":"m 565 1253 b 631 1194 604 1253 631 1229 b 560 1110 631 1163 614 1135 l 628 1038 b 756 1213 713 1076 756 1133 b 589 1361 756 1301 688 1361 b 439 1314 533 1361 479 1346 l 483 1226 b 565 1253 511 1244 538 1253 z m 954 853 b 1108 1053 1051 881 1108 949 b 1064 1192 1108 1107 1090 1154 l 936 1144 b 964 1061 951 1122 964 1093 b 850 969 964 1001 921 969 b 596 989 781 969 700 989 b 54 486 281 989 54 776 b 586 -17 54 197 279 -17 b 1118 486 892 -17 1118 196 b 954 853 1118 638 1054 768 z m 586 175 b 282 486 414 175 282 301 b 586 797 282 671 414 797 b 890 486 760 797 890 669 b 586 175 890 303 760 175 z "},"Ỡ":{"ha":1172,"x_min":0,"x_max":0,"o":"m 496 1135 b 690 1047 546 1135 594 1047 b 853 1246 788 1047 850 1126 l 743 1246 b 676 1171 740 1200 714 1171 b 482 1260 626 1171 578 1260 b 319 1057 385 1260 322 1181 l 429 1057 b 496 1135 432 1107 458 1135 z m 954 853 b 1108 1053 1051 881 1108 949 b 1064 1192 1108 1107 1090 1154 l 936 1144 b 964 1061 951 1122 964 1093 b 850 969 964 1001 921 969 b 596 989 781 969 700 989 b 54 486 281 989 54 776 b 586 -17 54 197 279 -17 b 1118 486 892 -17 1118 196 b 954 853 1118 638 1054 768 z m 586 175 b 282 486 414 175 282 301 b 586 797 282 671 414 797 b 890 486 760 797 890 669 b 586 175 890 303 760 175 z "},"Ő":{"ha":1172,"x_min":0,"x_max":0,"o":"m 367 1051 l 525 1051 l 669 1251 l 467 1251 z m 647 1051 l 806 1051 l 950 1251 l 747 1251 z m 586 -17 b 1118 486 892 -17 1118 196 b 586 989 1118 776 892 989 b 54 486 279 989 54 775 b 586 -17 54 197 279 -17 z m 586 175 b 282 486 413 175 282 301 b 586 797 282 671 413 797 b 890 486 760 797 890 671 b 586 175 890 301 760 175 z "},"Ȏ":{"ha":1172,"x_min":0,"x_max":0,"o":"m 331 1051 l 467 1051 b 586 1150 469 1113 521 1150 b 706 1051 651 1150 703 1113 l 842 1051 b 586 1263 836 1182 731 1263 b 331 1051 442 1263 336 1182 z m 586 -17 b 1118 486 892 -17 1118 196 b 586 989 1118 776 892 989 b 54 486 279 989 54 775 b 586 -17 54 197 279 -17 z m 586 175 b 282 486 413 175 282 301 b 586 797 282 671 413 797 b 890 486 760 797 890 671 b 586 175 890 301 760 175 z "},"Ō":{"ha":1172,"x_min":0,"x_max":0,"o":"m 329 1090 l 843 1090 l 843 1213 l 329 1213 z m 586 -17 b 1118 486 892 -17 1118 196 b 586 989 1118 776 892 989 b 54 486 279 989 54 775 b 586 -17 54 197 279 -17 z m 586 175 b 282 486 413 175 282 301 b 586 797 282 671 413 797 b 890 486 760 797 890 671 b 586 175 890 301 760 175 z "},"Ṓ":{"ha":1172,"x_min":0,"x_max":0,"o":"m 467 1275 l 624 1275 l 842 1443 l 621 1443 z m 329 1074 l 843 1074 l 843 1189 l 329 1189 z m 586 -17 b 1118 486 892 -17 1118 196 b 586 989 1118 776 892 989 b 54 486 279 989 54 775 b 586 -17 54 197 279 -17 z m 586 175 b 282 486 413 175 282 301 b 586 797 282 671 413 797 b 890 486 760 797 890 671 b 586 175 890 301 760 175 z "},"Ṑ":{"ha":1172,"x_min":0,"x_max":0,"o":"m 550 1275 l 706 1275 l 553 1443 l 332 1443 z m 329 1074 l 843 1074 l 843 1189 l 329 1189 z m 586 -17 b 1118 486 892 -17 1118 196 b 586 989 1118 776 892 989 b 54 486 279 989 54 775 b 586 -17 54 197 279 -17 z m 586 175 b 282 486 413 175 282 301 b 586 797 282 671 413 797 b 890 486 760 797 890 671 b 586 175 890 301 760 175 z "},"Ǫ":{"ha":1172,"x_min":0,"x_max":0,"o":"m 753 8 b 1118 486 958 68 1118 242 b 586 989 1118 776 892 989 b 54 486 281 989 54 776 b 507 -11 54 222 242 22 b 424 -167 450 -57 424 -111 b 615 -322 424 -260 493 -322 b 756 -290 667 -322 721 -308 l 724 -192 b 640 -212 701 -204 669 -212 b 560 -149 590 -212 560 -187 b 753 8 560 -89 622 -32 z m 282 486 b 586 797 282 671 413 797 b 890 486 760 797 890 671 b 586 175 890 301 760 175 b 282 486 413 175 282 301 z "},"Ø":{"ha":1172,"x_min":0,"x_max":0,"o":"m 936 874 l 1075 1069 l 929 1069 l 835 936 b 586 989 761 969 678 989 b 54 486 279 989 54 775 b 238 99 54 326 124 189 l 99 -97 l 244 -97 l 339 36 b 586 -17 413 1 496 -17 b 1118 486 892 -17 1118 196 b 936 874 1118 647 1049 783 z m 282 486 b 586 797 282 671 413 797 b 717 771 633 797 678 788 l 360 271 b 282 486 311 325 282 399 z m 586 175 b 457 201 539 175 496 185 l 813 701 b 890 486 861 647 890 574 b 586 175 890 301 760 175 z "},"Ǿ":{"ha":1172,"x_min":0,"x_max":0,"o":"m 881 1251 l 647 1251 l 460 1051 l 629 1051 z m 936 874 l 1075 1069 l 929 1069 l 835 936 b 586 989 761 969 678 989 b 54 486 279 989 54 775 b 238 99 54 326 124 189 l 99 -97 l 244 -97 l 339 36 b 586 -17 413 1 496 -17 b 1118 486 892 -17 1118 196 b 936 874 1118 647 1049 783 z m 282 486 b 586 797 282 671 413 797 b 717 771 633 797 678 788 l 360 271 b 282 486 311 325 282 399 z m 586 175 b 457 201 539 175 496 185 l 813 701 b 890 486 861 647 890 574 b 586 175 890 301 760 175 z "},"Õ":{"ha":1172,"x_min":0,"x_max":0,"o":"m 690 1047 b 853 1246 788 1047 850 1126 l 743 1246 b 676 1171 740 1200 714 1171 b 482 1260 626 1171 578 1260 b 319 1057 385 1260 322 1181 l 429 1057 b 496 1135 432 1107 458 1135 b 690 1047 546 1135 594 1047 z m 586 -17 b 1118 486 892 -17 1118 196 b 586 989 1118 776 892 989 b 54 486 279 989 54 775 b 586 -17 54 197 279 -17 z m 586 175 b 282 486 413 175 282 301 b 586 797 282 671 413 797 b 890 486 760 797 890 671 b 586 175 890 301 760 175 z "},"Ṍ":{"ha":1172,"x_min":0,"x_max":0,"o":"m 467 1275 l 624 1275 l 842 1443 l 621 1443 z m 689 1049 b 847 1221 788 1049 846 1114 l 739 1221 b 678 1158 736 1185 715 1158 b 486 1231 629 1158 579 1231 b 325 1057 388 1231 326 1168 l 436 1057 b 497 1121 439 1097 460 1121 b 689 1049 543 1121 593 1049 z m 586 -17 b 1118 486 892 -17 1118 196 b 586 989 1118 776 892 989 b 54 486 279 989 54 775 b 586 -17 54 197 279 -17 z m 586 175 b 282 486 413 175 282 301 b 586 797 282 671 413 797 b 890 486 760 797 890 671 b 586 175 890 301 760 175 z "},"Ṏ":{"ha":1172,"x_min":0,"x_max":0,"o":"m 450 1282 b 543 1374 503 1282 543 1319 b 450 1465 543 1426 503 1465 b 358 1374 399 1465 358 1426 b 450 1282 358 1319 399 1282 z m 722 1282 b 814 1374 774 1282 814 1319 b 722 1465 814 1426 774 1465 b 631 1374 672 1465 631 1426 b 722 1282 631 1319 672 1282 z m 689 1049 b 847 1221 788 1049 846 1114 l 739 1221 b 678 1158 736 1185 715 1158 b 486 1231 629 1158 579 1231 b 325 1057 388 1231 326 1168 l 436 1057 b 497 1121 439 1097 460 1121 b 689 1049 543 1121 593 1049 z m 586 -17 b 1118 486 892 -17 1118 196 b 586 989 1118 776 892 989 b 54 486 279 989 54 775 b 586 -17 54 197 279 -17 z m 586 175 b 282 486 413 175 282 301 b 586 797 282 671 413 797 b 890 486 760 797 890 671 b 586 175 890 301 760 175 z "},"Ȭ":{"ha":1172,"x_min":0,"x_max":0,"o":"m 329 1297 l 843 1297 l 843 1413 l 329 1413 z m 689 1049 b 847 1221 788 1049 846 1114 l 739 1221 b 678 1158 736 1185 715 1158 b 486 1231 629 1158 579 1231 b 325 1057 388 1231 326 1168 l 436 1057 b 497 1121 439 1097 460 1121 b 689 1049 543 1121 593 1049 z m 586 -17 b 1118 486 892 -17 1118 196 b 586 989 1118 776 892 989 b 54 486 279 989 54 775 b 586 -17 54 197 279 -17 z m 586 175 b 282 486 413 175 282 301 b 586 797 282 671 413 797 b 890 486 760 797 890 671 b 586 175 890 301 760 175 z "},"Œ":{"ha":1578,"x_min":0,"x_max":0,"o":"m 985 181 l 985 406 l 1436 406 l 1436 581 l 985 581 l 985 792 l 1496 792 l 1496 972 l 590 972 b 54 485 272 972 54 781 b 590 0 54 192 272 0 l 1514 0 l 1514 181 z m 601 185 b 282 485 408 185 282 300 b 601 788 282 672 408 788 l 761 788 l 761 185 z "},"P":{"ha":1017,"x_min":0,"x_max":0,"o":"m 536 972 l 115 972 l 115 0 l 340 0 l 340 268 l 536 268 b 958 619 796 268 958 403 b 536 972 958 838 796 972 z m 524 451 l 340 451 l 340 789 l 524 789 b 731 619 661 789 731 726 b 524 451 731 514 661 451 z "},"Þ":{"ha":1017,"x_min":0,"x_max":0,"o":"m 536 865 l 340 865 l 340 972 l 115 972 l 115 0 l 340 0 l 340 160 l 536 160 b 958 513 796 160 958 294 b 536 865 958 731 796 865 z m 524 343 l 340 343 l 340 682 l 524 682 b 731 513 661 682 731 619 b 524 343 731 406 661 343 z "},"Q":{"ha":1172,"x_min":0,"x_max":0,"o":"m 1067 15 b 908 -57 1021 -33 968 -57 b 771 11 860 -57 818 -39 b 1118 486 978 78 1118 258 b 586 989 1118 776 892 989 b 54 486 279 989 54 775 b 508 -12 54 222 242 21 b 904 -224 658 -171 760 -224 b 1167 -104 1011 -224 1103 -182 z m 282 486 b 586 797 282 671 413 797 b 890 486 760 797 890 671 b 586 175 890 301 760 175 b 282 486 413 175 282 301 z "},"R":{"ha":1021,"x_min":0,"x_max":0,"o":"m 976 0 l 758 313 b 958 619 885 367 958 474 b 536 972 958 838 796 972 l 115 972 l 115 0 l 340 0 l 340 271 l 536 271 l 547 271 l 735 0 z m 731 619 b 524 450 731 514 661 450 l 340 450 l 340 789 l 524 789 b 731 619 661 789 731 726 z "},"Ŕ":{"ha":1021,"x_min":0,"x_max":0,"o":"m 815 1251 l 582 1251 l 394 1051 l 564 1051 z m 976 0 l 758 313 b 958 619 885 367 958 474 b 536 972 958 838 796 972 l 115 972 l 115 0 l 340 0 l 340 271 l 536 271 l 547 271 l 735 0 z m 731 619 b 524 450 731 514 661 450 l 340 450 l 340 789 l 524 789 b 731 619 661 789 731 726 z "},"Ř":{"ha":1021,"x_min":0,"x_max":0,"o":"m 617 1051 l 800 1251 l 642 1251 l 521 1147 l 400 1251 l 242 1251 l 425 1051 z m 976 0 l 758 313 b 958 619 885 367 958 474 b 536 972 958 838 796 972 l 115 972 l 115 0 l 340 0 l 340 271 l 536 271 l 547 271 l 735 0 z m 731 619 b 524 450 731 514 661 450 l 340 450 l 340 789 l 524 789 b 731 619 661 789 731 726 z "},"Ŗ":{"ha":1021,"x_min":0,"x_max":0,"o":"m 758 313 b 958 619 885 367 958 474 b 536 972 958 838 796 972 l 115 972 l 115 0 l 340 0 l 340 271 l 536 271 l 547 271 l 735 0 l 976 0 z m 731 619 b 524 450 731 514 661 450 l 340 450 l 340 789 l 524 789 b 731 619 661 789 731 726 z m 521 -101 b 425 -185 461 -101 425 -136 b 476 -258 425 -221 443 -247 l 442 -369 l 543 -369 l 592 -275 b 617 -185 613 -236 617 -207 b 521 -101 617 -136 581 -101 z "},"Ȑ":{"ha":1021,"x_min":0,"x_max":0,"o":"m 460 1051 l 360 1251 l 157 1251 l 301 1051 z m 740 1051 l 640 1251 l 438 1251 l 582 1051 z m 976 0 l 758 313 b 958 619 885 367 958 474 b 536 972 958 838 796 972 l 115 972 l 115 0 l 340 0 l 340 271 l 536 271 l 547 271 l 735 0 z m 731 619 b 524 450 731 514 661 450 l 340 450 l 340 789 l 524 789 b 731 619 661 789 731 726 z "},"Ṛ":{"ha":1021,"x_min":0,"x_max":0,"o":"m 758 313 b 958 619 885 367 958 474 b 536 972 958 838 796 972 l 115 972 l 115 0 l 340 0 l 340 271 l 536 271 l 547 271 l 735 0 l 976 0 z m 731 619 b 524 450 731 514 661 450 l 340 450 l 340 789 l 524 789 b 731 619 661 789 731 726 z m 521 -101 b 425 -199 467 -101 425 -142 b 521 -292 425 -256 467 -292 b 617 -199 575 -292 617 -256 b 521 -101 617 -142 575 -101 z "},"Ȓ":{"ha":1021,"x_min":0,"x_max":0,"o":"m 521 1150 b 640 1051 586 1150 638 1113 l 776 1051 b 521 1263 771 1182 665 1263 b 265 1051 376 1263 271 1182 l 401 1051 b 521 1150 404 1113 456 1150 z m 976 0 l 758 313 b 958 619 885 367 958 474 b 536 972 958 838 796 972 l 115 972 l 115 0 l 340 0 l 340 271 l 536 271 l 547 271 l 735 0 z m 731 619 b 524 450 731 514 661 450 l 340 450 l 340 789 l 524 789 b 731 619 661 789 731 726 z "},"Ṟ":{"ha":1021,"x_min":0,"x_max":0,"o":"m 340 271 l 536 271 l 547 271 l 735 0 l 976 0 l 758 313 b 958 619 885 367 958 474 b 536 972 958 838 796 972 l 115 972 l 115 0 l 340 0 z m 731 619 b 524 450 731 514 661 450 l 340 450 l 340 789 l 524 789 b 731 619 661 789 731 726 z m 264 -253 l 778 -253 l 778 -132 l 264 -132 z "},"S":{"ha":886,"x_min":0,"x_max":0,"o":"m 435 -17 b 847 285 713 -17 847 122 b 282 697 847 642 282 518 b 467 808 282 758 333 808 b 736 732 553 808 646 783 l 806 903 b 468 989 715 960 590 989 b 58 686 192 989 58 851 b 624 268 58 325 624 450 b 436 164 624 208 569 164 b 115 265 319 164 197 206 l 39 96 b 435 -17 125 29 281 -17 z "},"Ś":{"ha":886,"x_min":0,"x_max":0,"o":"m 325 1051 l 494 1051 l 746 1251 l 513 1251 z m 435 -17 b 847 285 713 -17 847 122 b 282 697 847 642 282 518 b 467 808 282 758 333 808 b 736 732 553 808 646 783 l 806 903 b 468 989 715 960 590 989 b 58 686 192 989 58 851 b 624 268 58 325 624 450 b 436 164 624 208 569 164 b 115 265 319 164 197 206 l 39 96 b 435 -17 125 29 281 -17 z "},"Ṥ":{"ha":886,"x_min":0,"x_max":0,"o":"m 451 1281 b 547 1375 506 1281 547 1318 b 451 1471 547 1432 506 1471 b 356 1375 397 1471 356 1432 b 451 1281 356 1318 397 1281 z m 332 1051 l 489 1051 l 707 1219 l 486 1219 z m 435 -17 b 847 285 713 -17 847 122 b 282 697 847 642 282 518 b 467 808 282 758 333 808 b 736 732 553 808 646 783 l 806 903 b 468 989 715 960 590 989 b 58 686 192 989 58 851 b 624 268 58 325 624 450 b 436 164 624 208 569 164 b 115 265 319 164 197 206 l 39 96 b 435 -17 125 29 281 -17 z "},"Ꞌ":{"ha":413,"x_min":0,"x_max":0,"o":"m 94 413 l 289 413 l 317 972 l 94 972 z "},"Š":{"ha":886,"x_min":0,"x_max":0,"o":"m 547 1051 l 731 1251 l 572 1251 l 451 1147 l 331 1251 l 172 1251 l 356 1051 z m 282 697 b 467 808 282 758 333 808 b 736 732 553 808 646 783 l 806 903 b 468 989 715 960 590 989 b 58 686 192 989 58 851 b 624 268 58 325 624 450 b 436 164 624 208 569 164 b 115 265 319 164 197 206 l 39 96 b 435 -17 125 29 281 -17 b 847 285 713 -17 847 122 b 282 697 847 642 282 518 z "},"Ṧ":{"ha":886,"x_min":0,"x_max":0,"o":"m 451 1249 b 547 1343 506 1249 547 1286 b 451 1439 547 1400 506 1439 b 356 1343 397 1439 356 1400 b 451 1249 356 1286 397 1249 z m 546 1051 l 731 1210 l 571 1210 l 451 1131 l 332 1210 l 172 1210 l 357 1051 z m 282 697 b 467 808 282 758 333 808 b 736 732 553 808 646 783 l 806 903 b 468 989 715 960 590 989 b 58 686 192 989 58 851 b 624 268 58 325 624 450 b 436 164 624 208 569 164 b 115 265 319 164 197 206 l 39 96 b 435 -17 125 29 281 -17 b 847 285 713 -17 847 122 b 282 697 847 642 282 518 z "},"Ş":{"ha":886,"x_min":0,"x_max":0,"o":"m 847 285 b 282 697 847 642 282 518 b 467 808 282 758 333 808 b 736 732 553 808 646 783 l 806 903 b 468 989 715 960 590 989 b 58 686 192 989 58 851 b 624 268 58 325 624 450 b 436 164 624 208 569 164 b 115 265 319 164 197 206 l 39 96 b 386 -15 117 36 249 -7 l 357 -136 l 404 -136 b 472 -176 453 -136 472 -153 b 400 -221 472 -203 451 -221 b 310 -200 367 -221 336 -212 l 276 -293 b 406 -322 308 -311 357 -322 b 610 -185 529 -322 610 -269 b 489 -69 610 -128 574 -79 l 503 -14 b 847 285 735 7 847 136 z "},"Ŝ":{"ha":886,"x_min":0,"x_max":0,"o":"m 451 1157 l 572 1051 l 731 1051 l 547 1251 l 356 1251 l 172 1051 l 331 1051 z m 282 697 b 467 808 282 758 333 808 b 736 732 553 808 646 783 l 806 903 b 468 989 715 960 590 989 b 58 686 192 989 58 851 b 624 268 58 325 624 450 b 436 164 624 208 569 164 b 115 265 319 164 197 206 l 39 96 b 435 -17 125 29 281 -17 b 847 285 713 -17 847 122 b 282 697 847 642 282 518 z "},"Ș":{"ha":886,"x_min":0,"x_max":0,"o":"m 282 697 b 467 808 282 758 333 808 b 736 732 553 808 646 783 l 806 903 b 468 989 715 960 590 989 b 58 686 192 989 58 851 b 624 268 58 325 624 450 b 436 164 624 208 569 164 b 115 265 319 164 197 206 l 39 96 b 435 -17 125 29 281 -17 b 847 285 713 -17 847 122 b 282 697 847 642 282 518 z m 451 -101 b 356 -185 392 -101 356 -136 b 407 -258 356 -221 374 -247 l 372 -369 l 474 -369 l 522 -275 b 547 -185 543 -236 547 -207 b 451 -101 547 -136 511 -101 z "},"Ṡ":{"ha":886,"x_min":0,"x_max":0,"o":"m 451 1058 b 568 1176 519 1058 568 1108 b 451 1293 568 1243 519 1293 b 335 1176 383 1293 335 1243 b 451 1058 335 1108 383 1058 z m 435 -17 b 847 285 713 -17 847 122 b 282 697 847 642 282 518 b 467 808 282 758 333 808 b 736 732 553 808 646 783 l 806 903 b 468 989 715 960 590 989 b 58 686 192 989 58 851 b 624 268 58 325 624 450 b 436 164 624 208 569 164 b 115 265 319 164 197 206 l 39 96 b 435 -17 125 29 281 -17 z "},"Ṣ":{"ha":886,"x_min":0,"x_max":0,"o":"m 435 -17 b 847 285 713 -17 847 122 b 282 697 847 642 282 518 b 467 808 282 758 333 808 b 736 732 553 808 646 783 l 806 903 b 468 989 715 960 590 989 b 58 686 192 989 58 851 b 624 268 58 325 624 450 b 436 164 624 208 569 164 b 115 265 319 164 197 206 l 39 96 b 435 -17 125 29 281 -17 z m 451 -292 b 547 -199 506 -292 547 -256 b 451 -101 547 -142 506 -101 b 356 -199 397 -101 356 -142 b 451 -292 356 -256 397 -292 z "},"Ṩ":{"ha":886,"x_min":0,"x_max":0,"o":"m 451 1058 b 568 1176 519 1058 568 1108 b 451 1293 568 1243 519 1293 b 335 1176 383 1293 335 1243 b 451 1058 335 1108 383 1058 z m 435 -17 b 847 285 713 -17 847 122 b 282 697 847 642 282 518 b 467 808 282 758 333 808 b 736 732 553 808 646 783 l 806 903 b 468 989 715 960 590 989 b 58 686 192 989 58 851 b 624 268 58 325 624 450 b 436 164 624 208 569 164 b 115 265 319 164 197 206 l 39 96 b 435 -17 125 29 281 -17 z m 451 -292 b 547 -199 506 -292 547 -256 b 451 -101 547 -142 506 -101 b 356 -199 397 -101 356 -142 b 451 -292 356 -256 397 -292 z "},"ẞ":{"ha":1082,"x_min":0,"x_max":0,"o":"m 774 581 l 931 761 l 931 897 b 583 990 843 958 706 990 b 107 544 279 990 107 819 l 107 0 l 332 0 l 332 539 b 586 810 332 713 421 810 b 733 786 640 810 689 801 l 494 510 l 533 413 b 636 428 561 422 600 428 b 800 296 739 428 800 382 b 635 164 800 208 740 164 b 493 194 583 164 532 175 l 460 17 b 669 -17 517 -6 582 -17 b 1028 286 871 -17 1028 93 b 774 581 1028 447 919 550 z "},"Ə":{"ha":1135,"x_min":0,"x_max":0,"o":"m 553 989 b 135 829 383 989 226 924 l 269 683 b 551 797 340 758 451 797 b 850 543 707 797 828 692 l 54 543 l 54 496 b 568 -17 54 194 269 -17 b 1081 488 863 -17 1081 193 b 553 989 1081 778 861 989 z m 568 163 b 288 390 417 163 313 249 l 847 390 b 568 163 822 250 721 163 z "},"T":{"ha":858,"x_min":0,"x_max":0,"o":"m 317 0 l 542 0 l 542 789 l 853 789 l 853 972 l 6 972 l 6 789 l 317 789 z "},"Ŧ":{"ha":858,"x_min":0,"x_max":0,"o":"m 853 789 l 853 972 l 6 972 l 6 789 l 317 789 l 317 531 l 129 531 l 129 381 l 317 381 l 317 0 l 542 0 l 542 381 l 729 381 l 729 531 l 542 531 l 542 789 z "},"Ť":{"ha":858,"x_min":0,"x_max":0,"o":"m 525 1051 l 708 1251 l 550 1251 l 429 1147 l 308 1251 l 150 1251 l 333 1051 z m 6 972 l 6 789 l 317 789 l 317 0 l 542 0 l 542 789 l 853 789 l 853 972 z "},"Ţ":{"ha":858,"x_min":0,"x_max":0,"o":"m 542 0 l 542 789 l 853 789 l 853 972 l 6 972 l 6 789 l 317 789 l 317 0 l 368 0 l 335 -136 l 382 -136 b 450 -176 431 -136 450 -153 b 378 -221 450 -203 429 -221 b 288 -200 344 -221 314 -212 l 254 -293 b 383 -322 286 -311 335 -322 b 588 -185 507 -322 588 -269 b 467 -69 588 -128 551 -79 l 483 0 z "},"Ț":{"ha":858,"x_min":0,"x_max":0,"o":"m 6 972 l 6 789 l 317 789 l 317 0 l 542 0 l 542 789 l 853 789 l 853 972 z m 429 -101 b 333 -185 369 -101 333 -136 b 385 -258 333 -221 351 -247 l 350 -369 l 451 -369 l 500 -275 b 525 -185 521 -236 525 -207 b 429 -101 525 -136 489 -101 z "},"Ṭ":{"ha":858,"x_min":0,"x_max":0,"o":"m 317 0 l 542 0 l 542 789 l 853 789 l 853 972 l 6 972 l 6 789 l 317 789 z m 429 -292 b 525 -199 483 -292 525 -256 b 429 -101 525 -142 483 -101 b 333 -199 375 -101 333 -142 b 429 -292 333 -256 375 -292 z "},"Ṯ":{"ha":858,"x_min":0,"x_max":0,"o":"m 317 0 l 542 0 l 542 789 l 853 789 l 853 972 l 6 972 l 6 789 l 317 789 z m 172 -253 l 686 -253 l 686 -132 l 172 -132 z "},"U":{"ha":1094,"x_min":0,"x_max":0,"o":"m 547 -17 b 988 428 824 -17 988 142 l 988 972 l 765 972 l 765 436 b 549 175 765 251 686 175 b 332 436 413 175 332 251 l 332 972 l 107 972 l 107 428 b 547 -17 107 142 271 -17 z "},"Ú":{"ha":1094,"x_min":0,"x_max":0,"o":"m 422 1051 l 592 1051 l 843 1251 l 610 1251 z m 547 -17 b 988 428 824 -17 988 142 l 988 972 l 765 972 l 765 436 b 549 175 765 251 686 175 b 332 436 413 175 332 251 l 332 972 l 107 972 l 107 428 b 547 -17 107 142 271 -17 z "},"Ŭ":{"ha":1094,"x_min":0,"x_max":0,"o":"m 549 1040 b 804 1251 693 1040 799 1121 l 668 1251 b 549 1153 665 1192 614 1153 b 429 1251 483 1153 432 1192 l 293 1251 b 549 1040 299 1121 404 1040 z m 547 -17 b 988 428 824 -17 988 142 l 988 972 l 765 972 l 765 436 b 549 175 765 251 686 175 b 332 436 413 175 332 251 l 332 972 l 107 972 l 107 428 b 547 -17 107 142 271 -17 z "},"Ǔ":{"ha":1094,"x_min":0,"x_max":0,"o":"m 644 1051 l 828 1251 l 669 1251 l 549 1147 l 428 1251 l 269 1251 l 453 1051 z m 765 972 l 765 436 b 549 175 765 251 686 175 b 332 436 413 175 332 251 l 332 972 l 107 972 l 107 428 b 547 -17 107 142 271 -17 b 988 428 824 -17 988 142 l 988 972 z "},"Û":{"ha":1094,"x_min":0,"x_max":0,"o":"m 549 1157 l 669 1051 l 828 1051 l 644 1251 l 453 1251 l 269 1051 l 428 1051 z m 765 972 l 765 436 b 549 175 765 251 686 175 b 332 436 413 175 332 251 l 332 972 l 107 972 l 107 428 b 547 -17 107 142 271 -17 b 988 428 824 -17 988 142 l 988 972 z "},"Ȕ":{"ha":1094,"x_min":0,"x_max":0,"o":"m 329 1051 l 488 1051 l 388 1251 l 185 1251 z m 610 1051 l 768 1051 l 668 1251 l 465 1251 z m 547 -17 b 988 428 824 -17 988 142 l 988 972 l 765 972 l 765 436 b 549 175 765 251 686 175 b 332 436 413 175 332 251 l 332 972 l 107 972 l 107 428 b 547 -17 107 142 271 -17 z "},"Ü":{"ha":1094,"x_min":0,"x_max":0,"o":"m 408 1058 b 504 1154 463 1058 504 1097 b 408 1250 504 1211 463 1250 b 311 1154 354 1250 311 1211 b 408 1058 311 1097 354 1058 z m 689 1058 b 786 1154 743 1058 786 1097 b 689 1250 786 1211 743 1250 b 593 1154 635 1250 593 1211 b 689 1058 593 1097 635 1058 z m 547 -17 b 988 428 824 -17 988 142 l 988 972 l 765 972 l 765 436 b 549 175 765 251 686 175 b 332 436 413 175 332 251 l 332 972 l 107 972 l 107 428 b 547 -17 107 142 271 -17 z "},"Ụ":{"ha":1094,"x_min":0,"x_max":0,"o":"m 547 -17 b 988 428 824 -17 988 142 l 988 972 l 765 972 l 765 436 b 549 175 765 251 686 175 b 332 436 413 175 332 251 l 332 972 l 107 972 l 107 428 b 547 -17 107 142 271 -17 z m 549 -292 b 644 -199 603 -292 644 -256 b 549 -101 644 -142 603 -101 b 453 -199 494 -101 453 -142 b 549 -292 453 -256 494 -292 z "},"Ù":{"ha":1094,"x_min":0,"x_max":0,"o":"m 506 1051 l 675 1051 l 488 1251 l 254 1251 z m 547 -17 b 988 428 824 -17 988 142 l 988 972 l 765 972 l 765 436 b 549 175 765 251 686 175 b 332 436 413 175 332 251 l 332 972 l 107 972 l 107 428 b 547 -17 107 142 271 -17 z "},"Ủ":{"ha":1094,"x_min":0,"x_max":0,"o":"m 590 1038 b 718 1213 675 1076 718 1133 b 551 1361 718 1301 650 1361 b 401 1314 496 1361 442 1346 l 446 1226 b 528 1253 474 1244 500 1253 b 593 1194 567 1253 593 1229 b 522 1110 593 1163 576 1135 z m 547 -17 b 988 428 824 -17 988 142 l 988 972 l 765 972 l 765 436 b 549 175 765 251 686 175 b 332 436 413 175 332 251 l 332 972 l 107 972 l 107 428 b 547 -17 107 142 271 -17 z "},"Ư":{"ha":1113,"x_min":0,"x_max":0,"o":"m 1138 1051 b 1093 1190 1138 1107 1121 1154 l 965 1143 b 993 1060 982 1122 993 1093 b 910 972 993 1008 960 972 l 765 972 l 765 436 b 549 175 765 251 686 175 b 332 436 413 175 332 251 l 332 972 l 107 972 l 107 428 b 547 -17 107 142 271 -17 b 988 428 824 -17 988 142 l 988 839 b 1138 1051 1083 865 1138 942 z "},"Ứ":{"ha":1113,"x_min":0,"x_max":0,"o":"m 843 1251 l 610 1251 l 422 1051 l 592 1051 z m 1138 1051 b 1093 1190 1138 1107 1121 1154 l 965 1143 b 993 1060 982 1122 993 1093 b 910 972 993 1008 960 972 l 765 972 l 765 436 b 549 175 765 251 686 175 b 332 436 413 175 332 251 l 332 972 l 107 972 l 107 428 b 547 -17 107 142 271 -17 b 988 428 824 -17 988 142 l 988 839 b 1138 1051 1083 865 1138 942 z "},"Ự":{"ha":1113,"x_min":0,"x_max":0,"o":"m 1138 1051 b 1093 1190 1138 1107 1121 1154 l 965 1143 b 993 1060 982 1122 993 1093 b 910 972 993 1008 960 972 l 765 972 l 765 436 b 549 175 765 251 686 175 b 332 436 413 175 332 251 l 332 972 l 107 972 l 107 428 b 547 -17 107 142 271 -17 b 988 428 824 -17 988 142 l 988 839 b 1138 1051 1083 865 1138 942 z m 549 -101 b 453 -199 494 -101 453 -142 b 549 -292 453 -256 494 -292 b 644 -199 603 -292 644 -256 b 549 -101 644 -142 603 -101 z "},"Ừ":{"ha":1113,"x_min":0,"x_max":0,"o":"m 675 1051 l 488 1251 l 254 1251 l 506 1051 z m 1138 1051 b 1093 1190 1138 1107 1121 1154 l 965 1143 b 993 1060 982 1122 993 1093 b 910 972 993 1008 960 972 l 765 972 l 765 436 b 549 175 765 251 686 175 b 332 436 413 175 332 251 l 332 972 l 107 972 l 107 428 b 547 -17 107 142 271 -17 b 988 428 824 -17 988 142 l 988 839 b 1138 1051 1083 865 1138 942 z "},"Ử":{"ha":1113,"x_min":0,"x_max":0,"o":"m 528 1253 b 593 1194 567 1253 593 1229 b 522 1110 593 1163 576 1135 l 590 1038 b 718 1213 675 1076 718 1133 b 551 1361 718 1301 650 1361 b 401 1314 496 1361 442 1346 l 446 1226 b 528 1253 474 1244 500 1253 z m 1138 1051 b 1093 1190 1138 1107 1121 1154 l 965 1143 b 993 1060 982 1122 993 1093 b 910 972 993 1008 960 972 l 765 972 l 765 436 b 549 175 765 251 686 175 b 332 436 413 175 332 251 l 332 972 l 107 972 l 107 428 b 547 -17 107 142 271 -17 b 988 428 824 -17 988 142 l 988 839 b 1138 1051 1083 865 1138 942 z "},"Ữ":{"ha":1113,"x_min":0,"x_max":0,"o":"m 458 1135 b 653 1047 508 1135 557 1047 b 815 1246 750 1047 813 1126 l 706 1246 b 639 1171 703 1200 676 1171 b 444 1260 589 1171 540 1260 b 282 1057 347 1260 285 1181 l 392 1057 b 458 1135 394 1107 421 1135 z m 1138 1051 b 1093 1190 1138 1107 1121 1154 l 965 1143 b 993 1060 982 1122 993 1093 b 910 972 993 1008 960 972 l 765 972 l 765 436 b 549 175 765 251 686 175 b 332 436 413 175 332 251 l 332 972 l 107 972 l 107 428 b 547 -17 107 142 271 -17 b 988 428 824 -17 988 142 l 988 839 b 1138 1051 1083 865 1138 942 z "},"Ű":{"ha":1094,"x_min":0,"x_max":0,"o":"m 329 1051 l 488 1051 l 632 1251 l 429 1251 z m 610 1051 l 768 1051 l 913 1251 l 710 1251 z m 547 -17 b 988 428 824 -17 988 142 l 988 972 l 765 972 l 765 436 b 549 175 765 251 686 175 b 332 436 413 175 332 251 l 332 972 l 107 972 l 107 428 b 547 -17 107 142 271 -17 z "},"Ȗ":{"ha":1094,"x_min":0,"x_max":0,"o":"m 293 1051 l 429 1051 b 549 1150 432 1113 483 1150 b 668 1051 614 1150 665 1113 l 804 1051 b 549 1263 799 1182 693 1263 b 293 1051 404 1263 299 1182 z m 547 -17 b 988 428 824 -17 988 142 l 988 972 l 765 972 l 765 436 b 549 175 765 251 686 175 b 332 436 413 175 332 251 l 332 972 l 107 972 l 107 428 b 547 -17 107 142 271 -17 z "},"Ū":{"ha":1094,"x_min":0,"x_max":0,"o":"m 292 1090 l 806 1090 l 806 1213 l 292 1213 z m 547 -17 b 988 428 824 -17 988 142 l 988 972 l 765 972 l 765 436 b 549 175 765 251 686 175 b 332 436 413 175 332 251 l 332 972 l 107 972 l 107 428 b 547 -17 107 142 271 -17 z "},"Ṻ":{"ha":1094,"x_min":0,"x_max":0,"o":"m 413 1283 b 506 1375 465 1283 506 1321 b 413 1467 506 1428 465 1467 b 321 1375 361 1467 321 1428 b 413 1283 321 1321 361 1283 z m 685 1283 b 776 1375 736 1283 776 1321 b 685 1467 776 1428 736 1467 b 593 1375 635 1467 593 1428 b 685 1283 593 1321 635 1283 z m 292 1075 l 806 1075 l 806 1190 l 292 1190 z m 547 -17 b 988 428 824 -17 988 142 l 988 972 l 765 972 l 765 436 b 549 175 765 251 686 175 b 332 436 413 175 332 251 l 332 972 l 107 972 l 107 428 b 547 -17 107 142 271 -17 z "},"Ų":{"ha":1094,"x_min":0,"x_max":0,"o":"m 765 972 l 765 436 b 549 175 765 251 686 175 b 332 436 413 175 332 251 l 332 972 l 107 972 l 107 428 b 478 -12 107 167 243 11 b 396 -167 422 -58 396 -111 b 588 -322 396 -260 467 -322 b 728 -290 640 -322 694 -308 l 696 -192 b 613 -212 675 -204 643 -212 b 533 -149 563 -212 533 -187 b 728 11 533 -101 572 -47 b 988 428 885 69 988 200 l 988 972 z "},"Ů":{"ha":1094,"x_min":0,"x_max":0,"o":"m 547 1047 b 721 1215 646 1047 721 1121 b 547 1383 721 1308 646 1383 b 376 1215 450 1383 376 1308 b 547 1047 376 1121 450 1047 z m 547 1131 b 464 1215 500 1131 464 1167 b 547 1300 464 1264 501 1300 b 632 1215 596 1300 632 1264 b 547 1131 632 1167 596 1131 z m 547 -17 b 988 428 824 -17 988 142 l 988 972 l 765 972 l 765 436 b 549 175 765 251 686 175 b 332 436 413 175 332 251 l 332 972 l 107 972 l 107 428 b 547 -17 107 142 271 -17 z "},"Ũ":{"ha":1094,"x_min":0,"x_max":0,"o":"m 653 1047 b 815 1246 750 1047 813 1126 l 706 1246 b 639 1171 703 1200 676 1171 b 444 1260 589 1171 540 1260 b 282 1057 347 1260 285 1181 l 392 1057 b 458 1135 394 1107 421 1135 b 653 1047 508 1135 557 1047 z m 547 -17 b 988 428 824 -17 988 142 l 988 972 l 765 972 l 765 436 b 549 175 765 251 686 175 b 332 436 413 175 332 251 l 332 972 l 107 972 l 107 428 b 547 -17 107 142 271 -17 z "},"Ṹ":{"ha":1094,"x_min":0,"x_max":0,"o":"m 429 1275 l 586 1275 l 804 1443 l 583 1443 z m 651 1049 b 810 1221 750 1049 808 1114 l 701 1221 b 640 1158 699 1185 678 1158 b 449 1231 592 1158 542 1231 b 288 1057 350 1231 289 1168 l 399 1057 b 460 1121 401 1097 422 1121 b 651 1049 506 1121 556 1049 z m 547 -17 b 988 428 824 -17 988 142 l 988 972 l 765 972 l 765 436 b 549 175 765 251 686 175 b 332 436 413 175 332 251 l 332 972 l 107 972 l 107 428 b 547 -17 107 142 271 -17 z "},"V":{"ha":1036,"x_min":0,"x_max":0,"o":"m 826 972 l 526 278 l 231 972 l -12 972 l 407 0 l 629 0 l 1050 972 z "},"W":{"ha":1615,"x_min":0,"x_max":0,"o":"m 1369 972 l 1143 283 l 921 972 l 713 972 l 483 289 l 264 972 l 31 972 l 350 0 l 590 0 l 811 658 l 1025 0 l 1267 0 l 1585 972 z "},"Ẃ":{"ha":1615,"x_min":0,"x_max":0,"o":"m 1103 1251 l 869 1251 l 682 1051 l 851 1051 z m 1369 972 l 1143 283 l 921 972 l 713 972 l 483 289 l 264 972 l 31 972 l 350 0 l 590 0 l 811 658 l 1025 0 l 1267 0 l 1585 972 z "},"Ŵ":{"ha":1615,"x_min":0,"x_max":0,"o":"m 808 1157 l 929 1051 l 1088 1051 l 904 1251 l 713 1251 l 529 1051 l 688 1051 z m 1369 972 l 1143 283 l 921 972 l 713 972 l 483 289 l 264 972 l 31 972 l 350 0 l 590 0 l 811 658 l 1025 0 l 1267 0 l 1585 972 z "},"Ẅ":{"ha":1615,"x_min":0,"x_max":0,"o":"m 668 1058 b 764 1154 722 1058 764 1097 b 668 1250 764 1211 722 1250 b 571 1154 614 1250 571 1211 b 668 1058 571 1097 614 1058 z m 949 1058 b 1046 1154 1003 1058 1046 1097 b 949 1250 1046 1211 1003 1250 b 853 1154 894 1250 853 1211 b 949 1058 853 1097 894 1058 z m 1369 972 l 1143 283 l 921 972 l 713 972 l 483 289 l 264 972 l 31 972 l 350 0 l 590 0 l 811 658 l 1025 0 l 1267 0 l 1585 972 z "},"Ẁ":{"ha":1615,"x_min":0,"x_max":0,"o":"m 935 1051 l 747 1251 l 514 1251 l 765 1051 z m 1369 972 l 1143 283 l 921 972 l 713 972 l 483 289 l 264 972 l 31 972 l 350 0 l 590 0 l 811 658 l 1025 0 l 1267 0 l 1585 972 z "},"X":{"ha":992,"x_min":0,"x_max":0,"o":"m 988 0 l 625 503 l 964 972 l 721 972 l 501 657 l 278 972 l 22 972 l 364 494 l 4 0 l 263 0 l 493 338 l 728 0 z "},"Y":{"ha":939,"x_min":0,"x_max":0,"o":"m 960 972 l 739 972 l 479 540 l 219 972 l -19 972 l 357 347 l 357 0 l 582 0 l 582 344 z "},"Ý":{"ha":939,"x_min":0,"x_max":0,"o":"m 764 1251 l 531 1251 l 343 1051 l 513 1051 z m 960 972 l 739 972 l 479 540 l 219 972 l -19 972 l 357 347 l 357 0 l 582 0 l 582 344 z "},"Ŷ":{"ha":939,"x_min":0,"x_max":0,"o":"m 469 1157 l 590 1051 l 749 1051 l 565 1251 l 374 1251 l 190 1051 l 349 1051 z m 960 972 l 739 972 l 479 540 l 219 972 l -19 972 l 357 347 l 357 0 l 582 0 l 582 344 z "},"Ÿ":{"ha":939,"x_min":0,"x_max":0,"o":"m 329 1058 b 425 1154 383 1058 425 1097 b 329 1250 425 1211 383 1250 b 232 1154 275 1250 232 1211 b 329 1058 232 1097 275 1058 z m 610 1058 b 707 1154 664 1058 707 1097 b 610 1250 707 1211 664 1250 b 514 1154 556 1250 514 1211 b 610 1058 514 1097 556 1058 z m 960 972 l 739 972 l 479 540 l 219 972 l -19 972 l 357 347 l 357 0 l 582 0 l 582 344 z "},"Ẏ":{"ha":939,"x_min":0,"x_max":0,"o":"m 469 1058 b 586 1176 538 1058 586 1108 b 469 1293 586 1243 538 1293 b 353 1176 401 1293 353 1243 b 469 1058 353 1108 401 1058 z m 960 972 l 739 972 l 479 540 l 219 972 l -19 972 l 357 347 l 357 0 l 582 0 l 582 344 z "},"Ỵ":{"ha":939,"x_min":0,"x_max":0,"o":"m 960 972 l 739 972 l 479 540 l 219 972 l -19 972 l 357 347 l 357 0 l 582 0 l 582 344 z m 469 -101 b 374 -199 415 -101 374 -142 b 469 -292 374 -256 415 -292 b 565 -199 524 -292 565 -256 b 469 -101 565 -142 524 -101 z "},"Ỳ":{"ha":939,"x_min":0,"x_max":0,"o":"m 596 1051 l 408 1251 l 175 1251 l 426 1051 z m 960 972 l 739 972 l 479 540 l 219 972 l -19 972 l 357 347 l 357 0 l 582 0 l 582 344 z "},"Ỷ":{"ha":939,"x_min":0,"x_max":0,"o":"m 449 1253 b 514 1194 488 1253 514 1229 b 443 1110 514 1163 497 1135 l 511 1038 b 639 1213 596 1076 639 1133 b 472 1361 639 1301 571 1361 b 322 1314 417 1361 363 1346 l 367 1226 b 449 1253 394 1244 421 1253 z m 960 972 l 739 972 l 479 540 l 219 972 l -19 972 l 357 347 l 357 0 l 582 0 l 582 344 z "},"Ȳ":{"ha":939,"x_min":0,"x_max":0,"o":"m 726 1213 l 213 1213 l 213 1090 l 726 1090 z m 960 972 l 739 972 l 479 540 l 219 972 l -19 972 l 357 347 l 357 0 l 582 0 l 582 344 z "},"Ỹ":{"ha":939,"x_min":0,"x_max":0,"o":"m 379 1135 b 574 1047 429 1135 478 1047 b 736 1246 671 1047 733 1126 l 626 1246 b 560 1171 624 1200 597 1171 b 365 1260 510 1171 461 1260 b 203 1057 268 1260 206 1181 l 313 1057 b 379 1135 315 1107 342 1135 z m 960 972 l 739 972 l 479 540 l 219 972 l -19 972 l 357 347 l 357 0 l 582 0 l 582 344 z "},"Z":{"ha":932,"x_min":0,"x_max":0,"o":"m 350 183 l 882 826 l 882 972 l 64 972 l 64 789 l 586 789 l 53 146 l 53 0 l 903 0 l 903 183 z "},"Ź":{"ha":932,"x_min":0,"x_max":0,"o":"m 772 1251 l 539 1251 l 351 1051 l 521 1051 z m 350 183 l 882 826 l 882 972 l 64 972 l 64 789 l 586 789 l 53 146 l 53 0 l 903 0 l 903 183 z "},"Ž":{"ha":932,"x_min":0,"x_max":0,"o":"m 574 1051 l 757 1251 l 599 1251 l 478 1147 l 357 1251 l 199 1251 l 382 1051 z m 350 183 l 882 826 l 882 972 l 64 972 l 64 789 l 586 789 l 53 146 l 53 0 l 903 0 l 903 183 z "},"Ż":{"ha":932,"x_min":0,"x_max":0,"o":"m 478 1058 b 594 1176 546 1058 594 1108 b 478 1293 594 1243 546 1293 b 361 1176 410 1293 361 1243 b 478 1058 361 1108 410 1058 z m 350 183 l 882 826 l 882 972 l 64 972 l 64 789 l 586 789 l 53 146 l 53 0 l 903 0 l 903 183 z "},"Ẓ":{"ha":932,"x_min":0,"x_max":0,"o":"m 350 183 l 882 826 l 882 972 l 64 972 l 64 789 l 586 789 l 53 146 l 53 0 l 903 0 l 903 183 z m 482 -101 b 386 -199 428 -101 386 -142 b 482 -292 386 -256 428 -292 b 578 -199 536 -292 578 -256 b 482 -101 578 -142 536 -101 z "},"a":{"ha":857,"x_min":0,"x_max":0,"o":"m 401 758 b 79 668 282 758 161 726 l 157 517 b 372 586 211 560 293 586 b 544 439 489 586 544 532 l 372 439 b 51 215 144 439 51 347 b 331 -11 51 86 156 -11 b 558 93 440 -11 518 25 l 558 0 l 761 0 l 761 426 b 401 758 761 653 629 758 z m 385 135 b 263 225 308 135 263 171 b 396 313 263 275 294 313 l 544 313 l 544 236 b 385 135 519 168 457 135 z "},"á":{"ha":857,"x_min":0,"x_max":0,"o":"m 718 1043 l 485 1043 l 297 843 l 467 843 z m 401 758 b 79 668 282 758 161 726 l 157 517 b 372 586 211 560 293 586 b 544 439 489 586 544 532 l 372 439 b 51 215 144 439 51 347 b 331 -11 51 86 156 -11 b 558 93 440 -11 518 25 l 558 0 l 761 0 l 761 426 b 401 758 761 653 629 758 z m 385 135 b 263 225 308 135 263 171 b 396 313 263 275 294 313 l 544 313 l 544 236 b 385 135 519 168 457 135 z "},"ă":{"ha":857,"x_min":0,"x_max":0,"o":"m 424 832 b 679 1043 568 832 674 913 l 543 1043 b 424 944 540 983 489 944 b 304 1043 358 944 307 983 l 168 1043 b 424 832 174 913 279 832 z m 401 758 b 79 668 282 758 161 726 l 157 517 b 372 586 211 560 293 586 b 544 439 489 586 544 532 l 372 439 b 51 215 144 439 51 347 b 331 -11 51 86 156 -11 b 558 93 440 -11 518 25 l 558 0 l 761 0 l 761 426 b 401 758 761 653 629 758 z m 385 135 b 263 225 308 135 263 171 b 396 313 263 275 294 313 l 544 313 l 544 236 b 385 135 519 168 457 135 z "},"ắ":{"ha":857,"x_min":0,"x_max":0,"o":"m 679 1211 l 458 1211 l 304 1043 l 461 1043 z m 424 832 b 679 1001 567 832 669 897 l 549 1001 b 424 936 543 963 493 936 b 299 1001 354 936 304 963 l 168 1001 b 424 832 178 897 281 832 z m 401 758 b 79 668 282 758 161 726 l 157 517 b 372 586 211 560 293 586 b 544 439 489 586 544 532 l 372 439 b 51 215 144 439 51 347 b 331 -11 51 86 156 -11 b 558 93 440 -11 518 25 l 558 0 l 761 0 l 761 426 b 401 758 761 653 629 758 z m 385 135 b 263 225 308 135 263 171 b 396 313 263 275 294 313 l 544 313 l 544 236 b 385 135 519 168 457 135 z "},"ặ":{"ha":857,"x_min":0,"x_max":0,"o":"m 424 832 b 679 1043 568 832 674 913 l 543 1043 b 424 944 540 983 489 944 b 304 1043 358 944 307 983 l 168 1043 b 424 832 174 913 279 832 z m 401 758 b 79 668 282 758 161 726 l 157 517 b 372 586 211 560 293 586 b 544 439 489 586 544 532 l 372 439 b 51 215 144 439 51 347 b 331 -11 51 86 156 -11 b 558 93 440 -11 518 25 l 558 0 l 761 0 l 761 426 b 401 758 761 653 629 758 z m 385 135 b 263 225 308 135 263 171 b 396 313 263 275 294 313 l 544 313 l 544 236 b 385 135 519 168 457 135 z m 407 -101 b 311 -199 353 -101 311 -142 b 407 -292 311 -256 353 -292 b 503 -199 461 -292 503 -256 b 407 -101 503 -142 461 -101 z "},"ằ":{"ha":857,"x_min":0,"x_max":0,"o":"m 543 1043 l 390 1211 l 169 1211 l 388 1043 z m 424 832 b 679 1001 567 832 669 897 l 549 1001 b 424 936 543 963 493 936 b 299 1001 354 936 304 963 l 168 1001 b 424 832 178 897 281 832 z m 401 758 b 79 668 282 758 161 726 l 157 517 b 372 586 211 560 293 586 b 544 439 489 586 544 532 l 372 439 b 51 215 144 439 51 347 b 331 -11 51 86 156 -11 b 558 93 440 -11 518 25 l 558 0 l 761 0 l 761 426 b 401 758 761 653 629 758 z m 385 135 b 263 225 308 135 263 171 b 396 313 263 275 294 313 l 544 313 l 544 236 b 385 135 519 168 457 135 z "},"ẳ":{"ha":857,"x_min":0,"x_max":0,"o":"m 410 1154 b 457 1114 438 1154 457 1139 b 406 1056 457 1096 443 1074 l 458 1004 b 556 1125 513 1025 556 1069 b 428 1235 556 1192 506 1235 b 313 1204 386 1235 344 1225 l 349 1138 b 410 1154 369 1149 388 1154 z m 424 832 b 679 1001 567 832 669 897 l 549 1001 b 424 936 543 963 493 936 b 299 1001 354 936 304 963 l 168 1001 b 424 832 178 897 281 832 z m 401 758 b 79 668 282 758 161 726 l 157 517 b 372 586 211 560 293 586 b 544 439 489 586 544 532 l 372 439 b 51 215 144 439 51 347 b 331 -11 51 86 156 -11 b 558 93 440 -11 518 25 l 558 0 l 761 0 l 761 426 b 401 758 761 653 629 758 z m 385 135 b 263 225 308 135 263 171 b 396 313 263 275 294 313 l 544 313 l 544 236 b 385 135 519 168 457 135 z "},"ẵ":{"ha":857,"x_min":0,"x_max":0,"o":"m 335 1113 b 526 1040 381 1113 431 1040 b 685 1213 625 1040 683 1106 l 576 1213 b 515 1150 574 1176 553 1150 b 324 1222 467 1150 417 1222 b 163 1049 225 1222 164 1160 l 274 1049 b 335 1113 276 1089 297 1113 z m 424 936 b 299 1001 354 936 304 963 l 168 1001 b 424 832 178 897 281 832 b 679 1001 567 832 669 897 l 549 1001 b 424 936 543 963 493 936 z m 401 758 b 79 668 282 758 161 726 l 157 517 b 372 586 211 560 293 586 b 544 439 489 586 544 532 l 372 439 b 51 215 144 439 51 347 b 331 -11 51 86 156 -11 b 558 93 440 -11 518 25 l 558 0 l 761 0 l 761 426 b 401 758 761 653 629 758 z m 385 135 b 263 225 308 135 263 171 b 396 313 263 275 294 313 l 544 313 l 544 236 b 385 135 519 168 457 135 z "},"ǎ":{"ha":857,"x_min":0,"x_max":0,"o":"m 519 843 l 703 1043 l 544 1043 l 424 939 l 303 1043 l 144 1043 l 328 843 z m 401 758 b 79 668 282 758 161 726 l 157 517 b 372 586 211 560 293 586 b 544 439 489 586 544 532 l 372 439 b 51 215 144 439 51 347 b 331 -11 51 86 156 -11 b 558 93 440 -11 518 25 l 558 0 l 761 0 l 761 426 b 401 758 761 653 629 758 z m 385 135 b 263 225 308 135 263 171 b 396 313 263 275 294 313 l 544 313 l 544 236 b 385 135 519 168 457 135 z "},"â":{"ha":857,"x_min":0,"x_max":0,"o":"m 424 949 l 544 843 l 703 843 l 519 1043 l 328 1043 l 144 843 l 303 843 z m 401 758 b 79 668 282 758 161 726 l 157 517 b 372 586 211 560 293 586 b 544 439 489 586 544 532 l 372 439 b 51 215 144 439 51 347 b 331 -11 51 86 156 -11 b 558 93 440 -11 518 25 l 558 0 l 761 0 l 761 426 b 401 758 761 653 629 758 z m 385 135 b 263 225 308 135 263 171 b 396 313 263 275 294 313 l 544 313 l 544 236 b 385 135 519 168 457 135 z "},"ấ":{"ha":857,"x_min":0,"x_max":0,"o":"m 965 1144 l 744 1144 l 590 976 l 747 976 z m 424 922 l 543 843 l 703 843 l 518 1001 l 329 1001 l 144 843 l 304 843 z m 401 758 b 79 668 282 758 161 726 l 157 517 b 372 586 211 560 293 586 b 544 439 489 586 544 532 l 372 439 b 51 215 144 439 51 347 b 331 -11 51 86 156 -11 b 558 93 440 -11 518 25 l 558 0 l 761 0 l 761 426 b 401 758 761 653 629 758 z m 385 135 b 263 225 308 135 263 171 b 396 313 263 275 294 313 l 544 313 l 544 236 b 385 135 519 168 457 135 z "},"ậ":{"ha":857,"x_min":0,"x_max":0,"o":"m 424 949 l 544 843 l 703 843 l 519 1043 l 328 1043 l 144 843 l 303 843 z m 401 758 b 79 668 282 758 161 726 l 157 517 b 372 586 211 560 293 586 b 544 439 489 586 544 532 l 372 439 b 51 215 144 439 51 347 b 331 -11 51 86 156 -11 b 558 93 440 -11 518 25 l 558 0 l 761 0 l 761 426 b 401 758 761 653 629 758 z m 385 135 b 263 225 308 135 263 171 b 396 313 263 275 294 313 l 544 313 l 544 236 b 385 135 519 168 457 135 z m 407 -101 b 311 -199 353 -101 311 -142 b 407 -292 311 -256 353 -292 b 503 -199 461 -292 503 -256 b 407 -101 503 -142 461 -101 z "},"ầ":{"ha":857,"x_min":0,"x_max":0,"o":"m 829 976 l 676 1144 l 456 1144 l 674 976 z m 424 922 l 543 843 l 703 843 l 518 1001 l 329 1001 l 144 843 l 304 843 z m 401 758 b 79 668 282 758 161 726 l 157 517 b 372 586 211 560 293 586 b 544 439 489 586 544 532 l 372 439 b 51 215 144 439 51 347 b 331 -11 51 86 156 -11 b 558 93 440 -11 518 25 l 558 0 l 761 0 l 761 426 b 401 758 761 653 629 758 z m 385 135 b 263 225 308 135 263 171 b 396 313 263 275 294 313 l 544 313 l 544 236 b 385 135 519 168 457 135 z "},"ẩ":{"ha":857,"x_min":0,"x_max":0,"o":"m 622 1100 b 669 1060 650 1100 669 1085 b 618 1001 669 1042 656 1019 l 671 950 b 768 1071 725 971 768 1015 b 640 1181 768 1138 718 1181 b 525 1150 599 1181 557 1171 l 561 1083 b 622 1100 582 1094 600 1100 z m 424 922 l 543 843 l 703 843 l 518 1001 l 329 1001 l 144 843 l 304 843 z m 401 758 b 79 668 282 758 161 726 l 157 517 b 372 586 211 560 293 586 b 544 439 489 586 544 532 l 372 439 b 51 215 144 439 51 347 b 331 -11 51 86 156 -11 b 558 93 440 -11 518 25 l 558 0 l 761 0 l 761 426 b 401 758 761 653 629 758 z m 385 135 b 263 225 308 135 263 171 b 396 313 263 275 294 313 l 544 313 l 544 236 b 385 135 519 168 457 135 z "},"ẫ":{"ha":857,"x_min":0,"x_max":0,"o":"m 335 1122 b 526 1050 381 1122 431 1050 b 685 1222 625 1050 683 1115 l 576 1222 b 515 1160 574 1186 553 1160 b 324 1232 467 1160 417 1232 b 163 1058 225 1232 164 1169 l 274 1058 b 335 1122 276 1099 297 1122 z m 424 922 l 543 843 l 703 843 l 518 1001 l 329 1001 l 144 843 l 304 843 z m 401 758 b 79 668 282 758 161 726 l 157 517 b 372 586 211 560 293 586 b 544 439 489 586 544 532 l 372 439 b 51 215 144 439 51 347 b 331 -11 51 86 156 -11 b 558 93 440 -11 518 25 l 558 0 l 761 0 l 761 426 b 401 758 761 653 629 758 z m 385 135 b 263 225 308 135 263 171 b 396 313 263 275 294 313 l 544 313 l 544 236 b 385 135 519 168 457 135 z "},"ȁ":{"ha":857,"x_min":0,"x_max":0,"o":"m 363 843 l 263 1043 l 60 1043 l 204 843 z m 643 843 l 543 1043 l 340 1043 l 485 843 z m 401 758 b 79 668 282 758 161 726 l 157 517 b 372 586 211 560 293 586 b 544 439 489 586 544 532 l 372 439 b 51 215 144 439 51 347 b 331 -11 51 86 156 -11 b 558 93 440 -11 518 25 l 558 0 l 761 0 l 761 426 b 401 758 761 653 629 758 z m 385 135 b 263 225 308 135 263 171 b 396 313 263 275 294 313 l 544 313 l 544 236 b 385 135 519 168 457 135 z "},"ä":{"ha":857,"x_min":0,"x_max":0,"o":"m 283 850 b 379 946 338 850 379 889 b 283 1042 379 1003 338 1042 b 186 946 229 1042 186 1003 b 283 850 186 889 229 850 z m 564 850 b 661 946 618 850 661 889 b 564 1042 661 1003 618 1042 b 468 946 510 1042 468 1003 b 564 850 468 889 510 850 z m 401 758 b 79 668 282 758 161 726 l 157 517 b 372 586 211 560 293 586 b 544 439 489 586 544 532 l 372 439 b 51 215 144 439 51 347 b 331 -11 51 86 156 -11 b 558 93 440 -11 518 25 l 558 0 l 761 0 l 761 426 b 401 758 761 653 629 758 z m 385 135 b 263 225 308 135 263 171 b 396 313 263 275 294 313 l 544 313 l 544 236 b 385 135 519 168 457 135 z "},"ạ":{"ha":857,"x_min":0,"x_max":0,"o":"m 401 758 b 79 668 282 758 161 726 l 157 517 b 372 586 211 560 293 586 b 544 439 489 586 544 532 l 372 439 b 51 215 144 439 51 347 b 331 -11 51 86 156 -11 b 558 93 440 -11 518 25 l 558 0 l 761 0 l 761 426 b 401 758 761 653 629 758 z m 385 135 b 263 225 308 135 263 171 b 396 313 263 275 294 313 l 544 313 l 544 236 b 385 135 519 168 457 135 z m 407 -101 b 311 -199 353 -101 311 -142 b 407 -292 311 -256 353 -292 b 503 -199 461 -292 503 -256 b 407 -101 503 -142 461 -101 z "},"à":{"ha":857,"x_min":0,"x_max":0,"o":"m 550 843 l 363 1043 l 129 1043 l 381 843 z m 401 758 b 79 668 282 758 161 726 l 157 517 b 372 586 211 560 293 586 b 544 439 489 586 544 532 l 372 439 b 51 215 144 439 51 347 b 331 -11 51 86 156 -11 b 558 93 440 -11 518 25 l 558 0 l 761 0 l 761 426 b 401 758 761 653 629 758 z m 385 135 b 263 225 308 135 263 171 b 396 313 263 275 294 313 l 544 313 l 544 236 b 385 135 519 168 457 135 z "},"ả":{"ha":857,"x_min":0,"x_max":0,"o":"m 403 1044 b 468 986 442 1044 468 1021 b 397 901 468 954 451 926 l 465 829 b 593 1004 550 868 593 925 b 426 1153 593 1093 525 1153 b 276 1106 371 1153 317 1138 l 321 1018 b 403 1044 349 1036 375 1044 z m 401 758 b 79 668 282 758 161 726 l 157 517 b 372 586 211 560 293 586 b 544 439 489 586 544 532 l 372 439 b 51 215 144 439 51 347 b 331 -11 51 86 156 -11 b 558 93 440 -11 518 25 l 558 0 l 761 0 l 761 426 b 401 758 761 653 629 758 z m 385 135 b 263 225 308 135 263 171 b 396 313 263 275 294 313 l 544 313 l 544 236 b 385 135 519 168 457 135 z "},"ȃ":{"ha":857,"x_min":0,"x_max":0,"o":"m 424 942 b 543 843 489 942 540 904 l 679 843 b 424 1054 674 974 568 1054 b 168 843 279 1054 174 974 l 304 843 b 424 942 307 904 358 942 z m 401 758 b 79 668 282 758 161 726 l 157 517 b 372 586 211 560 293 586 b 544 439 489 586 544 532 l 372 439 b 51 215 144 439 51 347 b 331 -11 51 86 156 -11 b 558 93 440 -11 518 25 l 558 0 l 761 0 l 761 426 b 401 758 761 653 629 758 z m 385 135 b 263 225 308 135 263 171 b 396 313 263 275 294 313 l 544 313 l 544 236 b 385 135 519 168 457 135 z "},"ā":{"ha":857,"x_min":0,"x_max":0,"o":"m 681 1004 l 167 1004 l 167 882 l 681 882 z m 401 758 b 79 668 282 758 161 726 l 157 517 b 372 586 211 560 293 586 b 544 439 489 586 544 532 l 372 439 b 51 215 144 439 51 347 b 331 -11 51 86 156 -11 b 558 93 440 -11 518 25 l 558 0 l 761 0 l 761 426 b 401 758 761 653 629 758 z m 385 135 b 263 225 308 135 263 171 b 396 313 263 275 294 313 l 544 313 l 544 236 b 385 135 519 168 457 135 z "},"ą":{"ha":857,"x_min":0,"x_max":0,"o":"m 763 -192 b 678 -212 740 -204 708 -212 b 599 -149 629 -212 599 -187 b 761 0 599 -97 642 -53 l 761 426 b 401 758 761 653 629 758 b 79 668 282 758 161 726 l 157 517 b 372 586 211 560 293 586 b 544 439 489 586 544 532 l 372 439 b 51 215 144 439 51 347 b 331 -11 51 86 156 -11 b 558 93 440 -11 518 25 l 558 0 l 563 0 b 461 -167 493 -49 461 -106 b 653 -322 461 -260 532 -322 b 793 -290 706 -322 760 -308 z m 385 135 b 263 225 308 135 263 171 b 396 313 263 275 294 313 l 544 313 l 544 236 b 385 135 519 168 457 135 z "},"å":{"ha":857,"x_min":0,"x_max":0,"o":"m 422 822 b 596 990 521 822 596 896 b 422 1158 596 1083 521 1158 b 251 990 325 1158 251 1083 b 422 822 251 896 325 822 z m 422 1075 b 507 990 471 1075 507 1039 b 422 906 507 942 471 906 b 339 990 375 906 339 942 b 422 1075 339 1039 376 1075 z m 401 758 b 79 668 282 758 161 726 l 157 517 b 372 586 211 560 293 586 b 544 439 489 586 544 532 l 372 439 b 51 215 144 439 51 347 b 331 -11 51 86 156 -11 b 558 93 440 -11 518 25 l 558 0 l 761 0 l 761 426 b 401 758 761 653 629 758 z m 385 135 b 263 225 308 135 263 171 b 396 313 263 275 294 313 l 544 313 l 544 236 b 385 135 519 168 457 135 z "},"ǻ":{"ha":857,"x_min":0,"x_max":0,"o":"m 422 822 b 596 990 521 822 596 896 b 572 1078 596 1022 588 1051 l 722 1186 l 615 1269 l 494 1144 b 422 1158 472 1153 449 1158 b 251 990 325 1158 251 1083 b 422 822 251 896 325 822 z m 422 1075 b 507 990 471 1075 507 1039 b 422 906 507 942 471 906 b 339 990 375 906 339 942 b 422 1075 339 1039 376 1075 z m 401 758 b 79 668 282 758 161 726 l 157 517 b 372 586 211 560 293 586 b 544 439 489 586 544 532 l 372 439 b 51 215 144 439 51 347 b 331 -11 51 86 156 -11 b 558 93 440 -11 518 25 l 558 0 l 761 0 l 761 426 b 401 758 761 653 629 758 z m 385 135 b 263 225 308 135 263 171 b 396 313 263 275 294 313 l 544 313 l 544 236 b 385 135 519 168 457 135 z "},"ã":{"ha":857,"x_min":0,"x_max":0,"o":"m 333 926 b 528 839 383 926 432 839 b 690 1038 625 839 688 918 l 581 1038 b 514 963 578 992 551 963 b 319 1051 464 963 415 1051 b 157 849 222 1051 160 972 l 267 849 b 333 926 269 899 296 926 z m 401 758 b 79 668 282 758 161 726 l 157 517 b 372 586 211 560 293 586 b 544 439 489 586 544 532 l 372 439 b 51 215 144 439 51 347 b 331 -11 51 86 156 -11 b 558 93 440 -11 518 25 l 558 0 l 761 0 l 761 426 b 401 758 761 653 629 758 z m 385 135 b 263 225 308 135 263 171 b 396 313 263 275 294 313 l 544 313 l 544 236 b 385 135 519 168 457 135 z "},"æ":{"ha":1383,"x_min":0,"x_max":0,"o":"m 1338 376 b 950 758 1338 608 1164 758 b 675 653 840 758 743 719 b 400 758 618 722 525 758 b 79 668 282 758 161 726 l 157 517 b 374 586 211 560 293 586 b 544 440 489 586 544 531 l 372 440 b 51 224 144 440 51 346 b 365 -11 51 83 169 -11 b 651 118 476 -11 586 19 b 975 -11 732 28 847 -11 b 1283 110 1106 -11 1211 31 l 1168 235 b 979 163 1114 186 1054 163 b 767 314 864 163 786 221 l 1333 314 b 1338 376 1336 332 1338 353 z m 947 594 b 1128 440 1033 594 1113 542 l 764 440 b 947 594 782 542 861 594 z m 388 135 b 263 228 308 135 263 169 b 396 314 263 276 294 314 l 544 314 l 544 279 b 388 135 544 192 486 135 z "},"ǽ":{"ha":1383,"x_min":0,"x_max":0,"o":"m 947 1043 l 714 1043 l 526 843 l 696 843 z m 1338 376 b 950 758 1338 608 1164 758 b 675 653 840 758 743 719 b 400 758 618 722 525 758 b 79 668 282 758 161 726 l 157 517 b 374 586 211 560 293 586 b 544 440 489 586 544 531 l 372 440 b 51 224 144 440 51 346 b 365 -11 51 83 169 -11 b 651 118 476 -11 586 19 b 975 -11 732 28 847 -11 b 1283 110 1106 -11 1211 31 l 1168 235 b 979 163 1114 186 1054 163 b 767 314 864 163 786 221 l 1333 314 b 1338 376 1336 332 1338 353 z m 947 594 b 1128 440 1033 594 1113 542 l 764 440 b 947 594 782 542 861 594 z m 388 135 b 263 228 308 135 263 169 b 396 314 263 276 294 314 l 544 314 l 544 279 b 388 135 544 192 486 135 z "},"b":{"ha":958,"x_min":0,"x_max":0,"o":"m 542 758 b 317 668 449 758 372 729 l 317 1031 l 100 1031 l 100 0 l 307 0 l 307 86 b 542 -11 361 21 442 -11 b 914 374 751 -11 914 139 b 542 758 914 608 751 758 z m 504 167 b 314 374 396 167 314 244 b 504 581 314 503 396 581 b 694 374 613 581 694 503 b 504 167 694 244 613 167 z "},"c":{"ha":821,"x_min":0,"x_max":0,"o":"m 461 -11 b 796 178 618 -11 742 58 l 628 269 b 460 167 588 197 528 167 b 264 374 350 167 264 243 b 460 581 264 504 350 581 b 628 478 528 581 588 549 l 796 568 b 461 758 742 690 618 758 b 44 374 218 758 44 599 b 461 -11 44 149 218 -11 z "},"ć":{"ha":821,"x_min":0,"x_max":0,"o":"m 308 843 l 478 843 l 729 1043 l 496 1043 z m 461 -11 b 796 178 618 -11 742 58 l 628 269 b 460 167 588 197 528 167 b 264 374 350 167 264 243 b 460 581 264 504 350 581 b 628 478 528 581 588 549 l 796 568 b 461 758 742 690 618 758 b 44 374 218 758 44 599 b 461 -11 44 149 218 -11 z "},"č":{"ha":821,"x_min":0,"x_max":0,"o":"m 531 843 l 714 1043 l 556 1043 l 435 939 l 314 1043 l 156 1043 l 339 843 z m 460 167 b 264 374 350 167 264 243 b 460 581 264 504 350 581 b 628 478 528 581 588 549 l 796 568 b 461 758 742 690 618 758 b 44 374 218 758 44 599 b 461 -11 44 149 218 -11 b 796 178 618 -11 742 58 l 628 269 b 460 167 588 197 528 167 z "},"ç":{"ha":821,"x_min":0,"x_max":0,"o":"m 460 167 b 264 374 350 167 264 243 b 460 581 264 504 350 581 b 628 478 528 581 588 549 l 796 568 b 461 758 742 690 618 758 b 44 374 218 758 44 599 b 367 -3 44 179 174 33 l 333 -136 l 381 -136 b 449 -176 429 -136 449 -153 b 376 -221 449 -203 428 -221 b 286 -200 343 -221 313 -212 l 253 -293 b 382 -322 285 -311 333 -322 b 586 -185 506 -322 586 -269 b 465 -69 586 -128 550 -79 l 479 -11 b 796 178 628 -6 744 63 l 628 269 b 460 167 588 197 528 167 z "},"ḉ":{"ha":821,"x_min":0,"x_max":0,"o":"m 729 1043 l 496 1043 l 308 843 l 478 843 z m 460 167 b 264 374 350 167 264 243 b 460 581 264 504 350 581 b 628 478 528 581 588 549 l 796 568 b 461 758 742 690 618 758 b 44 374 218 758 44 599 b 367 -3 44 179 174 33 l 333 -136 l 381 -136 b 449 -176 429 -136 449 -153 b 376 -221 449 -203 428 -221 b 286 -200 343 -221 313 -212 l 253 -293 b 382 -322 285 -311 333 -322 b 586 -185 506 -322 586 -269 b 465 -69 586 -128 550 -79 l 479 -11 b 796 178 628 -6 744 63 l 628 269 b 460 167 588 197 528 167 z "},"ĉ":{"ha":821,"x_min":0,"x_max":0,"o":"m 435 949 l 556 843 l 714 843 l 531 1043 l 339 1043 l 156 843 l 314 843 z m 460 167 b 264 374 350 167 264 243 b 460 581 264 504 350 581 b 628 478 528 581 588 549 l 796 568 b 461 758 742 690 618 758 b 44 374 218 758 44 599 b 461 -11 44 149 218 -11 b 796 178 618 -11 742 58 l 628 269 b 460 167 588 197 528 167 z "},"ċ":{"ha":821,"x_min":0,"x_max":0,"o":"m 435 850 b 551 968 503 850 551 900 b 435 1085 551 1035 503 1085 b 318 968 367 1085 318 1035 b 435 850 318 900 367 850 z m 461 -11 b 796 178 618 -11 742 58 l 628 269 b 460 167 588 197 528 167 b 264 374 350 167 264 243 b 460 581 264 504 350 581 b 628 478 528 581 588 549 l 796 568 b 461 758 742 690 618 758 b 44 374 218 758 44 599 b 461 -11 44 149 218 -11 z "},"d":{"ha":961,"x_min":0,"x_max":0,"o":"m 644 1031 l 644 668 b 421 758 590 729 513 758 b 47 374 210 758 47 608 b 421 -11 47 139 210 -11 b 654 86 521 -11 600 21 l 654 0 l 861 0 l 861 1031 z m 458 167 b 267 374 350 167 267 244 b 458 581 267 503 350 581 b 649 374 565 581 649 503 b 458 167 649 244 565 167 z "},"ð":{"ha":913,"x_min":0,"x_max":0,"o":"m 756 853 l 829 881 l 785 990 l 660 942 b 338 1029 574 1000 465 1029 b 115 1001 253 1029 181 1018 l 142 833 b 329 863 196 851 263 863 b 425 853 364 863 396 860 l 165 753 l 210 643 l 561 778 b 642 522 614 721 642 636 l 642 519 b 397 619 586 585 503 619 b 44 307 200 619 44 497 b 419 -17 44 110 208 -17 b 867 475 696 -17 867 168 b 756 853 867 635 828 761 z m 436 151 b 265 301 336 151 265 210 b 440 451 265 393 333 451 b 614 301 540 451 614 389 b 436 151 614 218 544 151 z "},"ď":{"ha":961,"x_min":0,"x_max":0,"o":"m 975 1088 l 975 808 l 1110 808 l 1138 1088 z m 644 668 b 421 758 590 729 513 758 b 47 374 210 758 47 608 b 421 -11 47 139 210 -11 b 654 86 521 -11 600 21 l 654 0 l 861 0 l 861 1031 l 644 1031 z m 458 167 b 267 374 350 167 267 244 b 458 581 267 503 350 581 b 649 374 565 581 649 503 b 458 167 649 244 565 167 z "},"đ":{"ha":961,"x_min":0,"x_max":0,"o":"m 963 949 l 861 949 l 861 1031 l 644 1031 l 644 949 l 390 949 l 390 824 l 644 824 l 644 668 b 421 758 590 729 513 758 b 47 374 210 758 47 608 b 421 -11 47 139 210 -11 b 654 86 521 -11 600 21 l 654 0 l 861 0 l 861 824 l 963 824 z m 458 167 b 267 374 350 167 267 244 b 458 581 267 503 350 581 b 649 374 565 581 649 503 b 458 167 649 244 565 167 z "},"ḍ":{"ha":961,"x_min":0,"x_max":0,"o":"m 644 1031 l 644 668 b 421 758 590 729 513 758 b 47 374 210 758 47 608 b 421 -11 47 139 210 -11 b 654 86 521 -11 600 21 l 654 0 l 861 0 l 861 1031 z m 458 167 b 267 374 350 167 267 244 b 458 581 267 503 350 581 b 649 374 565 581 649 503 b 458 167 649 244 565 167 z m 504 -101 b 408 -199 450 -101 408 -142 b 504 -292 408 -256 450 -292 b 600 -199 558 -292 600 -256 b 504 -101 600 -142 558 -101 z "},"ḏ":{"ha":961,"x_min":0,"x_max":0,"o":"m 644 1031 l 644 668 b 421 758 590 729 513 758 b 47 374 210 758 47 608 b 421 -11 47 139 210 -11 b 654 86 521 -11 600 21 l 654 0 l 861 0 l 861 1031 z m 458 167 b 267 374 350 167 267 244 b 458 581 267 503 350 581 b 649 374 565 581 649 503 b 458 167 649 244 565 167 z m 247 -253 l 761 -253 l 761 -132 l 247 -132 z "},"ǆ":{"ha":1713,"x_min":0,"x_max":0,"o":"m 1428 843 l 1611 1043 l 1453 1043 l 1332 939 l 1211 1043 l 1053 1043 l 1236 843 z m 644 668 b 421 758 590 729 513 758 b 47 374 210 758 47 608 b 421 -11 47 139 210 -11 b 654 86 521 -11 600 21 l 654 0 l 861 0 l 861 1031 l 644 1031 z m 1272 167 l 1653 617 l 1653 747 l 1008 747 l 1008 581 l 1379 581 l 999 131 l 999 0 l 1665 0 l 1665 167 z m 458 167 b 267 374 350 167 267 244 b 458 581 267 503 350 581 b 649 374 565 581 649 503 b 458 167 649 244 565 167 z "},"e":{"ha":876,"x_min":0,"x_max":0,"o":"m 832 371 b 443 758 832 611 663 758 b 44 374 215 758 44 597 b 471 -11 44 151 213 -11 b 779 110 606 -11 710 31 l 664 235 b 476 163 613 186 556 163 b 263 313 363 163 283 219 l 828 313 b 832 371 829 331 832 354 z m 444 594 b 628 439 542 594 613 533 l 260 439 b 444 594 275 535 346 594 z "},"é":{"ha":876,"x_min":0,"x_max":0,"o":"m 733 1043 l 500 1043 l 313 843 l 482 843 z m 832 371 b 443 758 832 611 663 758 b 44 374 215 758 44 597 b 471 -11 44 151 213 -11 b 779 110 606 -11 710 31 l 664 235 b 476 163 613 186 556 163 b 263 313 363 163 283 219 l 828 313 b 832 371 829 331 832 354 z m 444 594 b 628 439 542 594 613 533 l 260 439 b 444 594 275 535 346 594 z "},"ĕ":{"ha":876,"x_min":0,"x_max":0,"o":"m 439 832 b 694 1043 583 832 689 913 l 558 1043 b 439 944 556 983 504 944 b 319 1043 374 944 322 983 l 183 1043 b 439 832 189 913 294 832 z m 832 371 b 443 758 832 611 663 758 b 44 374 215 758 44 597 b 471 -11 44 151 213 -11 b 779 110 606 -11 710 31 l 664 235 b 476 163 613 186 556 163 b 263 313 363 163 283 219 l 828 313 b 832 371 829 331 832 354 z m 444 594 b 628 439 542 594 613 533 l 260 439 b 444 594 275 535 346 594 z "},"ě":{"ha":876,"x_min":0,"x_max":0,"o":"m 535 843 l 718 1043 l 560 1043 l 439 939 l 318 1043 l 160 1043 l 343 843 z m 832 371 b 443 758 832 611 663 758 b 44 374 215 758 44 597 b 471 -11 44 151 213 -11 b 779 110 606 -11 710 31 l 664 235 b 476 163 613 186 556 163 b 263 313 363 163 283 219 l 828 313 b 832 371 829 331 832 354 z m 444 594 b 628 439 542 594 613 533 l 260 439 b 444 594 275 535 346 594 z "},"ḝ":{"ha":876,"x_min":0,"x_max":0,"o":"m 439 832 b 694 1043 583 832 689 913 l 558 1043 b 439 944 556 983 504 944 b 319 1043 374 944 322 983 l 183 1043 b 439 832 189 913 294 832 z m 832 371 b 443 758 832 611 663 758 b 44 374 215 758 44 597 b 376 -3 44 179 172 31 l 344 -136 l 392 -136 b 460 -176 440 -136 460 -153 b 388 -221 460 -203 439 -221 b 297 -200 354 -221 324 -212 l 264 -293 b 393 -322 296 -311 344 -322 b 597 -185 517 -322 597 -269 b 476 -69 597 -128 561 -79 l 490 -11 b 779 110 615 -7 713 35 l 664 235 b 476 163 613 186 556 163 b 263 313 363 163 283 219 l 828 313 b 832 371 829 331 832 354 z m 444 594 b 628 439 542 594 613 533 l 260 439 b 444 594 275 535 346 594 z "},"ê":{"ha":876,"x_min":0,"x_max":0,"o":"m 439 949 l 560 843 l 718 843 l 535 1043 l 343 1043 l 160 843 l 318 843 z m 832 371 b 443 758 832 611 663 758 b 44 374 215 758 44 597 b 471 -11 44 151 213 -11 b 779 110 606 -11 710 31 l 664 235 b 476 163 613 186 556 163 b 263 313 363 163 283 219 l 828 313 b 832 371 829 331 832 354 z m 444 594 b 628 439 542 594 613 533 l 260 439 b 444 594 275 535 346 594 z "},"ế":{"ha":876,"x_min":0,"x_max":0,"o":"m 981 1144 l 760 1144 l 606 976 l 763 976 z m 439 922 l 558 843 l 718 843 l 533 1001 l 344 1001 l 160 843 l 319 843 z m 443 758 b 44 374 215 758 44 597 b 471 -11 44 151 213 -11 b 779 110 606 -11 710 31 l 664 235 b 476 163 613 186 556 163 b 263 313 363 163 283 219 l 828 313 b 832 371 829 331 832 354 b 443 758 832 611 663 758 z m 444 594 b 628 439 542 594 613 533 l 260 439 b 444 594 275 535 346 594 z "},"ệ":{"ha":876,"x_min":0,"x_max":0,"o":"m 439 949 l 560 843 l 718 843 l 535 1043 l 343 1043 l 160 843 l 318 843 z m 832 371 b 443 758 832 611 663 758 b 44 374 215 758 44 597 b 471 -11 44 151 213 -11 b 779 110 606 -11 710 31 l 664 235 b 476 163 613 186 556 163 b 263 313 363 163 283 219 l 828 313 b 832 371 829 331 832 354 z m 444 594 b 628 439 542 594 613 533 l 260 439 b 444 594 275 535 346 594 z m 439 -101 b 343 -199 385 -101 343 -142 b 439 -292 343 -256 385 -292 b 535 -199 493 -292 535 -256 b 439 -101 535 -142 493 -101 z "},"ề":{"ha":876,"x_min":0,"x_max":0,"o":"m 844 976 l 692 1144 l 471 1144 l 689 976 z m 439 922 l 558 843 l 718 843 l 533 1001 l 344 1001 l 160 843 l 319 843 z m 443 758 b 44 374 215 758 44 597 b 471 -11 44 151 213 -11 b 779 110 606 -11 710 31 l 664 235 b 476 163 613 186 556 163 b 263 313 363 163 283 219 l 828 313 b 832 371 829 331 832 354 b 443 758 832 611 663 758 z m 444 594 b 628 439 542 594 613 533 l 260 439 b 444 594 275 535 346 594 z "},"ể":{"ha":876,"x_min":0,"x_max":0,"o":"m 638 1100 b 685 1060 665 1100 685 1085 b 633 1001 685 1042 671 1019 l 686 950 b 783 1071 740 971 783 1015 b 656 1181 783 1138 733 1181 b 540 1150 614 1181 572 1171 l 576 1083 b 638 1100 597 1094 615 1100 z m 439 922 l 558 843 l 718 843 l 533 1001 l 344 1001 l 160 843 l 319 843 z m 832 371 b 443 758 832 611 663 758 b 44 374 215 758 44 597 b 471 -11 44 151 213 -11 b 779 110 606 -11 710 31 l 664 235 b 476 163 613 186 556 163 b 263 313 363 163 283 219 l 828 313 b 832 371 829 331 832 354 z m 444 594 b 628 439 542 594 613 533 l 260 439 b 444 594 275 535 346 594 z "},"ễ":{"ha":876,"x_min":0,"x_max":0,"o":"m 350 1122 b 542 1050 396 1122 446 1050 b 700 1222 640 1050 699 1115 l 592 1222 b 531 1160 589 1186 568 1160 b 339 1232 482 1160 432 1232 b 178 1058 240 1232 179 1169 l 289 1058 b 350 1122 292 1099 313 1122 z m 439 922 l 558 843 l 718 843 l 533 1001 l 344 1001 l 160 843 l 319 843 z m 832 371 b 443 758 832 611 663 758 b 44 374 215 758 44 597 b 471 -11 44 151 213 -11 b 779 110 606 -11 710 31 l 664 235 b 476 163 613 186 556 163 b 263 313 363 163 283 219 l 828 313 b 832 371 829 331 832 354 z m 444 594 b 628 439 542 594 613 533 l 260 439 b 444 594 275 535 346 594 z "},"ȅ":{"ha":876,"x_min":0,"x_max":0,"o":"m 378 843 l 278 1043 l 75 1043 l 219 843 z m 658 843 l 558 1043 l 356 1043 l 500 843 z m 832 371 b 443 758 832 611 663 758 b 44 374 215 758 44 597 b 471 -11 44 151 213 -11 b 779 110 606 -11 710 31 l 664 235 b 476 163 613 186 556 163 b 263 313 363 163 283 219 l 828 313 b 832 371 829 331 832 354 z m 444 594 b 628 439 542 594 613 533 l 260 439 b 444 594 275 535 346 594 z "},"ë":{"ha":876,"x_min":0,"x_max":0,"o":"m 299 850 b 394 946 353 850 394 889 b 299 1042 394 1003 353 1042 b 201 946 244 1042 201 1003 b 299 850 201 889 244 850 z m 579 850 b 676 946 633 850 676 889 b 579 1042 676 1003 633 1042 b 483 946 525 1042 483 1003 b 579 850 483 889 525 850 z m 832 371 b 443 758 832 611 663 758 b 44 374 215 758 44 597 b 471 -11 44 151 213 -11 b 779 110 606 -11 710 31 l 664 235 b 476 163 613 186 556 163 b 263 313 363 163 283 219 l 828 313 b 832 371 829 331 832 354 z m 444 594 b 628 439 542 594 613 533 l 260 439 b 444 594 275 535 346 594 z "},"ė":{"ha":876,"x_min":0,"x_max":0,"o":"m 439 850 b 556 968 507 850 556 900 b 439 1085 556 1035 507 1085 b 322 968 371 1085 322 1035 b 439 850 322 900 371 850 z m 832 371 b 443 758 832 611 663 758 b 44 374 215 758 44 597 b 471 -11 44 151 213 -11 b 779 110 606 -11 710 31 l 664 235 b 476 163 613 186 556 163 b 263 313 363 163 283 219 l 828 313 b 832 371 829 331 832 354 z m 444 594 b 628 439 542 594 613 533 l 260 439 b 444 594 275 535 346 594 z "},"ẹ":{"ha":876,"x_min":0,"x_max":0,"o":"m 832 371 b 443 758 832 611 663 758 b 44 374 215 758 44 597 b 471 -11 44 151 213 -11 b 779 110 606 -11 710 31 l 664 235 b 476 163 613 186 556 163 b 263 313 363 163 283 219 l 828 313 b 832 371 829 331 832 354 z m 444 594 b 628 439 542 594 613 533 l 260 439 b 444 594 275 535 346 594 z m 439 -101 b 343 -199 385 -101 343 -142 b 439 -292 343 -256 385 -292 b 535 -199 493 -292 535 -256 b 439 -101 535 -142 493 -101 z "},"è":{"ha":876,"x_min":0,"x_max":0,"o":"m 565 843 l 378 1043 l 144 1043 l 396 843 z m 832 371 b 443 758 832 611 663 758 b 44 374 215 758 44 597 b 471 -11 44 151 213 -11 b 779 110 606 -11 710 31 l 664 235 b 476 163 613 186 556 163 b 263 313 363 163 283 219 l 828 313 b 832 371 829 331 832 354 z m 444 594 b 628 439 542 594 613 533 l 260 439 b 444 594 275 535 346 594 z "},"ẻ":{"ha":876,"x_min":0,"x_max":0,"o":"m 418 1044 b 483 986 457 1044 483 1021 b 413 901 483 954 467 926 l 481 829 b 608 1004 565 868 608 925 b 442 1153 608 1093 540 1153 b 292 1106 386 1153 332 1138 l 336 1018 b 418 1044 364 1036 390 1044 z m 832 371 b 443 758 832 611 663 758 b 44 374 215 758 44 597 b 471 -11 44 151 213 -11 b 779 110 606 -11 710 31 l 664 235 b 476 163 613 186 556 163 b 263 313 363 163 283 219 l 828 313 b 832 371 829 331 832 354 z m 444 594 b 628 439 542 594 613 533 l 260 439 b 444 594 275 535 346 594 z "},"ȇ":{"ha":876,"x_min":0,"x_max":0,"o":"m 439 942 b 558 843 504 942 556 904 l 694 843 b 439 1054 689 974 583 1054 b 183 843 294 1054 189 974 l 319 843 b 439 942 322 904 374 942 z m 832 371 b 443 758 832 611 663 758 b 44 374 215 758 44 597 b 471 -11 44 151 213 -11 b 779 110 606 -11 710 31 l 664 235 b 476 163 613 186 556 163 b 263 313 363 163 283 219 l 828 313 b 832 371 829 331 832 354 z m 444 594 b 628 439 542 594 613 533 l 260 439 b 444 594 275 535 346 594 z "},"ē":{"ha":876,"x_min":0,"x_max":0,"o":"m 696 1004 l 182 1004 l 182 882 l 696 882 z m 832 371 b 443 758 832 611 663 758 b 44 374 215 758 44 597 b 471 -11 44 151 213 -11 b 779 110 606 -11 710 31 l 664 235 b 476 163 613 186 556 163 b 263 313 363 163 283 219 l 828 313 b 832 371 829 331 832 354 z m 444 594 b 628 439 542 594 613 533 l 260 439 b 444 594 275 535 346 594 z "},"ḗ":{"ha":876,"x_min":0,"x_max":0,"o":"m 694 1235 l 474 1235 l 319 1067 l 476 1067 z m 696 981 l 182 981 l 182 865 l 696 865 z m 832 371 b 443 758 832 611 663 758 b 44 374 215 758 44 597 b 471 -11 44 151 213 -11 b 779 110 606 -11 710 31 l 664 235 b 476 163 613 186 556 163 b 263 313 363 163 283 219 l 828 313 b 832 371 829 331 832 354 z m 444 594 b 628 439 542 594 613 533 l 260 439 b 444 594 275 535 346 594 z "},"ḕ":{"ha":876,"x_min":0,"x_max":0,"o":"m 558 1067 l 406 1235 l 185 1235 l 403 1067 z m 696 981 l 182 981 l 182 865 l 696 865 z m 832 371 b 443 758 832 611 663 758 b 44 374 215 758 44 597 b 471 -11 44 151 213 -11 b 779 110 606 -11 710 31 l 664 235 b 476 163 613 186 556 163 b 263 313 363 163 283 219 l 828 313 b 832 371 829 331 832 354 z m 444 594 b 628 439 542 594 613 533 l 260 439 b 444 594 275 535 346 594 z "},"ę":{"ha":876,"x_min":0,"x_max":0,"o":"m 832 371 b 443 758 832 611 663 758 b 44 374 215 758 44 597 b 471 -11 44 151 213 -11 b 500 -10 481 -11 490 -11 b 432 -161 456 -54 432 -110 b 624 -322 432 -260 504 -322 b 764 -290 675 -322 729 -308 l 732 -192 b 650 -212 710 -204 678 -212 b 569 -142 601 -212 569 -187 b 724 60 569 -89 599 -32 b 781 110 746 75 764 92 l 664 235 b 476 163 613 186 556 163 b 263 313 363 163 283 219 l 828 313 b 832 371 829 331 832 354 z m 444 594 b 628 439 542 594 613 533 l 260 439 b 444 594 275 535 346 594 z "},"ẽ":{"ha":876,"x_min":0,"x_max":0,"o":"m 349 926 b 543 839 399 926 447 839 b 706 1038 640 839 703 918 l 596 1038 b 529 963 593 992 567 963 b 335 1051 479 963 431 1051 b 172 849 238 1051 175 972 l 282 849 b 349 926 285 899 311 926 z m 832 371 b 443 758 832 611 663 758 b 44 374 215 758 44 597 b 471 -11 44 151 213 -11 b 779 110 606 -11 710 31 l 664 235 b 476 163 613 186 556 163 b 263 313 363 163 283 219 l 828 313 b 832 371 829 331 832 354 z m 444 594 b 628 439 542 594 613 533 l 260 439 b 444 594 275 535 346 594 z "},"ə":{"ha":876,"x_min":0,"x_max":0,"o":"m 406 758 b 97 638 271 758 167 717 l 213 513 b 400 585 264 561 321 585 b 614 435 514 585 593 528 l 49 435 b 44 376 47 417 44 393 b 433 -11 44 136 214 -11 b 832 374 661 -11 832 150 b 406 758 832 596 664 758 z m 432 153 b 249 308 335 153 264 214 l 617 308 b 432 153 601 213 531 153 z "},"ʒ":{"ha":769,"x_min":0,"x_max":0,"o":"m 465 333 l 689 601 l 689 747 l 14 747 l 14 568 l 435 568 l 229 321 l 229 176 l 332 176 b 513 43 458 176 513 124 b 329 -93 513 -43 444 -93 b 51 1 228 -93 124 -58 l -25 -172 b 338 -281 63 -240 200 -281 b 736 43 611 -281 736 -128 b 465 333 736 196 644 307 z "},"ǯ":{"ha":769,"x_min":0,"x_max":0,"o":"m 436 843 l 619 1043 l 461 1043 l 340 939 l 219 1043 l 61 1043 l 244 843 z m 465 333 l 689 601 l 689 747 l 14 747 l 14 568 l 435 568 l 229 321 l 229 176 l 332 176 b 513 43 458 176 513 124 b 329 -93 513 -43 444 -93 b 51 1 228 -93 124 -58 l -25 -172 b 338 -281 63 -240 200 -281 b 736 43 611 -281 736 -128 b 465 333 736 196 644 307 z "},"f":{"ha":538,"x_min":0,"x_max":0,"o":"m 338 763 b 436 871 338 836 372 871 b 524 844 469 871 500 861 l 581 1001 b 415 1042 540 1029 476 1042 b 126 764 229 1042 126 932 l 126 731 l 11 731 l 11 564 l 126 564 l 126 0 l 343 0 l 343 564 l 529 564 l 529 731 l 338 731 z "},"g":{"ha":972,"x_min":0,"x_max":0,"o":"m 665 747 l 665 651 b 418 758 608 724 522 758 b 44 397 211 758 44 615 b 418 36 44 179 211 36 b 654 129 515 36 597 67 l 654 97 b 435 -107 654 -37 588 -107 b 171 -22 339 -107 235 -74 l 85 -178 b 451 -281 172 -246 310 -281 b 871 125 721 -281 871 -153 l 871 747 z m 461 214 b 264 397 347 214 264 288 b 461 581 264 507 347 581 b 657 397 575 581 657 507 b 461 214 657 288 575 214 z "},"ğ":{"ha":972,"x_min":0,"x_max":0,"o":"m 474 832 b 729 1043 618 832 724 913 l 593 1043 b 474 944 590 983 539 944 b 354 1043 408 944 357 983 l 218 1043 b 474 832 224 913 329 832 z m 665 747 l 665 651 b 418 758 608 724 522 758 b 44 397 211 758 44 615 b 418 36 44 179 211 36 b 654 129 515 36 597 67 l 654 97 b 435 -107 654 -37 588 -107 b 171 -22 339 -107 235 -74 l 85 -178 b 451 -281 172 -246 310 -281 b 871 125 721 -281 871 -153 l 871 747 z m 461 214 b 264 397 347 214 264 288 b 461 581 264 507 347 581 b 657 397 575 581 657 507 b 461 214 657 288 575 214 z "},"ǧ":{"ha":972,"x_min":0,"x_max":0,"o":"m 569 843 l 753 1043 l 594 1043 l 474 939 l 353 1043 l 194 1043 l 378 843 z m 665 747 l 665 651 b 418 758 608 724 522 758 b 44 397 211 758 44 615 b 418 36 44 179 211 36 b 654 129 515 36 597 67 l 654 97 b 435 -107 654 -37 588 -107 b 171 -22 339 -107 235 -74 l 85 -178 b 451 -281 172 -246 310 -281 b 871 125 721 -281 871 -153 l 871 747 z m 461 214 b 264 397 347 214 264 288 b 461 581 264 507 347 581 b 657 397 575 581 657 507 b 461 214 657 288 575 214 z "},"ĝ":{"ha":972,"x_min":0,"x_max":0,"o":"m 474 949 l 594 843 l 753 843 l 569 1043 l 378 1043 l 194 843 l 353 843 z m 665 747 l 665 651 b 418 758 608 724 522 758 b 44 397 211 758 44 615 b 418 36 44 179 211 36 b 654 129 515 36 597 67 l 654 97 b 435 -107 654 -37 588 -107 b 171 -22 339 -107 235 -74 l 85 -178 b 451 -281 172 -246 310 -281 b 871 125 721 -281 871 -153 l 871 747 z m 461 214 b 264 397 347 214 264 288 b 461 581 264 507 347 581 b 657 397 575 581 657 507 b 461 214 657 288 575 214 z "},"ģ":{"ha":972,"x_min":0,"x_max":0,"o":"m 474 832 b 583 915 547 832 583 865 b 525 989 583 951 564 978 l 572 1129 l 456 1129 l 393 1004 b 364 915 371 963 364 938 b 474 832 364 867 400 832 z m 665 747 l 665 651 b 418 758 608 724 522 758 b 44 397 211 758 44 615 b 418 36 44 179 211 36 b 654 129 515 36 597 67 l 654 97 b 435 -107 654 -37 588 -107 b 171 -22 339 -107 235 -74 l 85 -178 b 451 -281 172 -246 310 -281 b 871 125 721 -281 871 -153 l 871 747 z m 461 214 b 264 397 347 214 264 288 b 461 581 264 507 347 581 b 657 397 575 581 657 507 b 461 214 657 288 575 214 z "},"ġ":{"ha":972,"x_min":0,"x_max":0,"o":"m 474 850 b 590 968 542 850 590 900 b 474 1085 590 1035 542 1085 b 357 968 406 1085 357 1035 b 474 850 357 900 406 850 z m 665 747 l 665 651 b 418 758 608 724 522 758 b 44 397 211 758 44 615 b 418 36 44 179 211 36 b 654 129 515 36 597 67 l 654 97 b 435 -107 654 -37 588 -107 b 171 -22 339 -107 235 -74 l 85 -178 b 451 -281 172 -246 310 -281 b 871 125 721 -281 871 -153 l 871 747 z m 461 214 b 264 397 347 214 264 288 b 461 581 264 507 347 581 b 657 397 575 581 657 507 b 461 214 657 288 575 214 z "},"ḡ":{"ha":972,"x_min":0,"x_max":0,"o":"m 731 1004 l 217 1004 l 217 882 l 731 882 z m 665 747 l 665 651 b 418 758 608 724 522 758 b 44 397 211 758 44 615 b 418 36 44 179 211 36 b 654 129 515 36 597 67 l 654 97 b 435 -107 654 -37 588 -107 b 171 -22 339 -107 235 -74 l 85 -178 b 451 -281 172 -246 310 -281 b 871 125 721 -281 871 -153 l 871 747 z m 461 214 b 264 397 347 214 264 288 b 461 581 264 507 347 581 b 657 397 575 581 657 507 b 461 214 657 288 575 214 z "},"ǥ":{"ha":988,"x_min":0,"x_max":0,"o":"m 960 54 l 867 54 b 871 125 869 76 871 100 l 871 747 l 665 747 l 665 654 b 413 757 607 724 517 757 b 44 425 197 757 44 621 b 413 90 44 228 197 90 b 654 181 511 90 596 119 l 654 92 b 653 53 654 78 654 65 l 379 53 l 379 -53 l 610 -53 b 436 -112 574 -93 517 -112 b 171 -28 338 -112 233 -79 l 85 -178 b 449 -281 171 -244 308 -281 b 844 -53 657 -281 790 -206 l 960 -53 z m 461 251 b 264 425 344 251 264 319 b 461 597 264 529 344 597 b 657 425 578 597 657 529 b 461 251 657 319 578 251 z "},"h":{"ha":960,"x_min":0,"x_max":0,"o":"m 554 758 b 317 669 458 758 375 728 l 317 1031 l 100 1031 l 100 0 l 317 0 l 317 369 b 496 571 317 507 392 571 b 647 394 592 571 647 515 l 647 0 l 864 0 l 864 428 b 554 758 864 656 731 758 z "},"ħ":{"ha":960,"x_min":0,"x_max":0,"o":"m 554 758 b 317 669 458 758 375 728 l 317 824 l 572 824 l 572 949 l 317 949 l 317 1031 l 100 1031 l 100 949 l 0 949 l 0 824 l 100 824 l 100 0 l 317 0 l 317 369 b 496 571 317 507 392 571 b 647 394 592 571 647 515 l 647 0 l 864 0 l 864 428 b 554 758 864 656 731 758 z "},"ḫ":{"ha":960,"x_min":0,"x_max":0,"o":"m 554 758 b 317 669 458 758 375 728 l 317 1031 l 100 1031 l 100 0 l 317 0 l 317 369 b 496 571 317 507 392 571 b 647 394 592 571 647 515 l 647 0 l 864 0 l 864 428 b 554 758 864 656 731 758 z m 483 -196 b 357 -103 413 -196 360 -160 l 228 -103 b 483 -301 235 -222 339 -301 b 739 -103 628 -301 732 -222 l 610 -103 b 483 -196 607 -160 554 -196 z "},"ȟ":{"ha":960,"x_min":0,"x_max":0,"o":"m 304 1126 l 488 1326 l 329 1326 l 208 1222 l 88 1326 l -71 1326 l 113 1126 z m 554 758 b 317 669 458 758 375 728 l 317 1031 l 100 1031 l 100 0 l 317 0 l 317 369 b 496 571 317 507 392 571 b 647 394 592 571 647 515 l 647 0 l 864 0 l 864 428 b 554 758 864 656 731 758 z "},"ĥ":{"ha":960,"x_min":0,"x_max":0,"o":"m 329 1110 l 488 1110 l 304 1310 l 113 1310 l -71 1110 l 88 1110 l 208 1215 z m 554 758 b 317 669 458 758 375 728 l 317 1031 l 100 1031 l 100 0 l 317 0 l 317 369 b 496 571 317 507 392 571 b 647 394 592 571 647 515 l 647 0 l 864 0 l 864 428 b 554 758 864 656 731 758 z "},"ḥ":{"ha":960,"x_min":0,"x_max":0,"o":"m 554 758 b 317 669 458 758 375 728 l 317 1031 l 100 1031 l 100 0 l 317 0 l 317 369 b 496 571 317 507 392 571 b 647 394 592 571 647 515 l 647 0 l 864 0 l 864 428 b 554 758 864 656 731 758 z m 483 -101 b 388 -199 429 -101 388 -142 b 483 -292 388 -256 429 -292 b 579 -199 538 -292 579 -256 b 483 -101 579 -142 538 -101 z "},"i":{"ha":418,"x_min":0,"x_max":0,"o":"m 208 851 b 343 976 289 851 343 904 b 208 1093 343 1043 289 1093 b 74 972 128 1093 74 1040 b 208 851 74 904 128 851 z m 100 0 l 317 0 l 317 747 l 100 747 z "},"ı":{"ha":418,"x_min":0,"x_max":0,"o":"m 100 0 l 317 0 l 317 747 l 100 747 z "},"í":{"ha":418,"x_min":0,"x_max":0,"o":"m 82 843 l 251 843 l 503 1043 l 269 1043 z m 100 0 l 317 0 l 317 747 l 100 747 z "},"ĭ":{"ha":418,"x_min":0,"x_max":0,"o":"m 208 832 b 429 1043 335 832 428 913 l 299 1043 b 208 943 299 983 265 943 b 118 1043 151 943 118 983 l -12 1043 b 208 832 -11 913 82 832 z m 100 0 l 317 0 l 317 747 l 100 747 z "},"î":{"ha":418,"x_min":0,"x_max":0,"o":"m 208 940 l 299 843 l 453 843 l 301 1043 l 115 1043 l -36 843 l 118 843 z m 100 0 l 317 0 l 317 747 l 100 747 z "},"ȉ":{"ha":418,"x_min":0,"x_max":0,"o":"m -11 843 l 147 843 l 47 1043 l -156 1043 z m 269 843 l 428 843 l 328 1043 l 125 1043 z m 100 0 l 317 0 l 317 747 l 100 747 z "},"ï":{"ha":418,"x_min":0,"x_max":0,"o":"m 94 851 b 186 946 146 851 186 890 b 94 1040 186 1001 146 1040 b 4 946 43 1040 4 1001 b 94 851 4 890 43 851 z m 322 851 b 413 946 374 851 413 890 b 322 1040 413 1001 374 1040 b 231 946 271 1040 231 1001 b 322 851 231 890 271 851 z m 100 0 l 317 0 l 317 747 l 100 747 z "},"ḯ":{"ha":418,"x_min":0,"x_max":0,"o":"m 89 1067 l 246 1067 l 464 1235 l 243 1235 z m 72 850 b 165 942 125 850 165 888 b 72 1033 165 994 125 1033 b -19 942 21 1033 -19 994 b 72 850 -19 888 21 850 z m 344 850 b 436 942 396 850 436 888 b 344 1033 436 994 396 1033 b 253 942 294 1033 253 994 b 344 850 253 888 294 850 z m 100 0 l 317 0 l 317 747 l 100 747 z "},"ị":{"ha":418,"x_min":0,"x_max":0,"o":"m 208 851 b 343 976 289 851 343 904 b 208 1093 343 1043 289 1093 b 74 972 128 1093 74 1040 b 208 851 74 904 128 851 z m 100 0 l 317 0 l 317 747 l 100 747 z m 208 -292 b 304 -199 263 -292 304 -256 b 208 -101 304 -142 263 -101 b 113 -199 154 -101 113 -142 b 208 -292 113 -256 154 -292 z "},"ì":{"ha":418,"x_min":0,"x_max":0,"o":"m 165 843 l 335 843 l 147 1043 l -86 1043 z m 100 0 l 317 0 l 317 747 l 100 747 z "},"ỉ":{"ha":418,"x_min":0,"x_max":0,"o":"m 250 829 b 378 1004 335 868 378 925 b 211 1153 378 1093 310 1153 b 61 1106 156 1153 101 1138 l 106 1018 b 188 1044 133 1036 160 1044 b 253 986 226 1044 253 1021 b 182 901 253 954 236 926 z m 100 0 l 317 0 l 317 747 l 100 747 z "},"ȋ":{"ha":418,"x_min":0,"x_max":0,"o":"m -12 843 l 118 843 b 208 943 118 904 151 943 b 299 843 265 943 299 904 l 429 843 b 208 1054 428 974 335 1054 b -12 843 82 1054 -11 974 z m 100 0 l 317 0 l 317 747 l 100 747 z "},"ĳ":{"ha":844,"x_min":0,"x_max":0,"o":"m 208 851 b 343 976 289 851 343 904 b 208 1093 343 1043 289 1093 b 74 972 128 1093 74 1040 b 208 851 74 904 128 851 z m 636 851 b 771 976 717 851 771 904 b 636 1093 771 1043 717 1093 b 501 972 556 1093 501 1040 b 636 851 501 904 556 851 z m 100 0 l 317 0 l 317 747 l 100 747 z m 463 -281 b 744 1 643 -281 744 -171 l 744 747 l 528 747 l 528 0 b 439 -108 528 -74 493 -108 b 347 -82 403 -108 371 -99 l 289 -239 b 463 -281 331 -268 396 -281 z "},"ī":{"ha":418,"x_min":0,"x_max":0,"o":"m 0 882 l 417 882 l 417 1004 l 0 1004 z m 100 0 l 317 0 l 317 747 l 100 747 z "},"į":{"ha":418,"x_min":0,"x_max":0,"o":"m 208 851 b 343 976 289 851 343 904 b 208 1093 343 1043 289 1093 b 74 972 128 1093 74 1040 b 208 851 74 904 128 851 z m 329 -199 b 285 -212 315 -208 300 -212 b 226 -147 253 -212 226 -187 b 317 0 226 -103 246 -57 l 317 747 l 100 747 l 100 0 l 171 0 b 90 -168 117 -50 90 -107 b 257 -322 90 -261 157 -322 b 360 -293 297 -322 335 -311 z "},"ĩ":{"ha":418,"x_min":0,"x_max":0,"o":"m 300 839 b 438 1038 388 839 438 908 l 329 1038 b 286 961 329 989 314 961 b 117 1051 246 961 206 1051 b -21 849 29 1051 -21 982 l 88 849 b 131 929 88 900 103 929 b 300 839 171 929 211 839 z m 100 0 l 317 0 l 317 747 l 100 747 z "},"j":{"ha":426,"x_min":0,"x_max":0,"o":"m 218 851 b 353 976 299 851 353 904 b 218 1093 353 1043 299 1093 b 83 972 138 1093 83 1040 b 218 851 83 904 138 851 z m 44 -281 b 326 1 225 -281 326 -171 l 326 747 l 110 747 l 110 0 b 21 -108 110 -74 75 -108 b -71 -82 -15 -108 -47 -99 l -129 -239 b 44 -281 -87 -268 -22 -281 z "},"ȷ":{"ha":426,"x_min":0,"x_max":0,"o":"m 44 -281 b 326 1 225 -281 326 -171 l 326 747 l 110 747 l 110 0 b 21 -108 110 -74 75 -108 b -71 -82 -15 -108 -47 -99 l -129 -239 b 44 -281 -87 -268 -22 -281 z "},"ĵ":{"ha":426,"x_min":0,"x_max":0,"o":"m 218 940 l 308 843 l 463 843 l 311 1043 l 125 1043 l -26 843 l 128 843 z m 110 0 b 21 -108 110 -74 75 -108 b -71 -82 -15 -108 -47 -99 l -129 -239 b 44 -281 -87 -268 -22 -281 b 326 1 225 -281 326 -171 l 326 747 l 110 747 z "},"k":{"ha":917,"x_min":0,"x_max":0,"o":"m 657 0 l 919 0 l 581 431 l 892 747 l 633 747 l 317 447 l 317 1031 l 100 1031 l 100 0 l 317 0 l 317 190 l 421 293 z "},"ǩ":{"ha":917,"x_min":0,"x_max":0,"o":"m 304 1126 l 488 1326 l 329 1326 l 208 1222 l 88 1326 l -71 1326 l 113 1126 z m 657 0 l 919 0 l 581 431 l 892 747 l 633 747 l 317 447 l 317 1031 l 100 1031 l 100 0 l 317 0 l 317 190 l 421 293 z "},"ķ":{"ha":917,"x_min":0,"x_max":0,"o":"m 581 431 l 892 747 l 633 747 l 317 447 l 317 1031 l 100 1031 l 100 0 l 317 0 l 317 190 l 421 293 l 657 0 l 919 0 z m 442 -101 b 346 -185 382 -101 346 -136 b 397 -258 346 -221 364 -247 l 363 -369 l 464 -369 l 513 -275 b 538 -185 533 -236 538 -207 b 442 -101 538 -136 501 -101 z "},"ĸ":{"ha":896,"x_min":0,"x_max":0,"o":"m 657 0 l 919 0 l 581 431 l 892 747 l 633 747 l 317 447 l 317 747 l 100 747 l 100 0 l 317 0 l 317 190 l 421 293 z "},"l":{"ha":418,"x_min":0,"x_max":0,"o":"m 100 0 l 317 0 l 317 1031 l 100 1031 z "},"ĺ":{"ha":418,"x_min":0,"x_max":0,"o":"m 82 1126 l 251 1126 l 503 1326 l 269 1326 z m 100 0 l 317 0 l 317 1031 l 100 1031 z "},"ľ":{"ha":418,"x_min":0,"x_max":0,"o":"m 428 808 l 563 808 l 590 1088 l 428 1088 z m 100 0 l 317 0 l 317 1031 l 100 1031 z "},"ļ":{"ha":418,"x_min":0,"x_max":0,"o":"m 100 1031 l 100 0 l 317 0 l 317 1031 z m 208 -101 b 113 -185 149 -101 113 -136 b 164 -258 113 -221 131 -247 l 129 -369 l 231 -369 l 279 -275 b 304 -185 300 -236 304 -207 b 208 -101 304 -136 268 -101 z "},"ŀ":{"ha":583,"x_min":0,"x_max":0,"o":"m 100 0 l 317 0 l 317 1031 l 100 1031 z m 500 394 b 610 504 564 394 610 442 b 500 613 610 567 564 613 b 392 504 438 613 392 567 b 500 394 392 442 438 394 z "},"ḷ":{"ha":418,"x_min":0,"x_max":0,"o":"m 100 0 l 317 0 l 317 1031 l 100 1031 z m 208 -292 b 304 -199 263 -292 304 -256 b 208 -101 304 -142 263 -101 b 113 -199 154 -101 113 -142 b 208 -292 113 -256 154 -292 z "},"ǉ":{"ha":844,"x_min":0,"x_max":0,"o":"m 636 851 b 771 976 717 851 771 904 b 636 1093 771 1043 717 1093 b 501 972 556 1093 501 1040 b 636 851 501 904 556 851 z m 100 0 l 317 0 l 317 1031 l 100 1031 z m 463 -281 b 744 1 643 -281 744 -171 l 744 747 l 528 747 l 528 0 b 439 -108 528 -74 493 -108 b 347 -82 403 -108 371 -99 l 289 -239 b 463 -281 331 -268 396 -281 z "},"ḻ":{"ha":418,"x_min":0,"x_max":0,"o":"m 100 0 l 317 0 l 317 1031 l 100 1031 z m -49 -253 l 465 -253 l 465 -132 l -49 -132 z "},"ł":{"ha":454,"x_min":0,"x_max":0,"o":"m 490 618 l 411 729 l 335 672 l 335 1031 l 118 1031 l 118 508 l -39 390 l 42 282 l 118 339 l 118 0 l 335 0 l 335 501 z "},"m":{"ha":1457,"x_min":0,"x_max":0,"o":"m 1057 758 b 788 636 944 758 847 713 b 542 758 735 718 646 758 b 307 661 446 758 363 725 l 307 747 l 100 747 l 100 0 l 317 0 l 317 375 b 481 571 317 508 385 571 b 622 394 571 571 622 515 l 622 0 l 839 0 l 839 375 b 1004 571 839 508 907 571 b 1146 394 1092 571 1146 515 l 1146 0 l 1363 0 l 1363 428 b 1057 758 1363 656 1235 758 z "},"ṃ":{"ha":1457,"x_min":0,"x_max":0,"o":"m 1057 758 b 788 636 944 758 847 713 b 542 758 735 718 646 758 b 307 661 446 758 363 725 l 307 747 l 100 747 l 100 0 l 317 0 l 317 375 b 481 571 317 508 385 571 b 622 394 571 571 622 515 l 622 0 l 839 0 l 839 375 b 1004 571 839 508 907 571 b 1146 394 1092 571 1146 515 l 1146 0 l 1363 0 l 1363 428 b 1057 758 1363 656 1235 758 z m 729 -101 b 633 -199 675 -101 633 -142 b 729 -292 633 -256 675 -292 b 825 -199 783 -292 825 -256 b 729 -101 825 -142 783 -101 z "},"n":{"ha":960,"x_min":0,"x_max":0,"o":"m 554 758 b 307 660 453 758 365 724 l 307 747 l 100 747 l 100 0 l 317 0 l 317 369 b 496 571 317 507 392 571 b 647 394 592 571 647 515 l 647 0 l 864 0 l 864 428 b 554 758 864 656 731 758 z "},"ń":{"ha":960,"x_min":0,"x_max":0,"o":"m 778 1043 l 544 1043 l 357 843 l 526 843 z m 554 758 b 307 660 453 758 365 724 l 307 747 l 100 747 l 100 0 l 317 0 l 317 369 b 496 571 317 507 392 571 b 647 394 592 571 647 515 l 647 0 l 864 0 l 864 428 b 554 758 864 656 731 758 z "},"ŉ":{"ha":1139,"x_min":0,"x_max":0,"o":"m 57 608 l 171 608 l 201 972 l 60 972 z m 735 758 b 488 660 633 758 546 724 l 488 747 l 281 747 l 281 0 l 497 0 l 497 369 b 676 571 497 507 572 571 b 828 394 772 571 828 515 l 828 0 l 1044 0 l 1044 428 b 735 758 1044 656 911 758 z "},"ň":{"ha":960,"x_min":0,"x_max":0,"o":"m 579 843 l 763 1043 l 604 1043 l 483 939 l 363 1043 l 204 1043 l 388 843 z m 554 758 b 307 660 453 758 365 724 l 307 747 l 100 747 l 100 0 l 317 0 l 317 369 b 496 571 317 507 392 571 b 647 394 592 571 647 515 l 647 0 l 864 0 l 864 428 b 554 758 864 656 731 758 z "},"ņ":{"ha":960,"x_min":0,"x_max":0,"o":"m 554 758 b 307 660 453 758 365 724 l 307 747 l 100 747 l 100 0 l 317 0 l 317 369 b 496 571 317 507 392 571 b 647 394 592 571 647 515 l 647 0 l 864 0 l 864 428 b 554 758 864 656 731 758 z m 483 -101 b 388 -185 424 -101 388 -136 b 439 -258 388 -221 406 -247 l 404 -369 l 506 -369 l 554 -275 b 579 -185 575 -236 579 -207 b 483 -101 579 -136 543 -101 z "},"ṅ":{"ha":960,"x_min":0,"x_max":0,"o":"m 483 850 b 600 968 551 850 600 900 b 483 1085 600 1035 551 1085 b 367 968 415 1085 367 1035 b 483 850 367 900 415 850 z m 554 758 b 307 660 453 758 365 724 l 307 747 l 100 747 l 100 0 l 317 0 l 317 369 b 496 571 317 507 392 571 b 647 394 592 571 647 515 l 647 0 l 864 0 l 864 428 b 554 758 864 656 731 758 z "},"ṇ":{"ha":960,"x_min":0,"x_max":0,"o":"m 554 758 b 307 660 453 758 365 724 l 307 747 l 100 747 l 100 0 l 317 0 l 317 369 b 496 571 317 507 392 571 b 647 394 592 571 647 515 l 647 0 l 864 0 l 864 428 b 554 758 864 656 731 758 z m 483 -101 b 388 -199 429 -101 388 -142 b 483 -292 388 -256 429 -292 b 579 -199 538 -292 579 -256 b 483 -101 579 -142 538 -101 z "},"ŋ":{"ha":960,"x_min":0,"x_max":0,"o":"m 554 758 b 307 660 453 758 365 724 l 307 747 l 100 747 l 100 0 l 317 0 l 317 369 b 496 571 317 507 392 571 b 647 394 592 571 647 515 l 647 0 b 558 -108 647 -74 614 -108 b 467 -82 524 -108 490 -99 l 408 -239 b 583 -281 451 -268 517 -281 b 864 1 763 -281 864 -171 l 864 428 b 554 758 864 656 731 758 z "},"ǌ":{"ha":1386,"x_min":0,"x_max":0,"o":"m 1178 851 b 1313 976 1258 851 1313 904 b 1178 1093 1313 1043 1258 1093 b 1043 972 1097 1093 1043 1040 b 1178 851 1043 904 1097 851 z m 864 0 l 864 428 b 554 758 864 656 731 758 b 307 660 453 758 365 724 l 307 747 l 100 747 l 100 0 l 317 0 l 317 369 b 496 571 317 507 392 571 b 647 394 592 571 647 515 l 647 0 z m 1069 0 b 981 -108 1069 -74 1035 -108 b 889 -82 944 -108 913 -99 l 831 -239 b 1004 -281 872 -268 938 -281 b 1286 1 1185 -281 1286 -171 l 1286 747 l 1069 747 z "},"ṉ":{"ha":960,"x_min":0,"x_max":0,"o":"m 554 758 b 307 660 453 758 365 724 l 307 747 l 100 747 l 100 0 l 317 0 l 317 369 b 496 571 317 507 392 571 b 647 394 592 571 647 515 l 647 0 l 864 0 l 864 428 b 554 758 864 656 731 758 z m 226 -253 l 740 -253 l 740 -132 l 226 -132 z "},"ñ":{"ha":960,"x_min":0,"x_max":0,"o":"m 393 926 b 588 839 443 926 492 839 b 750 1038 685 839 747 918 l 640 1038 b 574 963 638 992 611 963 b 379 1051 524 963 475 1051 b 217 849 282 1051 219 972 l 326 849 b 393 926 329 899 356 926 z m 554 758 b 307 660 453 758 365 724 l 307 747 l 100 747 l 100 0 l 317 0 l 317 369 b 496 571 317 507 392 571 b 647 394 592 571 647 515 l 647 0 l 864 0 l 864 428 b 554 758 864 656 731 758 z "},"o":{"ha":910,"x_min":0,"x_max":0,"o":"m 456 -11 b 865 374 693 -11 865 149 b 456 758 865 599 693 758 b 44 374 218 758 44 599 b 456 -11 44 149 218 -11 z m 456 167 b 264 374 347 167 264 244 b 456 581 264 503 347 581 b 646 374 564 581 646 503 b 456 167 646 244 564 167 z "},"ó":{"ha":910,"x_min":0,"x_max":0,"o":"m 326 843 l 496 843 l 747 1043 l 514 1043 z m 456 -11 b 865 374 693 -11 865 149 b 456 758 865 599 693 758 b 44 374 218 758 44 599 b 456 -11 44 149 218 -11 z m 456 167 b 264 374 347 167 264 244 b 456 581 264 503 347 581 b 646 374 564 581 646 503 b 456 167 646 244 564 167 z "},"ŏ":{"ha":910,"x_min":0,"x_max":0,"o":"m 453 832 b 708 1043 597 832 703 913 l 572 1043 b 453 944 569 983 518 944 b 333 1043 388 944 336 983 l 197 1043 b 453 832 203 913 308 832 z m 456 -11 b 865 374 693 -11 865 149 b 456 758 865 599 693 758 b 44 374 218 758 44 599 b 456 -11 44 149 218 -11 z m 456 167 b 264 374 347 167 264 244 b 456 581 264 503 347 581 b 646 374 564 581 646 503 b 456 167 646 244 564 167 z "},"ô":{"ha":910,"x_min":0,"x_max":0,"o":"m 453 949 l 574 843 l 732 843 l 549 1043 l 357 1043 l 174 843 l 332 843 z m 456 758 b 44 374 218 758 44 599 b 456 -11 44 149 218 -11 b 865 374 693 -11 865 149 b 456 758 865 599 693 758 z m 456 167 b 264 374 347 167 264 244 b 456 581 264 503 347 581 b 646 374 564 581 646 503 b 456 167 646 244 564 167 z "},"ố":{"ha":910,"x_min":0,"x_max":0,"o":"m 994 1144 l 774 1144 l 619 976 l 776 976 z m 453 922 l 572 843 l 732 843 l 547 1001 l 358 1001 l 174 843 l 333 843 z m 456 758 b 44 374 218 758 44 599 b 456 -11 44 149 218 -11 b 865 374 693 -11 865 149 b 456 758 865 599 693 758 z m 456 167 b 264 374 347 167 264 244 b 456 581 264 503 347 581 b 646 374 564 581 646 503 b 456 167 646 244 564 167 z "},"ộ":{"ha":910,"x_min":0,"x_max":0,"o":"m 453 949 l 574 843 l 732 843 l 549 1043 l 357 1043 l 174 843 l 332 843 z m 456 758 b 44 374 218 758 44 599 b 456 -11 44 149 218 -11 b 865 374 693 -11 865 149 b 456 758 865 599 693 758 z m 456 167 b 264 374 347 167 264 244 b 456 581 264 503 347 581 b 646 374 564 581 646 503 b 456 167 646 244 564 167 z m 453 -101 b 357 -199 399 -101 357 -142 b 453 -292 357 -256 399 -292 b 549 -199 507 -292 549 -256 b 453 -101 549 -142 507 -101 z "},"ồ":{"ha":910,"x_min":0,"x_max":0,"o":"m 858 976 l 706 1144 l 485 1144 l 703 976 z m 453 922 l 572 843 l 732 843 l 547 1001 l 358 1001 l 174 843 l 333 843 z m 456 758 b 44 374 218 758 44 599 b 456 -11 44 149 218 -11 b 865 374 693 -11 865 149 b 456 758 865 599 693 758 z m 456 167 b 264 374 347 167 264 244 b 456 581 264 503 347 581 b 646 374 564 581 646 503 b 456 167 646 244 564 167 z "},"ổ":{"ha":910,"x_min":0,"x_max":0,"o":"m 651 1100 b 699 1060 679 1100 699 1085 b 647 1001 699 1042 685 1019 l 700 950 b 797 1071 754 971 797 1015 b 669 1181 797 1138 747 1181 b 554 1150 628 1181 586 1171 l 590 1083 b 651 1100 611 1094 629 1100 z m 453 922 l 572 843 l 732 843 l 547 1001 l 358 1001 l 174 843 l 333 843 z m 456 758 b 44 374 218 758 44 599 b 456 -11 44 149 218 -11 b 865 374 693 -11 865 149 b 456 758 865 599 693 758 z m 456 167 b 264 374 347 167 264 244 b 456 581 264 503 347 581 b 646 374 564 581 646 503 b 456 167 646 244 564 167 z "},"ỗ":{"ha":910,"x_min":0,"x_max":0,"o":"m 364 1122 b 556 1050 410 1122 460 1050 b 714 1222 654 1050 713 1115 l 606 1222 b 544 1160 603 1186 582 1160 b 353 1232 496 1160 446 1232 b 192 1058 254 1232 193 1169 l 303 1058 b 364 1122 306 1099 326 1122 z m 453 922 l 572 843 l 732 843 l 547 1001 l 358 1001 l 174 843 l 333 843 z m 456 758 b 44 374 218 758 44 599 b 456 -11 44 149 218 -11 b 865 374 693 -11 865 149 b 456 758 865 599 693 758 z m 456 167 b 264 374 347 167 264 244 b 456 581 264 503 347 581 b 646 374 564 581 646 503 b 456 167 646 244 564 167 z "},"ȍ":{"ha":910,"x_min":0,"x_max":0,"o":"m 233 843 l 392 843 l 292 1043 l 89 1043 z m 514 843 l 672 843 l 572 1043 l 369 1043 z m 456 -11 b 865 374 693 -11 865 149 b 456 758 865 599 693 758 b 44 374 218 758 44 599 b 456 -11 44 149 218 -11 z m 456 167 b 264 374 347 167 264 244 b 456 581 264 503 347 581 b 646 374 564 581 646 503 b 456 167 646 244 564 167 z "},"ö":{"ha":910,"x_min":0,"x_max":0,"o":"m 313 850 b 408 946 367 850 408 889 b 313 1042 408 1003 367 1042 b 215 946 258 1042 215 1003 b 313 850 215 889 258 850 z m 593 850 b 690 946 647 850 690 889 b 593 1042 690 1003 647 1042 b 497 946 539 1042 497 1003 b 593 850 497 889 539 850 z m 456 -11 b 865 374 693 -11 865 149 b 456 758 865 599 693 758 b 44 374 218 758 44 599 b 456 -11 44 149 218 -11 z m 456 167 b 264 374 347 167 264 244 b 456 581 264 503 347 581 b 646 374 564 581 646 503 b 456 167 646 244 564 167 z "},"ȫ":{"ha":910,"x_min":0,"x_max":0,"o":"m 196 1089 l 710 1089 l 710 1204 l 196 1204 z m 317 850 b 410 942 369 850 410 888 b 317 1033 410 994 369 1033 b 225 942 265 1033 225 994 b 317 850 225 888 265 850 z m 589 850 b 681 942 640 850 681 888 b 589 1033 681 994 640 1033 b 497 942 539 1033 497 994 b 589 850 497 888 539 850 z m 456 -11 b 865 374 693 -11 865 149 b 456 758 865 599 693 758 b 44 374 218 758 44 599 b 456 -11 44 149 218 -11 z m 456 167 b 264 374 347 167 264 244 b 456 581 264 503 347 581 b 646 374 564 581 646 503 b 456 167 646 244 564 167 z "},"ȱ":{"ha":910,"x_min":0,"x_max":0,"o":"m 196 1099 l 710 1099 l 710 1214 l 196 1214 z m 453 849 b 549 943 507 849 549 886 b 453 1039 549 1000 507 1039 b 357 943 399 1039 357 1000 b 453 849 357 886 399 849 z m 456 -11 b 865 374 693 -11 865 149 b 456 758 865 599 693 758 b 44 374 218 758 44 599 b 456 -11 44 149 218 -11 z m 456 167 b 264 374 347 167 264 244 b 456 581 264 503 347 581 b 646 374 564 581 646 503 b 456 167 646 244 564 167 z "},"ọ":{"ha":910,"x_min":0,"x_max":0,"o":"m 456 -11 b 865 374 693 -11 865 149 b 456 758 865 599 693 758 b 44 374 218 758 44 599 b 456 -11 44 149 218 -11 z m 456 167 b 264 374 347 167 264 244 b 456 581 264 503 347 581 b 646 374 564 581 646 503 b 456 167 646 244 564 167 z m 453 -292 b 549 -199 507 -292 549 -256 b 453 -101 549 -142 507 -101 b 357 -199 399 -101 357 -142 b 453 -292 357 -256 399 -292 z "},"ò":{"ha":910,"x_min":0,"x_max":0,"o":"m 410 843 l 579 843 l 392 1043 l 158 1043 z m 456 -11 b 865 374 693 -11 865 149 b 456 758 865 599 693 758 b 44 374 218 758 44 599 b 456 -11 44 149 218 -11 z m 456 167 b 264 374 347 167 264 244 b 456 581 264 503 347 581 b 646 374 564 581 646 503 b 456 167 646 244 564 167 z "},"ỏ":{"ha":910,"x_min":0,"x_max":0,"o":"m 494 829 b 622 1004 579 868 622 925 b 456 1153 622 1093 554 1153 b 306 1106 400 1153 346 1138 l 350 1018 b 432 1044 378 1036 404 1044 b 497 986 471 1044 497 1021 b 426 901 497 954 481 926 z m 456 -11 b 865 374 693 -11 865 149 b 456 758 865 599 693 758 b 44 374 218 758 44 599 b 456 -11 44 149 218 -11 z m 456 167 b 264 374 347 167 264 244 b 456 581 264 503 347 581 b 646 374 564 581 646 503 b 456 167 646 244 564 167 z "},"ơ":{"ha":910,"x_min":0,"x_max":0,"o":"m 750 649 b 856 828 817 683 856 747 b 808 967 856 882 836 929 l 682 919 b 711 836 699 897 711 868 b 622 746 711 785 682 746 b 457 758 571 746 529 758 b 44 374 218 758 44 599 b 456 -11 44 149 218 -11 b 865 374 693 -11 865 149 b 750 649 865 486 822 581 z m 456 167 b 264 374 347 167 264 244 b 456 581 264 503 347 581 b 646 374 564 581 646 503 b 456 167 646 244 563 167 z "},"ớ":{"ha":910,"x_min":0,"x_max":0,"o":"m 750 1043 l 517 1043 l 329 843 l 499 843 z m 750 649 b 856 828 817 683 856 747 b 808 967 856 882 836 929 l 682 919 b 711 836 699 897 711 868 b 622 746 711 785 682 746 b 457 758 571 746 529 758 b 44 374 218 758 44 599 b 456 -11 44 149 218 -11 b 865 374 693 -11 865 149 b 750 649 865 486 822 581 z m 456 167 b 264 374 347 167 264 244 b 456 581 264 503 347 581 b 646 374 564 581 646 503 b 456 167 646 244 563 167 z "},"ợ":{"ha":910,"x_min":0,"x_max":0,"o":"m 750 649 b 856 828 817 683 856 747 b 808 967 856 882 836 929 l 682 919 b 711 836 699 897 711 868 b 622 746 711 785 682 746 b 457 758 571 746 529 758 b 44 374 218 758 44 599 b 456 -11 44 149 218 -11 b 865 374 693 -11 865 149 b 750 649 865 486 822 581 z m 456 167 b 264 374 347 167 264 244 b 456 581 264 503 347 581 b 646 374 564 581 646 503 b 456 167 646 244 563 167 z m 456 -101 b 360 -199 401 -101 360 -142 b 456 -292 360 -256 401 -292 b 551 -199 510 -292 551 -256 b 456 -101 551 -142 510 -101 z "},"ờ":{"ha":910,"x_min":0,"x_max":0,"o":"m 582 843 l 394 1043 l 161 1043 l 413 843 z m 750 649 b 856 828 817 683 856 747 b 808 967 856 882 836 929 l 682 919 b 711 836 699 897 711 868 b 622 746 711 785 682 746 b 457 758 571 746 529 758 b 44 374 218 758 44 599 b 456 -11 44 149 218 -11 b 865 374 693 -11 865 149 b 750 649 865 486 822 581 z m 456 167 b 264 374 347 167 264 244 b 456 581 264 503 347 581 b 646 374 564 581 646 503 b 456 167 646 244 563 167 z "},"ở":{"ha":910,"x_min":0,"x_max":0,"o":"m 435 1044 b 500 986 474 1044 500 1021 b 429 901 500 954 483 926 l 497 829 b 625 1004 582 868 625 925 b 458 1153 625 1093 557 1153 b 308 1106 403 1153 349 1138 l 353 1018 b 435 1044 381 1036 407 1044 z m 750 649 b 856 828 817 683 856 747 b 808 967 856 882 836 929 l 682 919 b 711 836 699 897 711 868 b 622 746 711 785 682 746 b 457 758 571 746 529 758 b 44 374 218 758 44 599 b 456 -11 44 149 218 -11 b 865 374 693 -11 865 149 b 750 649 865 486 822 581 z m 456 167 b 264 374 347 167 264 244 b 456 581 264 503 347 581 b 646 374 564 581 646 503 b 456 167 646 244 563 167 z "},"ỡ":{"ha":910,"x_min":0,"x_max":0,"o":"m 364 926 b 532 839 407 926 450 839 b 674 1038 617 839 671 918 l 578 1038 b 521 963 576 992 553 963 b 351 1051 478 963 435 1051 b 211 849 268 1051 213 972 l 306 849 b 364 926 308 899 332 926 z m 750 649 b 856 828 817 683 856 747 b 808 967 856 882 836 929 l 682 919 b 711 836 699 897 711 868 b 622 746 711 785 682 746 b 457 758 571 746 529 758 b 44 374 218 758 44 599 b 456 -11 44 149 218 -11 b 865 374 693 -11 865 149 b 750 649 865 486 822 581 z m 456 167 b 264 374 347 167 264 244 b 456 581 264 503 347 581 b 646 374 564 581 646 503 b 456 167 646 244 563 167 z "},"ő":{"ha":910,"x_min":0,"x_max":0,"o":"m 233 843 l 392 843 l 536 1043 l 333 1043 z m 514 843 l 672 843 l 817 1043 l 614 1043 z m 456 -11 b 865 374 693 -11 865 149 b 456 758 865 599 693 758 b 44 374 218 758 44 599 b 456 -11 44 149 218 -11 z m 456 167 b 264 374 347 167 264 244 b 456 581 264 503 347 581 b 646 374 564 581 646 503 b 456 167 646 244 564 167 z "},"ȏ":{"ha":910,"x_min":0,"x_max":0,"o":"m 197 843 l 333 843 b 453 942 336 904 388 942 b 572 843 518 942 569 904 l 708 843 b 453 1054 703 974 597 1054 b 197 843 308 1054 203 974 z m 456 -11 b 865 374 693 -11 865 149 b 456 758 865 599 693 758 b 44 374 218 758 44 599 b 456 -11 44 149 218 -11 z m 456 167 b 264 374 347 167 264 244 b 456 581 264 503 347 581 b 646 374 564 581 646 503 b 456 167 646 244 564 167 z "},"ō":{"ha":910,"x_min":0,"x_max":0,"o":"m 196 882 l 710 882 l 710 1004 l 196 1004 z m 456 -11 b 865 374 693 -11 865 149 b 456 758 865 599 693 758 b 44 374 218 758 44 599 b 456 -11 44 149 218 -11 z m 456 167 b 264 374 347 167 264 244 b 456 581 264 503 347 581 b 646 374 564 581 646 503 b 456 167 646 244 564 167 z "},"ṓ":{"ha":910,"x_min":0,"x_max":0,"o":"m 333 1067 l 490 1067 l 708 1235 l 488 1235 z m 196 865 l 710 865 l 710 981 l 196 981 z m 456 -11 b 865 374 693 -11 865 149 b 456 758 865 599 693 758 b 44 374 218 758 44 599 b 456 -11 44 149 218 -11 z m 456 167 b 264 374 347 167 264 244 b 456 581 264 503 347 581 b 646 374 564 581 646 503 b 456 167 646 244 564 167 z "},"ṑ":{"ha":910,"x_min":0,"x_max":0,"o":"m 417 1067 l 572 1067 l 419 1235 l 199 1235 z m 196 865 l 710 865 l 710 981 l 196 981 z m 456 -11 b 865 374 693 -11 865 149 b 456 758 865 599 693 758 b 44 374 218 758 44 599 b 456 -11 44 149 218 -11 z m 456 167 b 264 374 347 167 264 244 b 456 581 264 503 347 581 b 646 374 564 581 646 503 b 456 167 646 244 564 167 z "},"ǫ":{"ha":910,"x_min":0,"x_max":0,"o":"m 622 18 b 865 374 769 79 865 208 b 456 758 865 599 693 758 b 44 374 218 758 44 599 b 394 -7 44 168 189 18 b 306 -168 333 -53 306 -110 b 497 -322 306 -260 375 -322 b 638 -290 549 -322 603 -308 l 606 -192 b 522 -212 583 -204 551 -212 b 442 -147 472 -212 442 -186 b 622 18 442 -96 476 -40 z m 264 374 b 456 581 264 503 347 581 b 646 374 564 581 646 503 b 456 167 646 244 564 167 b 264 374 347 167 264 244 z "},"ø":{"ha":910,"x_min":0,"x_max":0,"o":"m 710 682 l 813 839 l 704 839 l 631 726 b 456 758 578 747 519 758 b 44 374 218 758 44 599 b 200 65 44 243 104 133 l 93 -99 l 200 -99 l 279 22 b 456 -11 332 0 392 -11 b 865 374 693 -11 865 149 b 710 682 865 506 807 614 z m 264 374 b 456 581 264 503 347 581 b 528 568 482 581 506 576 l 310 233 b 264 374 281 268 264 315 z m 456 167 b 382 181 429 167 404 171 l 601 515 b 646 374 629 479 646 432 b 456 167 646 244 564 167 z "},"ǿ":{"ha":910,"x_min":0,"x_max":0,"o":"m 743 1043 l 510 1043 l 322 843 l 492 843 z m 710 682 l 813 839 l 704 839 l 631 726 b 456 758 578 747 519 758 b 44 374 218 758 44 599 b 200 65 44 243 104 133 l 93 -99 l 200 -99 l 279 22 b 456 -11 332 0 392 -11 b 865 374 693 -11 865 149 b 710 682 865 506 807 614 z m 264 374 b 456 581 264 503 347 581 b 528 568 482 581 506 576 l 310 233 b 264 374 281 268 264 315 z m 456 167 b 382 181 429 167 404 171 l 601 515 b 646 374 629 479 646 432 b 456 167 646 244 564 167 z "},"õ":{"ha":910,"x_min":0,"x_max":0,"o":"m 557 839 b 719 1038 654 839 717 918 l 610 1038 b 543 963 607 992 581 963 b 349 1051 493 963 444 1051 b 186 849 251 1051 189 972 l 296 849 b 363 926 299 899 325 926 b 557 839 413 926 461 839 z m 456 -11 b 865 374 693 -11 865 149 b 456 758 865 599 693 758 b 44 374 218 758 44 599 b 456 -11 44 149 218 -11 z m 456 167 b 264 374 347 167 264 244 b 456 581 264 503 347 581 b 646 374 564 581 646 503 b 456 167 646 244 564 167 z "},"ṍ":{"ha":910,"x_min":0,"x_max":0,"o":"m 333 1067 l 490 1067 l 708 1235 l 488 1235 z m 556 840 b 714 1013 654 840 713 906 l 606 1013 b 544 950 603 976 582 950 b 353 1022 496 950 446 1022 b 192 849 254 1022 193 960 l 303 849 b 364 913 306 889 326 913 b 556 840 410 913 460 840 z m 456 -11 b 865 374 693 -11 865 149 b 456 758 865 599 693 758 b 44 374 218 758 44 599 b 456 -11 44 149 218 -11 z m 456 167 b 264 374 347 167 264 244 b 456 581 264 503 347 581 b 646 374 564 581 646 503 b 456 167 646 244 564 167 z "},"ṏ":{"ha":910,"x_min":0,"x_max":0,"o":"m 317 1074 b 410 1165 369 1074 410 1111 b 317 1257 410 1218 369 1257 b 225 1165 265 1257 225 1218 b 317 1074 225 1111 265 1074 z m 589 1074 b 681 1165 640 1074 681 1111 b 589 1257 681 1218 640 1257 b 497 1165 539 1257 497 1218 b 589 1074 497 1111 539 1074 z m 556 840 b 714 1013 654 840 713 906 l 606 1013 b 544 950 603 976 582 950 b 353 1022 496 950 446 1022 b 192 849 254 1022 193 960 l 303 849 b 364 913 306 889 326 913 b 556 840 410 913 460 840 z m 456 -11 b 865 374 693 -11 865 149 b 456 758 865 599 693 758 b 44 374 218 758 44 599 b 456 -11 44 149 218 -11 z m 456 167 b 264 374 347 167 264 244 b 456 581 264 503 347 581 b 646 374 564 581 646 503 b 456 167 646 244 564 167 z "},"ȭ":{"ha":910,"x_min":0,"x_max":0,"o":"m 196 1089 l 710 1089 l 710 1204 l 196 1204 z m 556 840 b 714 1013 654 840 713 906 l 606 1013 b 544 950 603 976 582 950 b 353 1022 496 950 446 1022 b 192 849 254 1022 193 960 l 303 849 b 364 913 306 889 326 913 b 556 840 410 913 460 840 z m 456 -11 b 865 374 693 -11 865 149 b 456 758 865 599 693 758 b 44 374 218 758 44 599 b 456 -11 44 149 218 -11 z m 456 167 b 264 374 347 167 264 244 b 456 581 264 503 347 581 b 646 374 564 581 646 503 b 456 167 646 244 564 167 z "},"œ":{"ha":1478,"x_min":0,"x_max":0,"o":"m 1433 372 b 1044 758 1433 611 1263 758 b 751 631 921 758 818 711 b 453 758 685 711 581 758 b 44 374 218 758 44 599 b 453 -11 44 149 218 -11 b 753 118 582 -11 685 38 b 1071 -11 822 38 932 -11 b 1381 110 1201 -11 1310 31 l 1264 235 b 1078 163 1211 186 1153 163 b 863 313 963 163 883 219 l 1429 313 b 1433 372 1432 331 1433 353 z m 1044 594 b 1226 439 1143 594 1213 533 l 860 439 b 1044 594 875 535 946 594 z m 456 167 b 264 374 347 167 264 244 b 456 581 264 503 347 581 b 646 374 564 581 646 503 b 456 167 646 244 564 167 z "},"p":{"ha":958,"x_min":0,"x_max":0,"o":"m 542 758 b 307 661 442 758 361 726 l 307 747 l 100 747 l 100 -269 l 317 -269 l 317 79 b 542 -11 372 18 449 -11 b 914 374 751 -11 914 139 b 542 758 914 608 751 758 z m 504 167 b 314 374 396 167 314 244 b 504 581 314 503 396 581 b 694 374 613 581 694 503 b 504 167 694 244 613 167 z "},"þ":{"ha":958,"x_min":0,"x_max":0,"o":"m 542 758 b 317 672 447 758 371 731 l 317 1031 l 100 1031 l 100 -269 l 317 -269 l 317 79 b 542 -11 372 18 449 -11 b 914 374 751 -11 914 139 b 542 758 914 608 751 758 z m 504 167 b 314 374 396 167 314 244 b 504 581 314 503 396 581 b 694 374 613 581 694 503 b 504 167 694 244 613 167 z "},"q":{"ha":958,"x_min":0,"x_max":0,"o":"m 651 747 l 651 661 b 418 758 597 726 518 758 b 44 374 207 758 44 608 b 418 -11 44 139 207 -11 b 642 79 510 -11 588 18 l 642 -269 l 858 -269 l 858 747 z m 456 167 b 264 374 347 167 264 244 b 456 581 264 503 347 581 b 646 374 563 581 646 503 b 456 167 646 244 563 167 z "},"r":{"ha":599,"x_min":0,"x_max":0,"o":"m 307 649 l 307 747 l 100 747 l 100 0 l 317 0 l 317 353 b 515 561 317 496 396 561 b 564 558 532 561 546 560 l 564 758 b 307 649 449 758 360 721 z "},"ŕ":{"ha":599,"x_min":0,"x_max":0,"o":"m 626 1043 l 393 1043 l 206 843 l 375 843 z m 307 649 l 307 747 l 100 747 l 100 0 l 317 0 l 317 353 b 515 561 317 496 396 561 b 564 558 532 561 546 560 l 564 758 b 307 649 449 758 360 721 z "},"ř":{"ha":599,"x_min":0,"x_max":0,"o":"m 428 843 l 611 1043 l 453 1043 l 332 939 l 211 1043 l 53 1043 l 236 843 z m 307 649 l 307 747 l 100 747 l 100 0 l 317 0 l 317 353 b 515 561 317 496 396 561 b 564 558 532 561 546 560 l 564 758 b 307 649 449 758 360 721 z "},"ŗ":{"ha":599,"x_min":0,"x_max":0,"o":"m 307 649 l 307 747 l 100 747 l 100 0 l 317 0 l 317 353 b 515 561 317 496 396 561 b 564 558 532 561 546 560 l 564 758 b 307 649 449 758 360 721 z m 208 -101 b 113 -185 149 -101 113 -136 b 164 -258 113 -221 131 -247 l 129 -369 l 231 -369 l 279 -275 b 304 -185 300 -236 304 -207 b 208 -101 304 -136 268 -101 z "},"ȑ":{"ha":599,"x_min":0,"x_max":0,"o":"m 271 843 l 171 1043 l -32 1043 l 113 843 z m 551 843 l 451 1043 l 249 1043 l 393 843 z m 307 649 l 307 747 l 100 747 l 100 0 l 317 0 l 317 353 b 515 561 317 496 396 561 b 564 558 532 561 546 560 l 564 758 b 307 649 449 758 360 721 z "},"ṛ":{"ha":599,"x_min":0,"x_max":0,"o":"m 307 649 l 307 747 l 100 747 l 100 0 l 317 0 l 317 353 b 515 561 317 496 396 561 b 564 558 532 561 546 560 l 564 758 b 307 649 449 758 360 721 z m 208 -101 b 113 -199 154 -101 113 -142 b 208 -292 113 -256 154 -292 b 304 -199 263 -292 304 -256 b 208 -101 304 -142 263 -101 z "},"ȓ":{"ha":599,"x_min":0,"x_max":0,"o":"m 332 942 b 451 843 397 942 449 904 l 588 843 b 332 1054 582 974 476 1054 b 76 843 188 1054 82 974 l 213 843 b 332 942 215 904 267 942 z m 307 649 l 307 747 l 100 747 l 100 0 l 317 0 l 317 353 b 515 561 317 496 396 561 b 564 558 532 561 546 560 l 564 758 b 307 649 449 758 360 721 z "},"ṟ":{"ha":599,"x_min":0,"x_max":0,"o":"m 307 649 l 307 747 l 100 747 l 100 0 l 317 0 l 317 353 b 515 561 317 496 396 561 b 564 558 532 561 546 560 l 564 758 b 307 649 449 758 360 721 z m -49 -253 l 465 -253 l 465 -132 l -49 -132 z "},"s":{"ha":738,"x_min":0,"x_max":0,"o":"m 351 -11 b 704 226 575 -11 704 88 b 253 525 704 521 253 397 b 392 594 253 564 294 594 b 607 539 460 594 533 581 l 679 693 b 392 758 608 735 494 758 b 46 517 174 758 46 658 b 497 221 46 218 497 343 b 360 153 497 179 460 153 b 100 225 268 153 167 182 l 28 69 b 351 -11 97 24 225 -11 z "},"ś":{"ha":738,"x_min":0,"x_max":0,"o":"m 236 843 l 406 843 l 657 1043 l 424 1043 z m 351 -11 b 704 226 575 -11 704 88 b 253 525 704 521 253 397 b 392 594 253 564 294 594 b 607 539 460 594 533 581 l 679 693 b 392 758 608 735 494 758 b 46 517 174 758 46 658 b 497 221 46 218 497 343 b 360 153 497 179 460 153 b 100 225 268 153 167 182 l 28 69 b 351 -11 97 24 225 -11 z "},"ṥ":{"ha":738,"x_min":0,"x_max":0,"o":"m 363 1072 b 458 1167 417 1072 458 1110 b 363 1263 458 1224 417 1263 b 267 1167 308 1263 267 1224 b 363 1072 267 1110 308 1072 z m 243 843 l 400 843 l 618 1011 l 397 1011 z m 351 -11 b 704 226 575 -11 704 88 b 253 525 704 521 253 397 b 392 594 253 564 294 594 b 607 539 460 594 533 581 l 679 693 b 392 758 608 735 494 758 b 46 517 174 758 46 658 b 497 221 46 218 497 343 b 360 153 497 179 460 153 b 100 225 268 153 167 182 l 28 69 b 351 -11 97 24 225 -11 z "},"ꞌ":{"ha":406,"x_min":0,"x_max":0,"o":"m 94 413 l 282 413 l 310 944 l 96 944 z "},"š":{"ha":738,"x_min":0,"x_max":0,"o":"m 458 843 l 642 1043 l 483 1043 l 363 939 l 242 1043 l 83 1043 l 267 843 z m 253 525 b 392 594 253 564 294 594 b 607 539 460 594 533 581 l 679 693 b 392 758 608 735 494 758 b 46 517 174 758 46 658 b 497 221 46 218 497 343 b 360 153 497 179 460 153 b 100 225 268 153 167 182 l 28 69 b 351 -11 97 24 225 -11 b 704 226 575 -11 704 88 b 253 525 704 521 253 397 z "},"ṧ":{"ha":738,"x_min":0,"x_max":0,"o":"m 363 1040 b 458 1135 417 1040 458 1078 b 363 1231 458 1192 417 1231 b 267 1135 308 1231 267 1192 b 363 1040 267 1078 308 1040 z m 457 843 l 642 1001 l 482 1001 l 363 922 l 243 1001 l 83 1001 l 268 843 z m 253 525 b 392 594 253 564 294 594 b 607 539 460 594 533 581 l 679 693 b 392 758 608 735 494 758 b 46 517 174 758 46 658 b 497 221 46 218 497 343 b 360 153 497 179 460 153 b 100 225 268 153 167 182 l 28 69 b 351 -11 97 24 225 -11 b 704 226 575 -11 704 88 b 253 525 704 521 253 397 z "},"ş":{"ha":738,"x_min":0,"x_max":0,"o":"m 704 226 b 253 525 704 521 253 397 b 392 594 253 564 294 594 b 607 539 460 594 533 581 l 679 693 b 392 758 608 735 494 758 b 46 517 174 758 46 658 b 497 221 46 218 497 343 b 360 153 497 179 460 153 b 100 225 268 153 167 182 l 28 69 b 299 -10 88 31 190 -1 l 268 -136 l 315 -136 b 383 -176 364 -136 383 -153 b 311 -221 383 -203 363 -221 b 221 -200 278 -221 247 -212 l 188 -293 b 317 -322 219 -311 268 -322 b 521 -185 440 -322 521 -269 b 400 -69 521 -128 485 -79 l 415 -8 b 704 226 599 8 704 101 z "},"ŝ":{"ha":738,"x_min":0,"x_max":0,"o":"m 363 949 l 483 843 l 642 843 l 458 1043 l 267 1043 l 83 843 l 242 843 z m 253 525 b 392 594 253 564 294 594 b 607 539 460 594 533 581 l 679 693 b 392 758 608 735 494 758 b 46 517 174 758 46 658 b 497 221 46 218 497 343 b 360 153 497 179 460 153 b 100 225 268 153 167 182 l 28 69 b 351 -11 97 24 225 -11 b 704 226 575 -11 704 88 b 253 525 704 521 253 397 z "},"ș":{"ha":738,"x_min":0,"x_max":0,"o":"m 253 525 b 392 594 253 564 294 594 b 607 539 460 594 533 581 l 679 693 b 392 758 608 735 494 758 b 46 517 174 758 46 658 b 497 221 46 218 497 343 b 360 153 497 179 460 153 b 100 225 268 153 167 182 l 28 69 b 351 -11 97 24 225 -11 b 704 226 575 -11 704 88 b 253 525 704 521 253 397 z m 363 -101 b 267 -185 303 -101 267 -136 b 318 -258 267 -221 285 -247 l 283 -369 l 385 -369 l 433 -275 b 458 -185 454 -236 458 -207 b 363 -101 458 -136 422 -101 z "},"ṡ":{"ha":738,"x_min":0,"x_max":0,"o":"m 363 850 b 479 968 431 850 479 900 b 363 1085 479 1035 431 1085 b 246 968 294 1085 246 1035 b 363 850 246 900 294 850 z m 351 -11 b 704 226 575 -11 704 88 b 253 525 704 521 253 397 b 392 594 253 564 294 594 b 607 539 460 594 533 581 l 679 693 b 392 758 608 735 494 758 b 46 517 174 758 46 658 b 497 221 46 218 497 343 b 360 153 497 179 460 153 b 100 225 268 153 167 182 l 28 69 b 351 -11 97 24 225 -11 z "},"ṣ":{"ha":738,"x_min":0,"x_max":0,"o":"m 351 -11 b 704 226 575 -11 704 88 b 253 525 704 521 253 397 b 392 594 253 564 294 594 b 607 539 460 594 533 581 l 679 693 b 392 758 608 735 494 758 b 46 517 174 758 46 658 b 497 221 46 218 497 343 b 360 153 497 179 460 153 b 100 225 268 153 167 182 l 28 69 b 351 -11 97 24 225 -11 z m 363 -292 b 458 -199 417 -292 458 -256 b 363 -101 458 -142 417 -101 b 267 -199 308 -101 267 -142 b 363 -292 267 -256 308 -292 z "},"ṩ":{"ha":738,"x_min":0,"x_max":0,"o":"m 363 850 b 479 968 431 850 479 900 b 363 1085 479 1035 431 1085 b 246 968 294 1085 246 1035 b 363 850 246 900 294 850 z m 351 -11 b 704 226 575 -11 704 88 b 253 525 704 521 253 397 b 392 594 253 564 294 594 b 607 539 460 594 533 581 l 679 693 b 392 758 608 735 494 758 b 46 517 174 758 46 658 b 497 221 46 218 497 343 b 360 153 497 179 460 153 b 100 225 268 153 167 182 l 28 69 b 351 -11 97 24 225 -11 z m 363 -292 b 458 -199 417 -292 458 -256 b 363 -101 458 -142 417 -101 b 267 -199 308 -101 267 -142 b 363 -292 267 -256 308 -292 z "},"ß":{"ha":963,"x_min":0,"x_max":0,"o":"m 728 544 b 833 751 790 592 833 663 b 479 1042 833 915 703 1042 b 100 671 268 1042 100 917 l 100 0 l 317 0 l 317 697 b 479 865 317 807 379 865 b 625 736 571 865 625 814 b 456 590 625 650 560 593 l 456 419 l 531 419 b 699 293 635 419 699 375 b 546 167 699 211 639 167 b 429 183 497 167 464 172 l 404 11 b 568 -11 446 -3 513 -11 b 918 288 775 -11 918 99 b 728 544 918 418 844 506 z "},"ſ":{"ha":463,"x_min":0,"x_max":0,"o":"m 431 1042 b 142 764 246 1042 142 932 l 142 731 l 26 731 l 26 564 l 142 564 l 142 0 l 358 0 l 358 763 b 451 871 358 836 390 871 b 539 844 485 871 515 861 l 596 1001 b 431 1042 556 1029 493 1042 z "},"t":{"ha":604,"x_min":0,"x_max":0,"o":"m 524 189 b 436 161 500 171 468 161 b 343 260 378 161 343 196 l 343 564 l 529 564 l 529 731 l 343 731 l 343 913 l 126 913 l 126 731 l 11 731 l 11 564 l 126 564 l 126 257 b 406 -11 126 79 229 -11 b 582 36 472 -11 538 4 z "},"ŧ":{"ha":618,"x_min":0,"x_max":0,"o":"m 531 189 b 443 161 507 171 475 161 b 350 260 385 161 350 196 l 350 319 l 519 319 l 519 444 l 350 444 l 350 564 l 536 564 l 536 731 l 350 731 l 350 913 l 133 913 l 133 731 l 18 731 l 18 564 l 133 564 l 133 444 l 35 444 l 35 319 l 133 319 l 133 257 b 413 -11 133 79 236 -11 b 589 36 479 -11 544 4 z "},"ť":{"ha":604,"x_min":0,"x_max":0,"o":"m 592 1067 l 438 1067 l 438 808 l 569 808 z m 436 161 b 343 260 378 161 343 196 l 343 564 l 529 564 l 529 731 l 343 731 l 343 913 l 126 913 l 126 731 l 11 731 l 11 564 l 126 564 l 126 257 b 406 -11 126 79 229 -11 b 582 36 472 -11 538 4 l 524 189 b 436 161 500 171 468 161 z "},"ţ":{"ha":604,"x_min":0,"x_max":0,"o":"m 403 -69 l 417 -11 b 582 36 479 -10 540 6 l 524 189 b 436 161 500 171 468 161 b 343 260 378 161 343 196 l 343 564 l 529 564 l 529 731 l 343 731 l 343 913 l 126 913 l 126 731 l 11 731 l 11 564 l 126 564 l 126 257 b 304 1 126 117 190 31 l 271 -136 l 318 -136 b 386 -176 367 -136 386 -153 b 314 -221 386 -203 365 -221 b 224 -200 281 -221 250 -212 l 190 -293 b 319 -322 222 -311 271 -322 b 524 -185 443 -322 524 -269 b 403 -69 524 -128 488 -79 z "},"ț":{"ha":604,"x_min":0,"x_max":0,"o":"m 582 36 l 524 189 b 436 161 500 171 468 161 b 343 260 378 161 343 196 l 343 564 l 529 564 l 529 731 l 343 731 l 343 913 l 126 913 l 126 731 l 11 731 l 11 564 l 126 564 l 126 257 b 406 -11 126 79 229 -11 b 582 36 472 -11 538 4 z m 365 -101 b 269 -185 306 -101 269 -136 b 321 -258 269 -221 288 -247 l 286 -369 l 388 -369 l 436 -275 b 461 -185 457 -236 461 -207 b 365 -101 461 -136 425 -101 z "},"ẗ":{"ha":604,"x_min":0,"x_max":0,"o":"m 94 1015 b 190 1111 149 1015 190 1054 b 94 1207 190 1168 149 1207 b -3 1111 40 1207 -3 1168 b 94 1015 -3 1054 40 1015 z m 375 1015 b 472 1111 429 1015 472 1054 b 375 1207 472 1168 429 1207 b 279 1111 321 1207 279 1168 b 375 1015 279 1054 321 1015 z m 524 189 b 436 161 500 171 468 161 b 343 260 378 161 343 196 l 343 564 l 529 564 l 529 731 l 343 731 l 343 913 l 126 913 l 126 731 l 11 731 l 11 564 l 126 564 l 126 257 b 406 -11 126 79 229 -11 b 582 36 472 -11 538 4 z "},"ṭ":{"ha":604,"x_min":0,"x_max":0,"o":"m 582 36 l 524 189 b 436 161 500 171 468 161 b 343 260 378 161 343 196 l 343 564 l 529 564 l 529 731 l 343 731 l 343 913 l 126 913 l 126 731 l 11 731 l 11 564 l 126 564 l 126 257 b 406 -11 126 79 229 -11 b 582 36 472 -11 538 4 z m 365 -101 b 269 -199 311 -101 269 -142 b 365 -292 269 -256 311 -292 b 461 -199 419 -292 461 -256 b 365 -101 461 -142 419 -101 z "},"ṯ":{"ha":604,"x_min":0,"x_max":0,"o":"m 126 257 b 406 -11 126 79 229 -11 b 582 36 472 -11 538 4 l 524 189 b 436 161 500 171 468 161 b 343 260 378 161 343 196 l 343 564 l 529 564 l 529 731 l 343 731 l 343 913 l 126 913 l 126 731 l 11 731 l 11 564 l 126 564 z m 108 -132 l 108 -253 l 622 -253 l 622 -132 z "},"u":{"ha":954,"x_min":0,"x_max":0,"o":"m 636 747 l 636 378 b 464 176 636 240 564 176 b 313 357 368 176 313 232 l 313 747 l 96 747 l 96 325 b 415 -11 96 94 228 -11 b 647 89 507 -11 590 24 l 647 0 l 853 0 l 853 747 z "},"ú":{"ha":954,"x_min":0,"x_max":0,"o":"m 768 1043 l 535 1043 l 347 843 l 517 843 z m 636 747 l 636 378 b 464 176 636 240 564 176 b 313 357 368 176 313 232 l 313 747 l 96 747 l 96 325 b 415 -11 96 94 228 -11 b 647 89 507 -11 590 24 l 647 0 l 853 0 l 853 747 z "},"ŭ":{"ha":954,"x_min":0,"x_max":0,"o":"m 474 832 b 729 1043 618 832 724 913 l 593 1043 b 474 944 590 983 539 944 b 354 1043 408 944 357 983 l 218 1043 b 474 832 224 913 329 832 z m 636 747 l 636 378 b 464 176 636 240 564 176 b 313 357 368 176 313 232 l 313 747 l 96 747 l 96 325 b 415 -11 96 94 228 -11 b 647 89 507 -11 590 24 l 647 0 l 853 0 l 853 747 z "},"ǔ":{"ha":954,"x_min":0,"x_max":0,"o":"m 569 843 l 753 1043 l 594 1043 l 474 939 l 353 1043 l 194 1043 l 378 843 z m 636 747 l 636 378 b 464 176 636 240 564 176 b 313 357 368 176 313 232 l 313 747 l 96 747 l 96 325 b 415 -11 96 94 228 -11 b 647 89 507 -11 590 24 l 647 0 l 853 0 l 853 747 z "},"û":{"ha":954,"x_min":0,"x_max":0,"o":"m 474 949 l 594 843 l 753 843 l 569 1043 l 378 1043 l 194 843 l 353 843 z m 636 747 l 636 378 b 464 176 636 240 564 176 b 313 357 368 176 313 232 l 313 747 l 96 747 l 96 325 b 415 -11 96 94 228 -11 b 647 89 507 -11 590 24 l 647 0 l 853 0 l 853 747 z "},"ȕ":{"ha":954,"x_min":0,"x_max":0,"o":"m 413 843 l 313 1043 l 110 1043 l 254 843 z m 693 843 l 593 1043 l 390 1043 l 535 843 z m 636 747 l 636 378 b 464 176 636 240 564 176 b 313 357 368 176 313 232 l 313 747 l 96 747 l 96 325 b 415 -11 96 94 228 -11 b 647 89 507 -11 590 24 l 647 0 l 853 0 l 853 747 z "},"ü":{"ha":954,"x_min":0,"x_max":0,"o":"m 333 850 b 429 946 388 850 429 889 b 333 1042 429 1003 388 1042 b 236 946 279 1042 236 1003 b 333 850 236 889 279 850 z m 614 850 b 711 946 668 850 711 889 b 614 1042 711 1003 668 1042 b 518 946 560 1042 518 1003 b 614 850 518 889 560 850 z m 636 747 l 636 378 b 464 176 636 240 564 176 b 313 357 368 176 313 232 l 313 747 l 96 747 l 96 325 b 415 -11 96 94 228 -11 b 647 89 507 -11 590 24 l 647 0 l 853 0 l 853 747 z "},"ụ":{"ha":954,"x_min":0,"x_max":0,"o":"m 636 747 l 636 378 b 464 176 636 240 564 176 b 313 357 368 176 313 232 l 313 747 l 96 747 l 96 325 b 415 -11 96 94 228 -11 b 647 89 507 -11 590 24 l 647 0 l 853 0 l 853 747 z m 474 -101 b 378 -199 419 -101 378 -142 b 474 -292 378 -256 419 -292 b 569 -199 528 -292 569 -256 b 474 -101 569 -142 528 -101 z "},"ù":{"ha":954,"x_min":0,"x_max":0,"o":"m 600 843 l 413 1043 l 179 1043 l 431 843 z m 636 747 l 636 378 b 464 176 636 240 564 176 b 313 357 368 176 313 232 l 313 747 l 96 747 l 96 325 b 415 -11 96 94 228 -11 b 647 89 507 -11 590 24 l 647 0 l 853 0 l 853 747 z "},"ủ":{"ha":954,"x_min":0,"x_max":0,"o":"m 453 1044 b 518 986 492 1044 518 1021 b 447 901 518 954 501 926 l 515 829 b 643 1004 600 868 643 925 b 476 1153 643 1093 575 1153 b 326 1106 421 1153 367 1138 l 371 1018 b 453 1044 399 1036 425 1044 z m 636 747 l 636 378 b 464 176 636 240 564 176 b 313 357 368 176 313 232 l 313 747 l 96 747 l 96 325 b 415 -11 96 94 228 -11 b 647 89 507 -11 590 24 l 647 0 l 853 0 l 853 747 z "},"ư":{"ha":974,"x_min":0,"x_max":0,"o":"m 979 826 b 935 965 979 882 963 929 l 807 918 b 835 835 824 897 835 868 b 751 747 835 783 801 747 l 636 747 l 636 378 b 464 176 636 240 564 176 b 313 357 368 176 313 232 l 313 747 l 96 747 l 96 325 b 415 -11 96 94 228 -11 b 647 89 507 -11 590 24 l 647 0 l 853 0 l 853 622 b 979 826 933 654 979 726 z "},"ứ":{"ha":974,"x_min":0,"x_max":0,"o":"m 768 1043 l 535 1043 l 347 843 l 517 843 z m 979 826 b 935 965 979 882 963 929 l 807 918 b 835 835 824 897 835 868 b 751 747 835 783 801 747 l 636 747 l 636 378 b 464 176 636 240 564 176 b 313 357 368 176 313 232 l 313 747 l 96 747 l 96 325 b 415 -11 96 94 228 -11 b 647 89 507 -11 590 24 l 647 0 l 853 0 l 853 622 b 979 826 933 654 979 726 z "},"ự":{"ha":974,"x_min":0,"x_max":0,"o":"m 979 826 b 935 965 979 882 963 929 l 807 918 b 835 835 824 897 835 868 b 751 747 835 783 801 747 l 636 747 l 636 378 b 464 176 636 240 564 176 b 313 357 368 176 313 232 l 313 747 l 96 747 l 96 325 b 415 -11 96 94 228 -11 b 647 89 507 -11 590 24 l 647 0 l 853 0 l 853 622 b 979 826 933 654 979 726 z m 474 -101 b 378 -199 419 -101 378 -142 b 474 -292 378 -256 419 -292 b 569 -199 528 -292 569 -256 b 474 -101 569 -142 528 -101 z "},"ừ":{"ha":974,"x_min":0,"x_max":0,"o":"m 600 843 l 413 1043 l 179 1043 l 431 843 z m 979 826 b 935 965 979 882 963 929 l 807 918 b 835 835 824 897 835 868 b 751 747 835 783 801 747 l 636 747 l 636 378 b 464 176 636 240 564 176 b 313 357 368 176 313 232 l 313 747 l 96 747 l 96 325 b 415 -11 96 94 228 -11 b 647 89 507 -11 590 24 l 647 0 l 853 0 l 853 622 b 979 826 933 654 979 726 z "},"ử":{"ha":974,"x_min":0,"x_max":0,"o":"m 453 1044 b 518 986 492 1044 518 1021 b 447 901 518 954 501 926 l 515 829 b 643 1004 600 868 643 925 b 476 1153 643 1093 575 1153 b 326 1106 421 1153 367 1138 l 371 1018 b 453 1044 399 1036 425 1044 z m 979 826 b 935 965 979 882 963 929 l 807 918 b 835 835 824 897 835 868 b 751 747 835 783 801 747 l 636 747 l 636 378 b 464 176 636 240 564 176 b 313 357 368 176 313 232 l 313 747 l 96 747 l 96 325 b 415 -11 96 94 228 -11 b 647 89 507 -11 590 24 l 647 0 l 853 0 l 853 622 b 979 826 933 654 979 726 z "},"ữ":{"ha":974,"x_min":0,"x_max":0,"o":"m 383 926 b 578 839 433 926 482 839 b 740 1038 675 839 738 918 l 631 1038 b 564 963 628 992 601 963 b 369 1051 514 963 465 1051 b 207 849 272 1051 210 972 l 317 849 b 383 926 319 899 346 926 z m 979 826 b 935 965 979 882 963 929 l 807 918 b 835 835 824 897 835 868 b 751 747 835 783 801 747 l 636 747 l 636 378 b 464 176 636 240 564 176 b 313 357 368 176 313 232 l 313 747 l 96 747 l 96 325 b 415 -11 96 94 228 -11 b 647 89 507 -11 590 24 l 647 0 l 853 0 l 853 622 b 979 826 933 654 979 726 z "},"ű":{"ha":954,"x_min":0,"x_max":0,"o":"m 557 1043 l 354 1043 l 254 843 l 413 843 z m 693 843 l 838 1043 l 635 1043 l 535 843 z m 636 747 l 636 378 b 464 176 636 240 564 176 b 313 357 368 176 313 232 l 313 747 l 96 747 l 96 325 b 415 -11 96 94 228 -11 b 647 89 507 -11 590 24 l 647 0 l 853 0 l 853 747 z "},"ȗ":{"ha":954,"x_min":0,"x_max":0,"o":"m 474 942 b 593 843 539 942 590 904 l 729 843 b 474 1054 724 974 618 1054 b 218 843 329 1054 224 974 l 354 843 b 474 942 357 904 408 942 z m 636 747 l 636 378 b 464 176 636 240 564 176 b 313 357 368 176 313 232 l 313 747 l 96 747 l 96 325 b 415 -11 96 94 228 -11 b 647 89 507 -11 590 24 l 647 0 l 853 0 l 853 747 z "},"ū":{"ha":954,"x_min":0,"x_max":0,"o":"m 731 1004 l 217 1004 l 217 882 l 731 882 z m 636 747 l 636 378 b 464 176 636 240 564 176 b 313 357 368 176 313 232 l 313 747 l 96 747 l 96 325 b 415 -11 96 94 228 -11 b 647 89 507 -11 590 24 l 647 0 l 853 0 l 853 747 z "},"ṻ":{"ha":954,"x_min":0,"x_max":0,"o":"m 338 1074 b 431 1165 390 1074 431 1111 b 338 1257 431 1218 390 1257 b 246 1165 286 1257 246 1218 b 338 1074 246 1111 286 1074 z m 610 1074 b 701 1165 661 1074 701 1111 b 610 1257 701 1218 661 1257 b 518 1165 560 1257 518 1218 b 610 1074 518 1111 560 1074 z m 731 981 l 217 981 l 217 865 l 731 865 z m 636 747 l 636 378 b 464 176 636 240 564 176 b 313 357 368 176 313 232 l 313 747 l 96 747 l 96 325 b 415 -11 96 94 228 -11 b 647 89 507 -11 590 24 l 647 0 l 853 0 l 853 747 z "},"ų":{"ha":954,"x_min":0,"x_max":0,"o":"m 854 -192 b 769 -212 832 -204 800 -212 b 690 -149 721 -212 690 -187 b 853 0 690 -97 733 -53 l 853 747 l 636 747 l 636 378 b 464 176 636 240 564 176 b 313 357 368 176 313 232 l 313 747 l 96 747 l 96 325 b 415 -11 96 94 228 -11 b 647 89 507 -11 590 24 l 647 0 l 654 0 b 553 -167 585 -49 553 -106 b 744 -322 553 -260 624 -322 b 885 -290 797 -322 851 -308 z "},"ů":{"ha":954,"x_min":0,"x_max":0,"o":"m 472 822 b 646 990 571 822 646 896 b 472 1158 646 1083 571 1158 b 301 990 375 1158 301 1083 b 472 822 301 896 375 822 z m 472 1075 b 557 990 521 1075 557 1039 b 472 906 557 942 521 906 b 389 990 425 906 389 942 b 472 1075 389 1039 426 1075 z m 636 747 l 636 378 b 464 176 636 240 564 176 b 313 357 368 176 313 232 l 313 747 l 96 747 l 96 325 b 415 -11 96 94 228 -11 b 647 89 507 -11 590 24 l 647 0 l 853 0 l 853 747 z "},"ũ":{"ha":954,"x_min":0,"x_max":0,"o":"m 383 926 b 578 839 433 926 482 839 b 740 1038 675 839 738 918 l 631 1038 b 564 963 628 992 601 963 b 369 1051 514 963 465 1051 b 207 849 272 1051 210 972 l 317 849 b 383 926 319 899 346 926 z m 636 747 l 636 378 b 464 176 636 240 564 176 b 313 357 368 176 313 232 l 313 747 l 96 747 l 96 325 b 415 -11 96 94 228 -11 b 647 89 507 -11 590 24 l 647 0 l 853 0 l 853 747 z "},"ṹ":{"ha":954,"x_min":0,"x_max":0,"o":"m 729 1235 l 508 1235 l 354 1067 l 511 1067 z m 385 913 b 576 840 431 913 481 840 b 735 1013 675 840 733 906 l 626 1013 b 565 950 624 976 603 950 b 374 1022 517 950 467 1022 b 213 849 275 1022 214 960 l 324 849 b 385 913 326 889 347 913 z m 636 747 l 636 378 b 464 176 636 240 564 176 b 313 357 368 176 313 232 l 313 747 l 96 747 l 96 325 b 415 -11 96 94 228 -11 b 647 89 507 -11 590 24 l 647 0 l 853 0 l 853 747 z "},"v":{"ha":831,"x_min":0,"x_max":0,"o":"m 633 747 l 419 239 l 213 747 l -11 747 l 303 0 l 526 0 l 842 747 z "},"w":{"ha":1301,"x_min":0,"x_max":0,"o":"m 1108 747 l 926 242 l 749 747 l 565 747 l 382 242 l 206 747 l 1 747 l 271 0 l 479 0 l 653 464 l 821 0 l 1029 0 l 1300 747 z "},"ẃ":{"ha":1301,"x_min":0,"x_max":0,"o":"m 943 1042 l 710 1042 l 522 842 l 692 842 z m 1108 747 l 926 242 l 749 747 l 565 747 l 382 242 l 206 747 l 1 747 l 271 0 l 479 0 l 653 464 l 821 0 l 1029 0 l 1300 747 z "},"ŵ":{"ha":1301,"x_min":0,"x_max":0,"o":"m 649 947 l 769 842 l 928 842 l 744 1042 l 553 1042 l 369 842 l 528 842 z m 1108 747 l 926 242 l 749 747 l 565 747 l 382 242 l 206 747 l 1 747 l 271 0 l 479 0 l 653 464 l 821 0 l 1029 0 l 1300 747 z "},"ẅ":{"ha":1301,"x_min":0,"x_max":0,"o":"m 508 849 b 604 944 563 849 604 888 b 508 1040 604 1001 563 1040 b 411 944 454 1040 411 1001 b 508 849 411 888 454 849 z m 789 849 b 886 944 843 849 886 888 b 789 1040 886 1001 843 1040 b 693 944 735 1040 693 1001 b 789 849 693 888 735 849 z m 1108 747 l 926 242 l 749 747 l 565 747 l 382 242 l 206 747 l 1 747 l 271 0 l 479 0 l 653 464 l 821 0 l 1029 0 l 1300 747 z "},"ẁ":{"ha":1301,"x_min":0,"x_max":0,"o":"m 775 842 l 588 1042 l 354 1042 l 606 842 z m 1108 747 l 926 242 l 749 747 l 565 747 l 382 242 l 206 747 l 1 747 l 271 0 l 479 0 l 653 464 l 821 0 l 1029 0 l 1300 747 z "},"x":{"ha":826,"x_min":0,"x_max":0,"o":"m 821 0 l 532 382 l 810 747 l 579 747 l 417 529 l 258 747 l 15 747 l 293 376 l 6 0 l 242 0 l 411 229 l 575 0 z "},"y":{"ha":831,"x_min":0,"x_max":0,"o":"m 633 747 l 422 240 l 213 747 l -11 747 l 313 -6 l 310 -12 b 188 -106 281 -79 247 -106 b 65 -58 144 -106 99 -87 l -14 -212 b 194 -281 35 -256 118 -281 b 504 -46 329 -281 432 -226 l 842 747 z "},"ý":{"ha":831,"x_min":0,"x_max":0,"o":"m 694 1043 l 461 1043 l 274 843 l 443 843 z m 633 747 l 422 240 l 213 747 l -11 747 l 313 -6 l 310 -12 b 188 -106 281 -79 247 -106 b 65 -58 144 -106 99 -87 l -14 -212 b 194 -281 35 -256 118 -281 b 504 -46 329 -281 432 -226 l 842 747 z "},"ŷ":{"ha":831,"x_min":0,"x_max":0,"o":"m 400 949 l 521 843 l 679 843 l 496 1043 l 304 1043 l 121 843 l 279 843 z m 633 747 l 422 240 l 213 747 l -11 747 l 313 -6 l 310 -12 b 188 -106 281 -79 247 -106 b 65 -58 144 -106 99 -87 l -14 -212 b 194 -281 35 -256 118 -281 b 504 -46 329 -281 432 -226 l 842 747 z "},"ÿ":{"ha":831,"x_min":0,"x_max":0,"o":"m 260 850 b 356 946 314 850 356 889 b 260 1042 356 1003 314 1042 b 163 946 206 1042 163 1003 b 260 850 163 889 206 850 z m 540 850 b 638 946 594 850 638 889 b 540 1042 638 1003 594 1042 b 444 946 486 1042 444 1003 b 540 850 444 889 486 850 z m 633 747 l 422 240 l 213 747 l -11 747 l 313 -6 l 310 -12 b 188 -106 281 -79 247 -106 b 65 -58 144 -106 99 -87 l -14 -212 b 194 -281 35 -256 118 -281 b 504 -46 329 -281 432 -226 l 842 747 z "},"ẏ":{"ha":831,"x_min":0,"x_max":0,"o":"m 400 850 b 517 968 468 850 517 900 b 400 1085 517 1035 468 1085 b 283 968 332 1085 283 1035 b 400 850 283 900 332 850 z m 633 747 l 422 240 l 213 747 l -11 747 l 313 -6 l 310 -12 b 188 -106 281 -79 247 -106 b 65 -58 144 -106 99 -87 l -14 -212 b 194 -281 35 -256 118 -281 b 504 -46 329 -281 432 -226 l 842 747 z "},"ỵ":{"ha":831,"x_min":0,"x_max":0,"o":"m 633 747 l 422 240 l 213 747 l -11 747 l 313 -6 l 310 -12 b 188 -106 281 -79 247 -106 b 65 -58 144 -106 99 -87 l -14 -212 b 194 -281 35 -256 118 -281 b 504 -46 329 -281 432 -226 l 842 747 z m 644 -101 b 549 -199 590 -101 549 -142 b 644 -292 549 -256 590 -292 b 740 -199 699 -292 740 -256 b 644 -101 740 -142 699 -101 z "},"ỳ":{"ha":831,"x_min":0,"x_max":0,"o":"m 526 843 l 339 1043 l 106 1043 l 357 843 z m 633 747 l 422 240 l 213 747 l -11 747 l 313 -6 l 310 -12 b 188 -106 281 -79 247 -106 b 65 -58 144 -106 99 -87 l -14 -212 b 194 -281 35 -256 118 -281 b 504 -46 329 -281 432 -226 l 842 747 z "},"ỷ":{"ha":831,"x_min":0,"x_max":0,"o":"m 379 1044 b 444 986 418 1044 444 1021 b 374 901 444 954 428 926 l 442 829 b 569 1004 526 868 569 925 b 403 1153 569 1093 501 1153 b 253 1106 347 1153 293 1138 l 297 1018 b 379 1044 325 1036 351 1044 z m 633 747 l 422 240 l 213 747 l -11 747 l 313 -6 l 310 -12 b 188 -106 281 -79 247 -106 b 65 -58 144 -106 99 -87 l -14 -212 b 194 -281 35 -256 118 -281 b 504 -46 329 -281 432 -226 l 842 747 z "},"ȳ":{"ha":831,"x_min":0,"x_max":0,"o":"m 657 1004 l 143 1004 l 143 882 l 657 882 z m 633 747 l 422 240 l 213 747 l -11 747 l 313 -6 l 310 -12 b 188 -106 281 -79 247 -106 b 65 -58 144 -106 99 -87 l -14 -212 b 194 -281 35 -256 118 -281 b 504 -46 329 -281 432 -226 l 842 747 z "},"ỹ":{"ha":831,"x_min":0,"x_max":0,"o":"m 310 926 b 504 839 360 926 408 839 b 667 1038 601 839 664 918 l 557 1038 b 490 963 554 992 528 963 b 296 1051 440 963 392 1051 b 133 849 199 1051 136 972 l 243 849 b 310 926 246 899 272 926 z m 633 747 l 422 240 l 213 747 l -11 747 l 313 -6 l 310 -12 b 188 -106 281 -79 247 -106 b 65 -58 144 -106 99 -87 l -14 -212 b 194 -281 35 -256 118 -281 b 504 -46 329 -281 432 -226 l 842 747 z "},"z":{"ha":754,"x_min":0,"x_max":0,"o":"m 322 167 l 703 617 l 703 747 l 58 747 l 58 581 l 429 581 l 49 131 l 49 0 l 715 0 l 715 167 z "},"ź":{"ha":754,"x_min":0,"x_max":0,"o":"m 676 1043 l 443 1043 l 256 843 l 425 843 z m 322 167 l 703 617 l 703 747 l 58 747 l 58 581 l 429 581 l 49 131 l 49 0 l 715 0 l 715 167 z "},"ž":{"ha":754,"x_min":0,"x_max":0,"o":"m 478 843 l 661 1043 l 503 1043 l 382 939 l 261 1043 l 103 1043 l 286 843 z m 322 167 l 703 617 l 703 747 l 58 747 l 58 581 l 429 581 l 49 131 l 49 0 l 715 0 l 715 167 z "},"ż":{"ha":754,"x_min":0,"x_max":0,"o":"m 382 850 b 499 968 450 850 499 900 b 382 1085 499 1035 450 1085 b 265 968 314 1085 265 1035 b 382 850 265 900 314 850 z m 322 167 l 703 617 l 703 747 l 58 747 l 58 581 l 429 581 l 49 131 l 49 0 l 715 0 l 715 167 z "},"ẓ":{"ha":754,"x_min":0,"x_max":0,"o":"m 322 167 l 703 617 l 703 747 l 58 747 l 58 581 l 429 581 l 49 131 l 49 0 l 715 0 l 715 167 z m 386 -101 b 290 -199 332 -101 290 -142 b 386 -292 290 -256 332 -292 b 482 -199 440 -292 482 -256 b 386 -101 482 -142 440 -101 z "},"ﬁ":{"ha":1067,"x_min":0,"x_max":0,"o":"m 857 851 b 992 976 938 851 992 904 b 857 1093 992 1043 938 1093 b 722 972 776 1093 722 1040 b 857 851 722 904 776 851 z m 436 871 b 524 844 469 871 500 861 l 581 1001 b 415 1042 540 1029 476 1042 b 126 764 229 1042 126 932 l 126 731 l 11 731 l 11 564 l 126 564 l 126 0 l 343 0 l 343 564 l 529 564 l 529 731 l 338 731 l 338 763 b 436 871 338 836 372 871 z m 749 0 l 965 0 l 965 747 l 749 747 z "},"ﬂ":{"ha":956,"x_min":0,"x_max":0,"o":"m 436 871 b 524 844 469 871 500 861 l 581 1001 b 415 1042 540 1029 476 1042 b 126 764 229 1042 126 932 l 126 731 l 11 731 l 11 564 l 126 564 l 126 0 l 343 0 l 343 564 l 529 564 l 529 731 l 338 731 l 338 763 b 436 871 338 836 372 871 z m 638 1031 l 638 0 l 854 0 l 854 1031 z "},"ª":{"ha":572,"x_min":0,"x_max":0,"o":"m 265 1042 b 56 985 192 1042 108 1021 l 107 890 b 244 933 142 917 196 933 b 351 851 315 933 350 907 l 243 851 b 39 718 100 851 39 799 b 217 582 39 642 99 582 b 363 643 289 582 339 606 l 363 589 l 501 589 l 501 842 b 265 1042 501 978 417 1042 z m 256 675 b 181 724 208 675 181 693 b 265 772 181 754 206 772 l 351 772 l 351 726 b 256 675 335 693 301 675 z "},"º":{"ha":593,"x_min":0,"x_max":0,"o":"m 297 582 b 560 813 450 582 560 678 b 297 1042 560 946 450 1042 b 33 813 144 1042 33 946 b 297 582 33 678 144 582 z m 297 697 b 181 813 229 697 181 742 b 297 926 181 883 229 926 b 413 813 364 926 413 883 b 297 697 413 742 364 697 z "},"А":{"ha":1110,"x_min":0,"x_max":0,"o":"m 865 0 l 1101 0 l 667 972 l 444 972 l 11 0 l 242 0 l 328 208 l 779 208 z m 400 379 l 554 751 l 708 379 z "},"Б":{"ha":1025,"x_min":0,"x_max":0,"o":"m 121 0 l 582 0 b 975 307 832 0 975 113 b 614 593 975 493 849 593 l 344 593 l 344 793 l 906 793 l 906 972 l 121 972 z m 344 167 l 344 428 l 569 428 b 747 300 688 428 747 386 b 569 167 747 213 685 167 z "},"В":{"ha":1035,"x_min":0,"x_max":0,"o":"m 794 507 b 932 721 881 549 932 622 b 574 972 932 882 799 972 l 121 972 l 121 0 l 600 0 b 978 274 846 0 978 104 b 794 507 978 392 913 472 z m 344 806 l 554 806 b 703 688 651 806 703 764 b 554 569 703 610 651 569 l 344 569 z m 592 167 l 344 167 l 344 413 l 592 413 b 750 292 696 413 750 374 b 592 167 750 207 696 167 z "},"Г":{"ha":824,"x_min":0,"x_max":0,"o":"m 807 972 l 121 972 l 121 0 l 344 0 l 343 789 l 806 789 z "},"Ѓ":{"ha":824,"x_min":0,"x_max":0,"o":"m 746 1251 l 513 1251 l 325 1051 l 494 1051 z m 807 972 l 121 972 l 121 0 l 344 0 l 343 789 l 806 789 z "},"Ґ":{"ha":826,"x_min":0,"x_max":0,"o":"m 121 0 l 344 0 l 344 789 l 807 789 l 807 1172 l 599 1172 l 599 972 l 121 972 z "},"Д":{"ha":1154,"x_min":0,"x_max":0,"o":"m 988 183 l 988 972 l 240 972 l 229 668 b 61 183 219 396 188 188 l 22 183 l 21 -201 l 229 -201 l 229 0 l 915 0 l 915 -201 l 1124 -201 l 1124 183 z m 428 647 l 432 789 l 765 789 l 765 183 l 331 183 b 428 647 397 263 419 440 z "},"Е":{"ha":935,"x_min":0,"x_max":0,"o":"m 344 181 l 344 406 l 796 406 l 796 581 l 344 581 l 344 792 l 856 792 l 856 972 l 121 972 l 121 0 l 874 0 l 874 181 z "},"Ѐ":{"ha":935,"x_min":0,"x_max":0,"o":"m 615 1051 l 428 1251 l 194 1251 l 446 1051 z m 344 181 l 344 406 l 796 406 l 796 581 l 344 581 l 344 792 l 856 792 l 856 972 l 121 972 l 121 0 l 874 0 l 874 181 z "},"Ё":{"ha":935,"x_min":0,"x_max":0,"o":"m 349 1058 b 444 1154 403 1058 444 1097 b 349 1250 444 1211 403 1250 b 251 1154 294 1250 251 1211 b 349 1058 251 1097 294 1058 z m 629 1058 b 726 1154 683 1058 726 1097 b 629 1250 726 1211 683 1250 b 533 1154 575 1250 533 1211 b 629 1058 533 1097 575 1058 z m 344 181 l 344 406 l 796 406 l 796 581 l 344 581 l 344 792 l 856 792 l 856 972 l 121 972 l 121 0 l 874 0 l 874 181 z "},"Ж":{"ha":1499,"x_min":0,"x_max":0,"o":"m 1221 0 l 1481 0 l 1190 508 l 1463 972 l 1225 972 l 1006 579 l 861 579 l 861 972 l 640 972 l 640 579 l 492 579 l 274 972 l 36 972 l 310 508 l 18 0 l 278 0 l 496 392 l 640 392 l 640 0 l 861 0 l 861 392 l 1003 392 z "},"З":{"ha":911,"x_min":0,"x_max":0,"o":"m 674 507 b 814 714 760 544 814 619 b 394 993 814 890 619 993 b 61 914 283 993 167 968 l 129 739 b 390 808 213 786 308 808 b 586 688 500 808 586 767 b 442 583 586 624 533 583 l 221 583 l 221 414 l 458 414 b 626 304 560 414 626 378 b 394 167 626 214 522 167 b 103 246 300 167 192 192 l 33 85 b 421 -17 154 15 292 -17 b 854 272 654 -17 854 89 b 674 507 854 382 786 468 z "},"И":{"ha":1140,"x_min":0,"x_max":0,"o":"m 121 0 l 333 0 l 797 632 l 797 0 l 1019 0 l 1019 972 l 808 972 l 344 339 l 344 972 l 121 972 z "},"Й":{"ha":1140,"x_min":0,"x_max":0,"o":"m 569 1035 b 839 1247 751 1035 838 1111 l 685 1247 b 569 1146 683 1181 643 1146 b 454 1247 493 1146 456 1181 l 300 1247 b 569 1035 301 1111 385 1035 z m 121 0 l 333 0 l 797 632 l 797 0 l 1019 0 l 1019 972 l 808 972 l 344 339 l 344 972 l 121 972 z "},"Ѝ":{"ha":1140,"x_min":0,"x_max":0,"o":"m 526 1051 l 696 1051 l 508 1251 l 275 1251 z m 121 0 l 333 0 l 797 632 l 797 0 l 1019 0 l 1019 972 l 808 972 l 344 339 l 344 972 l 121 972 z "},"Ҋ":{"ha":1194,"x_min":0,"x_max":0,"o":"m 569 1035 b 839 1247 751 1035 838 1111 l 685 1247 b 569 1146 683 1181 643 1146 b 454 1247 493 1146 456 1181 l 300 1247 b 569 1035 301 1111 385 1035 z m 1019 183 l 1019 972 l 808 972 l 344 339 l 344 972 l 121 972 l 121 0 l 333 0 l 797 632 l 797 0 l 914 0 l 874 -201 l 1051 -201 l 1161 183 z "},"К":{"ha":1021,"x_min":0,"x_max":0,"o":"m 750 0 l 1006 0 l 678 503 l 996 972 l 758 972 l 503 579 l 342 579 l 342 972 l 118 972 l 118 0 l 342 0 l 342 392 l 497 392 z "},"Ќ":{"ha":1021,"x_min":0,"x_max":0,"o":"m 815 1251 l 582 1251 l 394 1051 l 564 1051 z m 750 0 l 1006 0 l 678 503 l 996 972 l 758 972 l 503 579 l 342 579 l 342 972 l 118 972 l 118 0 l 342 0 l 342 392 l 497 392 z "},"Л":{"ha":1110,"x_min":0,"x_max":0,"o":"m 240 972 l 226 578 b 74 185 217 329 188 185 b 33 190 60 185 47 186 l 19 0 b 131 -15 61 -10 97 -15 b 425 586 358 -15 413 204 l 432 789 l 765 789 l 765 0 l 988 0 l 988 972 z "},"М":{"ha":1338,"x_min":0,"x_max":0,"o":"m 1217 0 l 1215 972 l 1029 972 l 671 368 l 307 972 l 121 972 l 121 0 l 332 0 l 332 571 l 618 103 l 718 103 l 1004 582 l 1006 0 z "},"Н":{"ha":1135,"x_min":0,"x_max":0,"o":"m 788 972 l 788 589 l 346 589 l 346 972 l 121 972 l 121 0 l 346 0 l 346 399 l 788 399 l 788 0 l 1013 0 l 1013 972 z "},"О":{"ha":1169,"x_min":0,"x_max":0,"o":"m 585 -17 b 1117 486 890 -17 1117 196 b 585 989 1117 776 890 989 b 53 486 278 989 53 775 b 585 -17 53 197 278 -17 z m 585 175 b 281 486 411 175 281 301 b 585 797 281 671 411 797 b 889 486 758 797 889 671 b 585 175 889 301 758 175 z "},"П":{"ha":1128,"x_min":0,"x_max":0,"o":"m 121 972 l 121 0 l 344 0 l 344 789 l 783 789 l 783 0 l 1007 0 l 1007 972 z "},"Р":{"ha":1006,"x_min":0,"x_max":0,"o":"m 542 972 l 121 972 l 121 0 l 346 0 l 346 268 l 542 268 b 964 619 801 268 964 403 b 542 972 964 838 801 972 z m 529 451 l 346 451 l 346 789 l 529 789 b 736 619 667 789 736 726 b 529 451 736 514 667 451 z "},"С":{"ha":1008,"x_min":0,"x_max":0,"o":"m 581 -17 b 982 157 750 -17 890 44 l 838 290 b 593 175 772 214 690 175 b 282 486 411 175 282 303 b 593 797 282 669 411 797 b 838 683 690 797 772 758 l 982 817 b 582 989 890 928 750 989 b 54 486 279 989 54 779 b 581 -17 54 193 279 -17 z "},"Т":{"ha":885,"x_min":0,"x_max":0,"o":"m 864 972 l 21 972 l 21 789 l 331 789 l 331 0 l 553 0 l 553 789 l 864 789 z "},"У":{"ha":1006,"x_min":0,"x_max":0,"o":"m 778 972 l 511 450 l 253 972 l 13 972 l 396 258 l 388 247 b 251 164 350 189 307 164 b 154 182 222 164 190 171 l 100 11 b 258 -22 154 -11 207 -22 b 585 203 389 -22 504 53 l 999 972 z "},"Ў":{"ha":1006,"x_min":0,"x_max":0,"o":"m 499 1035 b 768 1247 681 1035 767 1111 l 614 1247 b 499 1146 613 1181 572 1146 b 383 1247 422 1146 385 1181 l 229 1247 b 499 1035 231 1111 314 1035 z m 778 972 l 511 450 l 253 972 l 13 972 l 396 258 l 388 247 b 251 164 350 189 307 164 b 154 182 222 164 190 171 l 100 11 b 258 -22 154 -11 207 -22 b 585 203 389 -22 504 53 l 999 972 z "},"Ф":{"ha":1319,"x_min":0,"x_max":0,"o":"m 1272 489 b 764 915 1272 743 1092 896 l 764 1014 l 557 1014 l 557 914 b 47 489 228 894 47 744 b 557 64 47 235 228 83 l 557 -43 l 764 -43 l 764 63 b 1272 489 1093 79 1272 233 z m 764 239 l 764 738 b 1056 490 957 721 1056 640 b 764 239 1056 339 960 257 z m 265 489 b 557 738 265 640 360 719 l 557 239 b 265 489 369 258 265 339 z "},"Х":{"ha":1003,"x_min":0,"x_max":0,"o":"m 36 972 l 361 497 l 14 0 l 274 0 l 497 322 l 724 0 l 989 0 l 639 507 l 963 972 l 699 972 l 497 678 l 296 972 z "},"Ч":{"ha":1040,"x_min":0,"x_max":0,"o":"m 697 972 l 697 535 b 489 492 635 507 563 492 b 281 693 354 492 281 560 l 281 972 l 58 972 l 58 668 b 463 304 58 433 201 304 b 697 350 535 304 613 319 l 697 0 l 919 0 l 919 972 z "},"Ц":{"ha":1168,"x_min":0,"x_max":0,"o":"m 1001 183 l 1001 972 l 778 972 l 778 183 l 344 183 l 344 972 l 121 972 l 121 0 l 933 0 l 933 -206 l 1140 -206 l 1140 183 z "},"Ш":{"ha":1525,"x_min":0,"x_max":0,"o":"m 1181 972 l 1181 183 l 875 183 l 875 972 l 651 972 l 651 183 l 344 183 l 344 972 l 121 972 l 121 0 l 1404 0 l 1404 972 z "},"Щ":{"ha":1569,"x_min":0,"x_max":0,"o":"m 1404 183 l 1404 972 l 1181 972 l 1181 183 l 875 183 l 875 972 l 651 972 l 651 183 l 344 183 l 344 972 l 121 972 l 121 0 l 1328 0 l 1328 -201 l 1536 -201 l 1536 183 z "},"Џ":{"ha":1122,"x_min":0,"x_max":0,"o":"m 1001 972 l 778 972 l 778 183 l 344 183 l 344 972 l 121 972 l 121 0 l 457 0 l 457 -206 l 665 -206 l 665 0 l 1001 0 z "},"Ь":{"ha":1001,"x_min":0,"x_max":0,"o":"m 592 653 l 344 653 l 344 972 l 121 972 l 121 0 l 560 0 b 960 339 810 0 960 115 b 592 653 960 549 826 653 z m 547 167 l 344 167 l 344 486 l 547 486 b 733 335 664 486 733 442 b 547 167 733 225 663 167 z "},"Ъ":{"ha":1174,"x_min":0,"x_max":0,"o":"m 765 653 l 517 653 l 517 972 l 21 972 l 21 789 l 294 789 l 294 0 l 732 0 b 1132 339 982 0 1132 115 b 765 653 1132 549 999 653 z m 719 167 l 517 167 l 517 486 l 719 486 b 906 335 836 486 906 442 b 719 167 906 225 836 167 z "},"Ы":{"ha":1428,"x_min":0,"x_max":0,"o":"m 592 653 l 344 653 l 344 972 l 121 972 l 121 0 l 560 0 b 960 339 810 0 960 115 b 592 653 960 549 826 653 z m 1083 0 l 1307 0 l 1307 972 l 1083 972 z m 547 167 l 344 167 l 344 486 l 547 486 b 733 335 664 486 733 442 b 547 167 733 225 663 167 z "},"Љ":{"ha":1646,"x_min":0,"x_max":0,"o":"m 1236 653 l 989 653 l 989 972 l 240 972 l 226 578 b 74 185 217 329 188 185 b 33 190 60 185 47 186 l 19 0 b 131 -15 61 -10 97 -15 b 425 586 358 -15 413 204 l 432 789 l 765 789 l 765 0 l 1204 0 b 1604 339 1454 0 1604 115 b 1236 653 1604 549 1471 653 z m 1192 167 l 989 167 l 989 486 l 1192 486 b 1378 335 1308 486 1378 442 b 1192 167 1378 225 1307 167 z "},"Њ":{"ha":1626,"x_min":0,"x_max":0,"o":"m 1239 614 l 993 614 l 993 972 l 771 972 l 771 607 l 344 607 l 344 972 l 121 972 l 121 0 l 344 0 l 344 424 l 771 424 l 771 0 l 1215 0 b 1588 317 1447 0 1588 115 b 1239 614 1588 507 1460 614 z m 1190 167 l 993 167 l 993 447 l 1190 447 b 1360 308 1299 447 1360 399 b 1190 167 1360 218 1297 167 z "},"Ѕ":{"ha":907,"x_min":0,"x_max":0,"o":"m 447 -17 b 860 285 725 -17 860 122 b 294 697 860 642 294 518 b 479 808 294 758 346 808 b 749 732 565 808 658 783 l 818 903 b 481 989 728 960 603 989 b 71 686 204 989 71 851 b 636 268 71 325 636 450 b 449 164 636 208 582 164 b 128 265 332 164 210 206 l 51 96 b 447 -17 138 29 293 -17 z "},"Є":{"ha":993,"x_min":0,"x_max":0,"o":"m 571 175 b 296 394 432 175 328 261 l 688 394 l 688 567 l 293 567 b 571 797 322 706 428 797 b 822 682 671 797 754 758 l 965 815 b 560 989 874 928 732 989 b 56 486 268 989 56 779 b 560 -17 56 193 268 -17 b 965 157 732 -17 874 44 l 822 290 b 571 175 754 214 671 175 z "},"Э":{"ha":992,"x_min":0,"x_max":0,"o":"m 432 989 b 26 815 260 989 118 928 l 169 682 b 421 797 238 758 321 797 b 696 578 560 797 664 711 l 304 578 l 304 406 l 699 406 b 421 175 669 267 564 175 b 169 290 321 175 238 214 l 26 157 b 432 -17 118 44 260 -17 b 936 486 724 -17 936 193 b 432 989 936 779 724 989 z "},"І":{"ha":465,"x_min":0,"x_max":0,"o":"m 121 0 l 344 0 l 344 972 l 121 972 z "},"Ї":{"ha":456,"x_min":0,"x_max":0,"o":"m 88 1058 b 183 1154 142 1058 183 1097 b 88 1250 183 1211 142 1250 b -10 1154 33 1250 -10 1211 b 88 1058 -10 1097 33 1058 z m 368 1058 b 465 1154 422 1058 465 1097 b 368 1250 465 1211 422 1250 b 272 1154 315 1250 272 1211 b 368 1058 272 1097 315 1058 z m 115 0 l 340 0 l 340 972 l 115 972 z "},"Ј":{"ha":789,"x_min":0,"x_max":0,"o":"m 333 -17 b 683 342 563 -17 683 101 l 683 972 l 118 972 l 118 792 l 460 792 l 460 329 b 322 168 460 222 413 168 b 142 275 253 168 194 204 l 17 125 b 333 -17 88 33 203 -17 z "},"Ћ":{"ha":1190,"x_min":0,"x_max":0,"o":"m 788 592 b 553 553 715 592 638 579 l 553 789 l 894 789 l 894 972 l 21 972 l 21 789 l 331 789 l 331 0 l 553 0 l 553 357 b 735 401 621 388 681 401 b 915 214 844 401 915 340 l 915 0 l 1138 0 l 1138 243 b 788 592 1138 481 1000 592 z "},"Ю":{"ha":1547,"x_min":0,"x_max":0,"o":"m 979 989 b 475 590 719 989 521 826 l 344 590 l 344 972 l 121 972 l 121 0 l 344 0 l 344 396 l 472 396 b 979 -17 513 153 715 -17 b 1493 486 1275 -17 1493 196 b 979 989 1493 776 1275 989 z m 979 175 b 693 486 818 175 693 300 b 979 797 693 672 818 797 b 1265 486 1140 797 1265 672 b 979 175 1265 300 1140 175 z "},"Я":{"ha":1019,"x_min":0,"x_max":0,"o":"m 478 972 b 58 610 221 972 58 836 b 263 293 58 457 132 346 l 60 0 l 297 0 l 469 258 l 675 258 l 675 0 l 897 0 l 897 972 z m 483 789 l 675 789 l 675 436 l 478 436 b 286 613 351 436 286 500 b 483 789 286 729 356 789 z "},"Ђ":{"ha":1179,"x_min":0,"x_max":0,"o":"m 554 568 l 554 789 l 906 789 l 906 972 l 21 972 l 21 789 l 332 789 l 332 0 l 554 0 l 554 381 b 742 424 622 410 686 424 b 917 290 846 424 917 376 b 772 169 917 201 843 169 b 708 178 750 169 728 172 l 685 1 b 801 -10 724 -6 764 -10 b 1140 294 986 -10 1140 81 b 792 604 1140 494 1007 604 b 554 568 721 604 640 593 z "},"Ѣ":{"ha":1151,"x_min":0,"x_max":0,"o":"m 750 643 l 492 643 l 492 756 l 789 756 l 789 899 l 492 899 l 492 1031 l 269 1031 l 269 899 l 24 899 l 24 756 l 269 756 l 269 0 l 717 0 b 1110 331 967 0 1110 121 b 750 643 1110 533 982 643 z m 704 167 l 492 167 l 492 476 l 704 476 b 882 325 824 476 882 426 b 704 167 882 221 821 167 z "},"Ѫ":{"ha":1313,"x_min":0,"x_max":0,"o":"m 1219 201 b 882 532 1139 435 1026 524 l 1167 836 l 1167 972 l 146 972 l 146 833 l 429 531 b 96 201 283 522 176 432 l 17 0 l 249 0 l 300 153 b 514 378 349 319 419 378 l 553 378 l 553 0 l 758 0 l 758 378 l 801 378 b 1011 153 893 378 964 317 l 1063 0 l 1296 0 z m 921 813 l 657 532 l 654 532 l 392 813 z "},"Ѳ":{"ha":1169,"x_min":0,"x_max":0,"o":"m 585 989 b 53 486 278 989 53 775 b 585 -17 53 197 278 -17 b 1115 486 890 -17 1115 196 b 585 989 1115 776 890 989 z m 585 797 b 881 561 732 797 850 704 l 289 561 b 585 797 318 704 436 797 z m 585 175 b 289 410 436 175 319 268 l 881 410 b 585 175 850 268 732 175 z "},"Ѵ":{"ha":1101,"x_min":0,"x_max":0,"o":"m 407 0 l 631 0 l 861 636 b 997 775 896 733 932 775 b 1060 765 1015 775 1036 771 l 1082 975 b 954 992 1035 986 993 992 b 686 772 819 992 738 922 l 521 310 l 256 972 l 13 972 z "},"Ғ":{"ha":889,"x_min":0,"x_max":0,"o":"m 858 789 l 860 972 l 174 972 l 174 517 l 31 517 l 31 374 l 174 374 l 174 0 l 397 0 l 397 374 l 775 374 l 775 517 l 396 517 l 396 789 z "},"Ҕ":{"ha":981,"x_min":0,"x_max":0,"o":"m 344 511 l 344 789 l 835 789 l 835 972 l 121 972 l 121 0 l 344 0 l 344 331 b 513 378 403 363 460 378 b 711 174 626 378 711 304 b 526 -33 711 47 633 -33 b 478 -28 511 -33 494 -32 l 442 -201 b 542 -211 476 -208 510 -211 b 933 190 767 -211 933 -49 b 560 551 933 417 776 551 b 344 511 492 551 419 538 z "},"Җ":{"ha":1543,"x_min":0,"x_max":0,"o":"m 1375 183 l 1190 508 l 1463 972 l 1225 972 l 1006 579 l 861 579 l 861 972 l 640 972 l 640 579 l 492 579 l 274 972 l 36 972 l 310 508 l 18 0 l 278 0 l 496 392 l 640 392 l 640 0 l 861 0 l 861 392 l 1003 392 l 1221 0 l 1315 0 l 1315 -201 l 1522 -201 l 1522 183 z "},"Ҙ":{"ha":911,"x_min":0,"x_max":0,"o":"m 854 272 b 674 507 854 382 786 468 b 814 714 760 544 814 619 b 394 993 814 890 619 993 b 61 914 283 993 167 968 l 129 739 b 390 808 213 786 308 808 b 586 688 500 808 586 767 b 442 583 586 624 533 583 l 221 583 l 221 414 l 458 414 b 626 304 560 414 626 378 b 394 167 626 214 522 167 b 103 246 300 167 192 192 l 33 85 b 322 -11 124 33 224 1 l 322 -201 l 529 -201 l 529 -8 b 854 272 713 19 854 118 z "},"Қ":{"ha":1072,"x_min":0,"x_max":0,"o":"m 886 183 l 678 503 l 996 972 l 758 972 l 503 579 l 342 579 l 342 972 l 118 972 l 118 0 l 342 0 l 342 392 l 497 392 l 750 0 l 844 0 l 844 -201 l 1051 -201 l 1051 183 z "},"Ҝ":{"ha":1076,"x_min":0,"x_max":0,"o":"m 796 0 l 1060 0 l 760 503 l 1038 972 l 800 972 l 579 579 l 533 579 l 533 746 l 413 746 l 413 579 l 342 579 l 342 972 l 118 972 l 118 0 l 342 0 l 342 392 l 413 392 l 413 226 l 533 226 l 533 392 l 575 392 z "},"Ҟ":{"ha":1053,"x_min":0,"x_max":0,"o":"m 782 0 l 1038 0 l 710 503 l 1028 972 l 790 972 l 535 579 l 374 579 l 374 747 l 565 747 l 565 869 l 374 869 l 374 972 l 150 972 l 150 869 l 35 869 l 35 747 l 150 747 l 150 0 l 374 0 l 374 392 l 529 392 z "},"Ҡ":{"ha":1196,"x_min":0,"x_max":0,"o":"m 924 0 l 1179 0 l 853 503 l 1171 972 l 933 972 l 678 579 l 517 579 l 517 972 l 21 972 l 21 789 l 293 789 l 293 0 l 517 0 l 517 392 l 671 392 z "},"Ң":{"ha":1183,"x_min":0,"x_max":0,"o":"m 1013 183 l 1013 972 l 788 972 l 788 589 l 346 589 l 346 972 l 121 972 l 121 0 l 346 0 l 346 399 l 788 399 l 788 0 l 943 0 l 943 -201 l 1151 -201 l 1151 183 z "},"Ҥ":{"ha":1497,"x_min":0,"x_max":0,"o":"m 1478 972 l 788 972 l 788 589 l 346 589 l 346 972 l 121 972 l 121 0 l 346 0 l 346 399 l 788 399 l 788 0 l 1015 0 l 1014 789 l 1476 789 z "},"Ҧ":{"ha":1636,"x_min":0,"x_max":0,"o":"m 1007 511 l 1007 972 l 121 972 l 121 0 l 344 0 l 344 789 l 783 789 l 783 0 l 1007 0 l 1007 331 b 1179 375 1069 361 1128 375 b 1372 174 1293 375 1372 303 b 1188 -33 1372 49 1296 -33 b 1139 -28 1172 -33 1156 -32 l 1103 -201 b 1203 -211 1138 -208 1171 -211 b 1594 190 1428 -211 1594 -49 b 1221 550 1594 415 1439 550 b 1007 511 1154 550 1082 538 z "},"Ԥ":{"ha":1176,"x_min":0,"x_max":0,"o":"m 1007 183 l 1007 972 l 121 972 l 121 0 l 344 0 l 344 789 l 783 789 l 783 0 l 935 0 l 935 -201 l 1143 -201 l 1143 183 z "},"Ҩ":{"ha":1357,"x_min":0,"x_max":0,"o":"m 1285 -6 l 1268 147 b 1110 124 1214 132 1161 124 b 1049 128 1089 124 1068 125 b 1272 585 1185 235 1272 396 b 890 996 1272 836 1122 996 b 492 556 650 996 492 821 b 661 138 492 385 556 240 b 286 515 447 138 286 279 b 461 904 286 664 351 808 l 279 994 b 60 525 138 885 60 713 b 621 -19 60 183 308 -19 b 844 17 699 -19 774 -7 b 1090 -32 919 -15 1003 -32 b 1285 -6 1153 -32 1218 -24 z m 886 819 b 1065 568 1000 819 1065 728 b 875 192 1065 390 992 260 b 699 558 767 265 699 393 b 886 819 699 722 768 819 z "},"Ҫ":{"ha":1008,"x_min":0,"x_max":0,"o":"m 593 175 b 282 486 411 175 282 303 b 593 797 282 669 411 797 b 838 683 690 797 772 758 l 982 817 b 582 989 890 928 750 989 b 54 486 279 989 54 779 b 450 -3 54 238 217 49 l 450 -201 l 657 -201 l 657 -12 b 982 157 792 3 904 63 l 838 290 b 593 175 772 214 690 175 z "},"Ҭ":{"ha":885,"x_min":0,"x_max":0,"o":"m 864 789 l 864 972 l 21 972 l 21 789 l 331 789 l 331 0 l 482 0 l 482 -201 l 690 -201 l 690 183 l 553 183 l 553 789 z "},"Ү":{"ha":989,"x_min":0,"x_max":0,"o":"m 983 972 l 764 972 l 503 540 l 244 972 l 4 972 l 382 346 l 382 0 l 607 0 l 607 344 z "},"Ұ":{"ha":989,"x_min":0,"x_max":0,"o":"m 983 972 l 764 972 l 503 540 l 244 972 l 4 972 l 338 421 l 181 421 l 181 296 l 382 296 l 382 0 l 607 0 l 607 296 l 799 296 l 799 421 l 653 421 z "},"Ҳ":{"ha":1043,"x_min":0,"x_max":0,"o":"m 863 183 l 639 507 l 963 972 l 699 972 l 497 678 l 296 972 l 36 972 l 361 497 l 14 0 l 274 0 l 497 322 l 724 0 l 818 0 l 818 -201 l 1025 -201 l 1025 183 z "},"Ҵ":{"ha":1379,"x_min":0,"x_max":0,"o":"m 1213 182 l 1213 971 l 989 971 l 989 182 l 556 182 l 556 789 l 806 789 l 806 972 l 22 972 l 22 789 l 332 789 l 332 -1 l 1144 -1 l 1144 -207 l 1351 -207 l 1351 182 z "},"Ҷ":{"ha":1089,"x_min":0,"x_max":0,"o":"m 919 183 l 919 972 l 697 972 l 697 535 b 489 492 635 507 563 492 b 281 693 354 492 281 560 l 281 972 l 58 972 l 58 668 b 463 304 58 433 201 304 b 697 350 535 304 613 319 l 697 0 l 849 0 l 849 -201 l 1057 -201 l 1057 183 z "},"Ҹ":{"ha":1040,"x_min":0,"x_max":0,"o":"m 696 972 l 696 535 b 544 494 650 514 599 500 l 544 661 l 424 661 l 424 497 b 279 693 329 517 279 582 l 279 972 l 57 972 l 57 668 b 424 306 57 444 186 317 l 424 140 l 544 140 l 544 311 b 696 350 592 318 643 331 l 696 0 l 918 0 l 918 972 z "},"Һ":{"ha":1040,"x_min":0,"x_max":0,"o":"m 579 668 b 344 622 507 668 429 653 l 344 972 l 121 972 l 121 0 l 344 0 l 344 438 b 551 481 407 465 479 481 b 760 279 686 481 760 413 l 760 0 l 982 0 l 982 304 b 579 668 982 539 839 668 z "},"Ԧ":{"ha":1142,"x_min":0,"x_max":0,"o":"m 982 183 l 982 304 b 579 668 982 539 839 668 b 344 622 507 668 429 653 l 344 972 l 121 972 l 121 0 l 344 0 l 344 438 b 551 481 407 465 479 481 b 760 279 686 481 760 413 l 760 0 l 911 0 l 911 -201 l 1119 -201 l 1119 183 z "},"Ҽ":{"ha":1414,"x_min":0,"x_max":0,"o":"m 1368 492 b 860 989 1368 808 1125 989 b 346 560 614 989 382 833 l 339 560 b 226 665 264 560 226 606 b 261 775 226 699 238 738 l 71 808 b 33 646 46 751 33 696 b 310 396 33 500 135 396 l 349 396 b 867 -17 390 129 622 -17 b 1288 149 1017 -17 1171 38 l 1125 286 b 869 174 1049 210 956 174 b 579 396 736 174 615 254 l 1358 396 b 1368 492 1365 425 1368 461 z m 860 800 b 1135 560 992 800 1110 711 l 575 560 b 860 800 604 710 726 800 z "},"Ҿ":{"ha":1414,"x_min":0,"x_max":0,"o":"m 1368 492 b 860 989 1368 808 1125 989 b 346 560 614 989 382 833 l 339 560 b 226 665 264 560 226 606 b 261 775 226 699 238 738 l 71 808 b 33 646 46 751 33 696 b 310 396 33 500 135 396 l 349 396 b 768 -8 385 165 563 25 l 768 -201 l 975 -201 l 975 -7 b 1288 149 1089 13 1199 64 l 1125 286 b 869 174 1049 210 956 174 b 579 396 736 174 615 254 l 1358 396 b 1368 492 1365 425 1368 461 z m 860 800 b 1135 560 992 800 1110 711 l 575 560 b 860 800 604 710 726 800 z "},"Ӏ":{"ha":468,"x_min":0,"x_max":0,"o":"m 121 0 l 347 0 l 347 972 l 121 972 z "},"Ӂ":{"ha":1499,"x_min":0,"x_max":0,"o":"m 751 1035 b 1021 1247 933 1035 1019 1111 l 867 1247 b 751 1146 865 1181 825 1146 b 636 1247 675 1146 638 1181 l 482 1247 b 751 1035 483 1111 567 1035 z m 1221 0 l 1481 0 l 1190 508 l 1463 972 l 1225 972 l 1006 579 l 861 579 l 861 972 l 640 972 l 640 579 l 492 579 l 274 972 l 36 972 l 310 508 l 18 0 l 278 0 l 496 392 l 640 392 l 640 0 l 861 0 l 861 392 l 1003 392 z "},"Ӄ":{"ha":1033,"x_min":0,"x_max":0,"o":"m 682 504 l 999 972 l 761 972 l 506 579 l 346 579 l 346 972 l 121 972 l 121 0 l 346 0 l 346 392 l 506 392 b 761 -11 639 254 761 89 b 681 -104 761 -71 731 -104 b 600 -82 656 -104 629 -96 l 547 -243 b 729 -285 604 -271 665 -285 b 1008 -18 901 -285 1008 -185 b 682 504 1008 128 878 294 z "},"Ӈ":{"ha":1131,"x_min":0,"x_max":0,"o":"m 550 -239 b 731 -283 607 -268 669 -283 b 1008 -15 876 -283 1008 -197 l 1008 972 l 786 972 l 786 574 l 344 574 l 344 972 l 121 972 l 121 0 l 344 0 l 344 389 l 786 389 l 786 -10 b 690 -107 786 -75 744 -107 b 606 -82 664 -107 633 -99 z "},"Ӊ":{"ha":1189,"x_min":0,"x_max":0,"o":"m 1013 183 l 1013 972 l 788 972 l 788 589 l 346 589 l 346 972 l 121 972 l 121 0 l 346 0 l 346 399 l 788 399 l 788 0 l 908 0 l 868 -201 l 1046 -201 l 1156 183 z "},"Ӌ":{"ha":1033,"x_min":0,"x_max":0,"o":"m 690 972 l 690 581 b 485 539 628 553 558 539 b 276 721 350 539 276 601 l 276 972 l 54 972 l 54 696 b 458 351 54 472 197 351 b 690 397 529 351 607 367 l 690 183 l 517 183 l 517 -201 l 724 -201 l 724 0 l 913 0 l 913 972 z "},"Ӎ":{"ha":1413,"x_min":0,"x_max":0,"o":"m 1217 183 l 1215 972 l 1029 972 l 671 368 l 307 972 l 121 972 l 121 0 l 332 0 l 332 571 l 618 103 l 718 103 l 1004 582 l 1006 0 l 1132 0 l 1092 -201 l 1269 -201 l 1379 183 z "},"Ӑ":{"ha":1110,"x_min":0,"x_max":0,"o":"m 556 1035 b 825 1247 738 1035 824 1111 l 671 1247 b 556 1146 669 1181 629 1146 b 440 1247 479 1146 442 1181 l 286 1247 b 556 1035 288 1111 371 1035 z m 865 0 l 1101 0 l 667 972 l 444 972 l 11 0 l 242 0 l 328 208 l 779 208 z m 400 379 l 554 751 l 708 379 z "}}}
